<svg xmlns:dc="http://purl.org/dc/elements/1.1/" xmlns:cc="http://creativecommons.org/ns#" xmlns:rdf="http://www.w3.org/1999/02/22-rdf-syntax-ns#" xmlns:svg="http://www.w3.org/2000/svg" xmlns="http://www.w3.org/2000/svg" xmlns:sodipodi="http://sodipodi.sourceforge.net/DTD/sodipodi-0.dtd" xmlns:inkscape="http://www.inkscape.org/namespaces/inkscape" viewBox="0 0 100 125" version="1.1" x="0px" y="0px"><g transform="translate(0,-952.36216)"><path style="color:#000000;clip-rule:nonzero;display:inline;overflow:visible;visibility:visible;opacity:1;isolation:auto;mix-blend-mode:normal;color-interpolation:sRGB;color-interpolation-filters:linearRGB;solid-color:#000000;solid-opacity:1;fill:#000000;fill-opacity:1;fill-rule:nonzero;stroke:none;stroke-width:30;stroke-linecap:round;stroke-linejoin:round;stroke-miterlimit:4;stroke-dasharray:none;stroke-dashoffset:0;stroke-opacity:1;color-rendering:auto;image-rendering:auto;shape-rendering:auto;text-rendering:auto;enable-background:accumulate" d="m 20.19913,979.03346 a 3.6866183,3.6866183 0 0 0 -3.68654,3.6866 3.6866183,3.6866183 0 0 0 3.68654,3.6865 3.6866183,3.6866183 0 0 0 3.68662,-3.6865 3.6866183,3.6866183 0 0 0 -3.68662,-3.6866 z m 61.10513,3.2969 0.003,0 a 0.29532529,0.29532529 0 0 0 -0.26983,0.171 c -0.57907,1.2518 -1.10056,2.6076 -1.02197,4.3778 a 0.29532529,0.29532529 0 0 0 0.0144,0.077 c -1.69498,1.921 -7.2112,7.3903 -8.82334,8.2079 -0.32064,0.1402 -0.58928,0.198 -1.34812,0.2926 -1.46188,0.1823 -4.78271,0.2076 -11.22539,-0.5925 -1.95736,-0.2387 -3.78801,0.4234 -5.11564,1.6352 -0.58772,-0.5777 -1.29255,-1.0365 -2.06457,-1.3258 -0.96319,-0.361 -2.02143,-0.4645 -3.03662,-0.2971 -1.09915,0.1291 -2.16201,0.5544 -3.04675,1.2191 -0.95216,0.7151 -1.69595,1.7105 -2.08446,2.8361 -0.17902,0.5194 -0.28347,1.0644 -0.30835,1.61334 0,0.7199 0.1481,1.4404 0.44207,2.0976 0.45921,1.0275 1.24286,1.8692 2.01436,2.6891 0.21776,0.2314 0.43648,0.4643 0.60612,0.7327 0.0968,0.1525 0.177,0.3157 0.23839,0.4854 0.0387,0.1792 0.0109,0.3732 -0.083,0.5316 -0.063,0.1069 -0.15317,0.1972 -0.25814,0.2636 -0.10444,0.066 -0.22431,0.1089 -0.34641,0.1285 -0.3272,0.052 -0.66095,-0.061 -0.94501,-0.2302 -0.4753,-0.283 -0.84995,-0.73 -1.04618,-1.247 -0.26194,0.2985 -0.44148,0.6677 -0.51553,1.0577 -0.0735,0.3899 -0.0387,0.7996 0.0934,1.1729 0.15526,0.4301 0.44364,0.8077 0.80227,1.0913 0.35864,0.2835 0.78641,0.4747 1.23183,0.579 0.9538,0.2233 1.99663,0.036 2.81231,-0.5071 0.8676,-0.5781 1.46068,-1.552 1.57511,-2.5885 0.0569,-0.7507 -0.0498,-1.5129 -0.30514,-2.2204 -0.20949,-0.5768 -0.51881,-1.1156 -0.89234,-1.6023 -0.22163,-0.2887 -0.46651,-0.5598 -0.67764,-0.8562 -0.21113,-0.2964 -0.39014,-0.6231 -0.46084,-0.9801 -0.0166,-0.091 -0.0276,-0.1829 -0.0387,-0.2749 -0.0276,-0.2455 -0.0574,-0.494 -0.0276,-0.7393 0.0553,-0.42384 0.28675,-0.81064 0.58958,-1.11194 0.37085,-0.3684 0.84161,-0.6211 1.32682,-0.8137 1.05332,-0.4176 2.20834,-0.5605 3.33453,-0.4384 -0.69626,1.076 -1.08245,2.37344 -1.02114,3.77034 l -0.0166,-0.01 c 0,3.1868 1.02182,5.5793 2.21096,8.0096 l -0.34612,4.3114 c -0.009,0.2036 0.0127,0.3765 0.0592,0.5439 l 2.42246,9.1418 c 0.2521,1.0052 1.27757,1.6102 2.27919,1.3447 1.00171,-0.2654 1.59285,-1.2989 1.31408,-2.2969 l -2.19755,-8.2929 c 1.74184,-1.8172 3.077,-3.6531 3.77974,-5.5182 3.51416,0.8789 6.75781,1.4321 9.86647,1.409 0.0781,0 0.15443,0.01 0.23139,0.011 l 1.84279,13.0632 c 0.0957,1.0325 1.01757,1.7873 2.04855,1.6771 1.03098,-0.1103 1.77239,-1.0431 1.64753,-2.0724 l -0.83647,-12.6142 c 0.68889,-0.3625 1.44482,-0.9965 2.30795,-2.058 3.06628,-3.7709 4.10366,-8.35584 4.90176,-13.46444 l 7.66858,2.0552 c 0.87564,0.2346 1.80446,-0.4136 2.08304,-1.4531 0.27853,-1.0396 -0.40256,-1.6463 -1.07731,-2.2997 l -5.91773,-5.73 c 0,-0.01 -0.006,-0.01 -0.009,-0.01 -0.33517,-0.3323 -0.76979,-0.6285 -1.25262,-0.8624 0.12263,-1.0183 0.28273,-2.0109 0.63436,-2.9514 a 0.29532529,0.29532529 0 0 0 -0.26805,-0.3989 0.29532529,0.29532529 0 0 0 -0.17879,0.054 c -0.77896,0.549 -1.55612,1.1605 -2.23331,2.001 -0.34679,-0.8377 -0.64925,-1.6777 -0.79639,-2.5574 a 0.29532529,0.29532529 0 0 0 -0.28979,-0.2462 z m -62.07316,5.1797 c -1.59195,0 -2.87377,1.2817 -2.87377,2.8736 l 0,9.84234 c 0.84839,-0.40014 1.6964,-0.85134 2.55075,-1.31424 1.60104,-0.8675 3.28984,-1.7985 5.14968,-2.3906 l 0,-6.1375 c 0,-1.5919 -1.28174,-2.8736 -2.87369,-2.8736 l -1.95297,0 z m 8.99841,9.5102 c -0.65409,0 -1.30975,0.024 -1.95706,0.1213 -2.44094,0.3681 -4.66173,1.5767 -6.83216,2.7527 -2.17155,1.17664 -4.40001,2.35794 -6.83692,2.76004 -1.21805,0.201 -2.46902,0.201 -3.6870597,0 l 0,2.0602 0.0907,0.015 c 1.1574097,0.191 2.3476697,0.191 3.5050697,0 2.31749,-0.3824 4.49358,-1.5251 6.66207,-2.7001 2.16976,-1.1757 4.44524,-2.42644 7.01505,-2.81394 0.55233,-0.083 1.09989,-0.1141 1.63725,-0.1241 0.53728,-0.01 1.06458,7e-4 1.57668,7e-4 l 0,-2.0677 c -0.38933,0 -0.78126,-0.01 -1.17365,0 z m 10e-4,3.18594 c -0.64314,0 -1.27131,0.023 -1.87549,0.1142 -2.31205,0.3487 -4.47838,1.5151 -6.64941,2.6914 -2.17468,1.1783 -4.45588,2.3985 -7.01229,2.8203 -1.24837,0.206 -2.5281,0.2104 -3.7780297,0.014 l 0,4.3421 c 0.89711,-0.9231 1.9901497,-1.6822 3.2496897,-2.2039 1.243,-0.5149 2.53875,-0.754 3.81043,-0.7431 3.81498,0.032 7.42993,2.3098 8.97443,6.0387 0.65081,1.5711 0.85755,3.2201 0.67964,4.8061 l 1.94657,0 1.8261,0 0,-2.2349 0,-15.6417 c -0.39455,0 -0.78581,0 -1.17164,0 z m 52.97232,5.1388 c -0.61417,1.2456 -1.3546,2.4403 -2.27354,3.5704 -0.6573,0.8083 -1.30483,1.4205 -1.93501,1.8697 l 1.5988,11.332 c 0.0957,1.0325 1.01757,1.7872 2.04855,1.6771 1.03098,-0.1103 1.77217,-1.0431 1.64738,-2.0724 l -1.08618,-16.3768 z m -51.80038,2.769 0,2.0677 13.84094,0 c -0.48685,-0.3998 -0.88578,-0.9245 -1.11353,-1.5556 l -10e-4,0 -0.001,0 c -0.0584,-0.165 -0.10258,-0.3341 -0.13536,-0.5054 l -12.589,0 z m -13.4365,0.2448 c -1.12574,-0.01 -2.27085,0.2013 -3.3735,0.658 -4.4104396,1.8269 -6.5176997,6.9144 -4.6907796,11.3249 1.8268499,4.4104 6.9143296,6.5178 11.3247696,4.6909 4.41044,-1.8268 6.51807,-6.9144 4.69122,-11.3249 -1.37017,-3.3078 -4.57456,-5.3201 -7.95171,-5.3489 z m 45.62553,1.7199 c -0.59651,1.2581 -1.42001,2.4693 -2.41144,3.6507 l 2.29693,8.6681 c 0.2521,1.0052 1.2775,1.6103 2.2792,1.3448 1.0017,-0.2655 1.59277,-1.299 1.314,-2.2971 l -2.19755,-8.2927 c 0.75802,-0.7909 1.43536,-1.5853 2.02226,-2.3841 -1.08425,-0.1931 -2.18384,-0.4253 -3.3034,-0.6897 z m -45.63216,0.5078 c 0.64627,0 1.28264,0.1064 1.8892,0.2979 l -1.40779,3.3986 c -0.17492,-0.034 -0.3526,-0.052 -0.53088,-0.052 -0.17812,9e-4 -0.35587,0.019 -0.53057,0.053 l -1.40601,-3.3943 c 0.65752,-0.209 1.32682,-0.3074 1.98605,-0.3034 z m 2.92152,0.725 c 1.13982,0.593 2.10756,1.5314 2.7355,2.7446 l -3.39384,1.4058 c -0.1995,-0.2961 -0.45384,-0.5512 -0.74938,-0.7515 l 1.40772,-3.3989 z m -5.93974,0.01 1.40601,3.3945 c -0.29613,0.1994 -0.55144,0.4537 -0.75184,0.7492 l -3.39779,-1.4075 c 0.59301,-1.1398 1.53034,-2.1082 2.74362,-2.7362 z m -3.1710897,3.7687 3.3980897,1.4076 c -0.0342,0.1749 -0.0516,0.3526 -0.0519,0.5308 7.5e-4,0.1782 0.0185,0.3558 0.053,0.5305 l -3.3939797,1.4059 c -0.41384,-1.3019 -0.39201,-2.6495 -0.005,-3.8748 z m 12.2743997,0 c 0.41384,1.3019 0.39186,2.6494 0.005,3.8747 l -3.39831,-1.4076 c 0.0343,-0.1749 0.0518,-0.3527 0.0521,-0.5308 -7.4e-4,-0.1781 -0.0186,-0.3557 -0.0531,-0.5304 l 3.39399,-1.4059 z m -8.4472,3.4991 c 0.19943,0.2961 0.45369,0.5512 0.74915,0.7515 l -1.40727,3.398 c -1.1399,-0.593 -2.10837,-1.5303 -2.73639,-2.7436 l 3.39451,-1.4059 z m 4.62701,9e-4 3.39763,1.4075 c -0.593,1.1398 -1.53034,2.1082 -2.74362,2.7362 l -1.4057,-3.3943 c 0.29605,-0.1995 0.55136,-0.4539 0.75169,-0.7494 z m -1.78401,1.177 0,0 1.40585,3.3942 c -1.30193,0.4138 -2.64953,0.3918 -3.8748,0 l 1.40779,-3.3984 c 0.17485,0.034 0.3526,0.052 0.5308,0.052 0.17805,-7e-4 0.35566,-0.018 0.53036,-0.053 z"/></g></svg>