<svg xmlns="http://www.w3.org/2000/svg" viewBox="0 0 167 1610.75"><defs><style>.cls-1{fill:#fff;}</style></defs><g id="Layer_2" data-name="Layer 2"><g id="Layer_3" data-name="Layer 3"><path d="M152.5,64.88a2.47,2.47,0,0,1,2-2.45,15.26,15.26,0,0,0,12.52-15V28.2a11,11,0,0,0-11-11h-8.53A2.48,2.48,0,0,1,145,14.73V13.47A2.48,2.48,0,0,1,147.47,11h0a5,5,0,0,0,5-5V5a5,5,0,0,0-5-5H19.47a5,5,0,0,0-5,5V6a5,5,0,0,0,5,5h0A2.48,2.48,0,0,1,22,13.47v1.26a2.48,2.48,0,0,1-2.47,2.47H11a11,11,0,0,0-11,11V47.42a15.26,15.26,0,0,0,12.52,15,2.47,2.47,0,0,1,2,2.45"/><path d="M14.5,1563.06a2.47,2.47,0,0,1-2,2.46,15.26,15.26,0,0,0-12.52,15v19.22a11,11,0,0,0,11,11H156a11,11,0,0,0,11-11v-19.22a15.26,15.26,0,0,0-12.52-15,2.47,2.47,0,0,1-2-2.46"/><path class="cls-1" d="M159.67,40.6A16.53,16.53,0,0,0,155,30.81a16.19,16.19,0,0,0-9.7-4.73,19.22,19.22,0,0,0-2.72-.11l-2.63,0-5.26.11-10.52.27c-14,.35-28,1-42,1.06v0l-41.32-.7-10.32-.14-5.17-.05a27,27,0,0,0-5.16.24A15.67,15.67,0,0,0,7.28,41.15,12.58,12.58,0,0,0,19.79,54.8a10.1,10.1,0,0,0,10.08-9.88A8,8,0,0,0,28.36,40a8.1,8.1,0,0,0-4.15-3,7.23,7.23,0,0,0-5.1.23,6.45,6.45,0,0,0-3.74,6.34,5.18,5.18,0,0,0,5.34,4.7,4.15,4.15,0,0,0,3.82-3.06,3.6,3.6,0,0,0-.21-2.56A3.28,3.28,0,0,0,22.4,41a2.9,2.9,0,0,0-2.53.27,2.68,2.68,0,0,0-1.19,2.23h.1A2.54,2.54,0,0,1,20,41.4a2.69,2.69,0,0,1,2.36-.19,3,3,0,0,1,1.74,1.59,3.23,3.23,0,0,1,.12,2.33,3.71,3.71,0,0,1-3.49,2.67,4.74,4.74,0,0,1-4-2.1A4.57,4.57,0,0,1,16,43.53a5.76,5.76,0,0,1,3.43-5.62A6.42,6.42,0,0,1,24,37.79a7.49,7.49,0,0,1,3.69,2.74c1.89,2.52,1.64,6.19,0,8.88a9.18,9.18,0,0,1-7.88,4.42A11.7,11.7,0,0,1,8.2,41.21a14.73,14.73,0,0,1,3.7-8.87,15.14,15.14,0,0,1,8.38-4.79,15.56,15.56,0,0,1,2.46-.27h7.73l10.33.07,41.32.2c7,.1,14-.05,21-.16l21-.41,10.51-.19,5.26-.08h2.63a16.31,16.31,0,0,1,2.61.13A15.69,15.69,0,0,1,158.75,40.7a12.67,12.67,0,0,1-2.85,9.74,12.52,12.52,0,0,1-9.1,4.45,10,10,0,0,1-8.86-4.54,9.89,9.89,0,0,1-1.6-4.89,8,8,0,0,1,5.33-8.09,7.12,7.12,0,0,1,5.08,0A6.41,6.41,0,0,1,150.27,41a5.56,5.56,0,0,1-.37,5,5.13,5.13,0,0,1-4.37,2.38,4.09,4.09,0,0,1-3.85-2.93,3.56,3.56,0,0,1,.15-2.53,3.29,3.29,0,0,1,1.87-1.68,2.81,2.81,0,0,1,2.48.23,2.59,2.59,0,0,1,1.18,2.18h.1a2.72,2.72,0,0,0-1.19-2.31,3,3,0,0,0-2.64-.32,3.55,3.55,0,0,0-2.07,1.77,3.93,3.93,0,0,0-.22,2.76,4.51,4.51,0,0,0,4.18,3.32,5.71,5.71,0,0,0,2.77-.63,5.78,5.78,0,0,0,2.1-1.92,5.65,5.65,0,0,0,.91-2.73A7.05,7.05,0,0,0,147,36.72a8.17,8.17,0,0,0-6.87.41c-9.27.94-18.49,2.26-27.74,3.36a226.11,226.11,0,0,1-29.3,1.94,276.17,276.17,0,0,1-29.3-2.12C44.09,39.18,34.38,37.86,24.62,37v0c4.87.52,9.73,1.14,14.58,1.79l14.59,1.84a276.36,276.36,0,0,0,29.33,2.28,226.67,226.67,0,0,0,29.35-2.1l14.58-1.91c4.31-.61,8.62-1.19,12.94-1.7A8.65,8.65,0,0,0,136.92,40a8.84,8.84,0,0,0-1.46,5.46,10.71,10.71,0,0,0,1.71,5.35,10.94,10.94,0,0,0,9.66,5,13.31,13.31,0,0,0,9.82-4.79,13.63,13.63,0,0,0,2.61-4.93A14.43,14.43,0,0,0,159.67,40.6Z"/><path class="cls-1" d="M159.67,1587.65a16.53,16.53,0,0,1-4.68,9.79,16.08,16.08,0,0,1-9.7,4.73,17.84,17.84,0,0,1-2.72.11l-2.63,0-5.26-.11-10.52-.27c-14-.34-28-1-42-1.06v0l-41.32.7-10.32.14-5.17,0a27,27,0,0,1-5.16-.23A15.7,15.7,0,0,1,7.28,1587.1a12.58,12.58,0,0,1,12.51-13.65,10.1,10.1,0,0,1,10.08,9.88,8,8,0,0,1-1.51,4.9,8.14,8.14,0,0,1-4.15,3,7.17,7.17,0,0,1-5.1-.23,6.48,6.48,0,0,1-3.41-3.76,6.6,6.6,0,0,1-.33-2.57,5.16,5.16,0,0,1,5.34-4.7,4.14,4.14,0,0,1,3.82,3.06,3.57,3.57,0,0,1-.21,2.55,3.28,3.28,0,0,1-1.92,1.68,2.9,2.9,0,0,1-2.53-.27,2.66,2.66,0,0,1-1.19-2.23h.1a2.53,2.53,0,0,0,1.18,2.09,2.66,2.66,0,0,0,2.36.19,3,3,0,0,0,1.74-1.59,3.23,3.23,0,0,0,.12-2.33,3.73,3.73,0,0,0-3.49-2.67,4.73,4.73,0,0,0-4,2.11,4.53,4.53,0,0,0-.73,2.16,5.76,5.76,0,0,0,3.43,5.62,6.47,6.47,0,0,0,4.55.13,7.49,7.49,0,0,0,3.69-2.74c1.89-2.53,1.64-6.2,0-8.88a9.17,9.17,0,0,0-7.88-4.43,11.82,11.82,0,0,0-8.53,3.77A11.66,11.66,0,0,0,8.2,1587a14.71,14.71,0,0,0,3.7,8.87,15.14,15.14,0,0,0,8.38,4.79,15.56,15.56,0,0,0,2.46.27h7.73l10.33-.06,41.32-.21c7-.1,14,.06,21,.16l21,.41,10.51.19,5.26.08,2.63,0a17.57,17.57,0,0,0,2.61-.14,15.69,15.69,0,0,0,13.56-13.87,12.55,12.55,0,0,0-11.95-14.19,10,10,0,0,0-10.46,9.44,7.95,7.95,0,0,0,5.33,8.08,7.12,7.12,0,0,0,5.08,0,6.38,6.38,0,0,0,3.52-3.63,5.56,5.56,0,0,0-.37-5,5.09,5.09,0,0,0-4.37-2.37,4.08,4.08,0,0,0-3.85,2.93,3.54,3.54,0,0,0,.15,2.52,3.29,3.29,0,0,0,1.87,1.68,2.81,2.81,0,0,0,2.48-.23,2.59,2.59,0,0,0,1.18-2.17h.1a2.75,2.75,0,0,1-1.19,2.31,3,3,0,0,1-2.64.31,3.55,3.55,0,0,1-2.07-1.77,3.9,3.9,0,0,1-.22-2.75,4.48,4.48,0,0,1,4.18-3.32,5.59,5.59,0,0,1,2.77.62,5.78,5.78,0,0,1,2.1,1.92,5.65,5.65,0,0,1,.91,2.73,7.05,7.05,0,0,1-4.26,6.89,8.17,8.17,0,0,1-6.87-.41c-9.27-.94-18.49-2.26-27.74-3.36a227.89,227.89,0,0,0-29.3-1.94,273.57,273.57,0,0,0-29.3,2.13c-9.74,1.12-19.45,2.44-29.21,3.33v0c4.87-.52,9.73-1.14,14.58-1.79l14.59-1.84a276.36,276.36,0,0,1,29.33-2.28,228.45,228.45,0,0,1,29.35,2.1l14.58,1.92q6.47.92,12.94,1.69a8.54,8.54,0,0,1-3.07-2.81,8.87,8.87,0,0,1-1.46-5.47,10.77,10.77,0,0,1,1.71-5.35,11,11,0,0,1,4.16-3.79,11.21,11.21,0,0,1,5.5-1.22,13.31,13.31,0,0,1,9.82,4.79,13.63,13.63,0,0,1,2.61,4.93A14.43,14.43,0,0,1,159.67,1587.65Z"/><rect x="14.5" y="64" width="138" height="1500"/></g></g></svg>