<svg xmlns="http://www.w3.org/2000/svg" viewBox="0 0 167 1610.75"><g id="Layer_2" data-name="Layer 2"><g id="Layer_3" data-name="Layer 3"><path d="M152.5,64.88a2.47,2.47,0,0,1,2-2.45,15.26,15.26,0,0,0,12.52-15V28.2a11,11,0,0,0-11-11h-8.53A2.48,2.48,0,0,1,145,14.73V13.47A2.48,2.48,0,0,1,147.47,11h0a5,5,0,0,0,5-5V5a5,5,0,0,0-5-5H19.47a5,5,0,0,0-5,5V6a5,5,0,0,0,5,5h0A2.48,2.48,0,0,1,22,13.47v1.26a2.48,2.48,0,0,1-2.47,2.47H11a11,11,0,0,0-11,11V47.42a15.26,15.26,0,0,0,12.52,15,2.47,2.47,0,0,1,2,2.45"/><path d="M14.5,1563.06a2.47,2.47,0,0,1-2,2.46,15.26,15.26,0,0,0-12.52,15v19.22a11,11,0,0,0,11,11H156a11,11,0,0,0,11-11v-19.22a15.26,15.26,0,0,0-12.52-15,2.47,2.47,0,0,1-2-2.46"/><rect x="14.5" y="64" width="138" height="1500"/></g></g></svg>