<svg xmlns="http://www.w3.org/2000/svg" viewBox="0 0 200 700"><defs><style>.cls-1{fill:#fff;}</style></defs><g id="Layer_3" data-name="Layer 3"><path d="M182.57,69.42V50.2a11,11,0,0,0-11-11H163a2.48,2.48,0,0,1-2.47-2.47V35.47A2.48,2.48,0,0,1,163,33h0a5,5,0,0,0,5-5V27a5,5,0,0,0-5-5H35a5,5,0,0,0-5,5v1a5,5,0,0,0,5,5h0a2.47,2.47,0,0,1,2.47,2.47v1.26A2.47,2.47,0,0,1,35.1,39.2H26.57a11,11,0,0,0-11,11V69.42a15.26,15.26,0,0,0,12.52,15,2.47,2.47,0,0,1,2,2.45V625.06a2.47,2.47,0,0,1-2,2.46,15.26,15.26,0,0,0-12.52,15v19.22a11,11,0,0,0,11,11h145a11,11,0,0,0,11-11V642.53a15.26,15.26,0,0,0-12.52-15,2.47,2.47,0,0,1-2-2.46V86.88a2.47,2.47,0,0,1,2-2.45A15.26,15.26,0,0,0,182.57,69.42Z"/><path class="cls-1" d="M175.24,62.6a16.58,16.58,0,0,0-4.67-9.79,16.21,16.21,0,0,0-9.71-4.73,19.14,19.14,0,0,0-2.71-.11l-2.64,0-5.26.11-10.51.27c-14,.35-28,1-42.05,1.06v0l-41.31-.7-10.33-.14-5.17,0a27,27,0,0,0-5.16.24A15.67,15.67,0,0,0,22.85,63.15,12.58,12.58,0,0,0,35.36,76.8,10.09,10.09,0,0,0,44,71.87a9.94,9.94,0,0,0,1.42-5A8,8,0,0,0,43.93,62a8.1,8.1,0,0,0-4.15-3,7.23,7.23,0,0,0-5.1.23A6.51,6.51,0,0,0,31.28,63a6.4,6.4,0,0,0-.34,2.57A5.28,5.28,0,0,0,31.81,68a5.21,5.21,0,0,0,4.47,2.27,4.15,4.15,0,0,0,3.82-3.06,3.65,3.65,0,0,0-.2-2.56A3.33,3.33,0,0,0,38,63a2.87,2.87,0,0,0-2.52.27,2.69,2.69,0,0,0-1.2,2.23h.1a2.55,2.55,0,0,1,1.19-2.09,2.69,2.69,0,0,1,2.36-.19,3,3,0,0,1,1.73,1.59,3.23,3.23,0,0,1,.12,2.33,3.71,3.71,0,0,1-3.49,2.67,4.74,4.74,0,0,1-4-2.1,4.68,4.68,0,0,1-.73-2.17A5.81,5.81,0,0,1,35,59.91a6.42,6.42,0,0,1,4.55-.12,7.44,7.44,0,0,1,3.69,2.74c1.89,2.52,1.64,6.19,0,8.88a9.15,9.15,0,0,1-7.87,4.42,11.7,11.7,0,0,1-11.6-12.62,14.73,14.73,0,0,1,3.7-8.87,15.13,15.13,0,0,1,8.39-4.79,15.31,15.31,0,0,1,2.45-.27H46l10.33.07,41.32.2c7,.1,14,0,21-.16l21-.41,10.51-.19,5.26-.08h2.63a16.25,16.25,0,0,1,2.61.13A15.69,15.69,0,0,1,174.33,62.7a12.71,12.71,0,0,1-2.86,9.74,12.49,12.49,0,0,1-9.1,4.45,10,10,0,0,1-8.86-4.54,9.89,9.89,0,0,1-1.6-4.89,8,8,0,0,1,5.33-8.09,7.14,7.14,0,0,1,5.09,0A6.42,6.42,0,0,1,165.84,63a5.56,5.56,0,0,1-.37,5,5.13,5.13,0,0,1-4.37,2.38,4.09,4.09,0,0,1-3.85-2.93,3.67,3.67,0,0,1,.15-2.53,3.29,3.29,0,0,1,1.87-1.68,2.81,2.81,0,0,1,2.48.23,2.59,2.59,0,0,1,1.18,2.18h.1a2.72,2.72,0,0,0-1.19-2.31A3,3,0,0,0,159.2,63a3.53,3.53,0,0,0-2.06,1.77,3.88,3.88,0,0,0-.23,2.76,4.53,4.53,0,0,0,4.19,3.32A5.56,5.56,0,0,0,166,68.34a5.55,5.55,0,0,0,.91-2.73,6.89,6.89,0,0,0-.41-2.81,7.12,7.12,0,0,0-3.85-4.08,8.18,8.18,0,0,0-6.87.41c-9.27.94-18.49,2.26-27.74,3.36a226.11,226.11,0,0,1-29.3,1.94,276.17,276.17,0,0,1-29.3-2.12C59.67,61.18,50,59.86,40.19,59v0c4.87.52,9.73,1.14,14.58,1.79l14.59,1.84a276.56,276.56,0,0,0,29.33,2.28A226.54,226.54,0,0,0,128,62.83l14.58-1.91c4.31-.61,8.62-1.19,12.95-1.7A8.68,8.68,0,0,0,152.49,62,8.84,8.84,0,0,0,151,67.5a10.71,10.71,0,0,0,1.71,5.35,11,11,0,0,0,9.67,5,13.39,13.39,0,0,0,12.42-9.72A14.24,14.24,0,0,0,175.24,62.6Z"/><path class="cls-1" d="M175.24,649.65a16.58,16.58,0,0,1-4.67,9.79,16.1,16.1,0,0,1-9.71,4.73,17.76,17.76,0,0,1-2.71.11l-2.64,0-5.26-.11-10.51-.27c-14-.34-28-1-42.05-1.06v0l-41.31.7-10.33.14-5.17.05a27,27,0,0,1-5.16-.23A15.7,15.7,0,0,1,22.85,649.1a12.58,12.58,0,0,1,12.51-13.65A10.09,10.09,0,0,1,44,640.38a9.94,9.94,0,0,1,1.42,5,8,8,0,0,1-1.51,4.9,8.14,8.14,0,0,1-4.15,3,7.18,7.18,0,0,1-5.1-.23,6.48,6.48,0,0,1-3.74-6.33,5.32,5.32,0,0,1,.87-2.44A5.18,5.18,0,0,1,36.28,642,4.14,4.14,0,0,1,40.1,645a3.62,3.62,0,0,1-.2,2.55A3.33,3.33,0,0,1,38,649.26a2.87,2.87,0,0,1-2.52-.27,2.67,2.67,0,0,1-1.2-2.23h.1a2.54,2.54,0,0,0,1.19,2.09,2.65,2.65,0,0,0,2.36.19,3,3,0,0,0,1.73-1.59,3.23,3.23,0,0,0,.12-2.33,3.73,3.73,0,0,0-3.49-2.67,4.73,4.73,0,0,0-4,2.11,4.64,4.64,0,0,0-.73,2.16A5.81,5.81,0,0,0,35,652.34a6.47,6.47,0,0,0,4.55.13,7.44,7.44,0,0,0,3.69-2.74c1.89-2.53,1.64-6.2,0-8.88a9.14,9.14,0,0,0-7.87-4.43,11.82,11.82,0,0,0-8.54,3.77A11.7,11.7,0,0,0,23.77,649a14.71,14.71,0,0,0,3.7,8.87,15.13,15.13,0,0,0,8.39,4.79,15.31,15.31,0,0,0,2.45.27H46l10.33-.06,41.32-.21c7-.1,14,.06,21,.16l21,.41,10.51.19,5.26.08,2.63,0a17.49,17.49,0,0,0,2.61-.14,15.69,15.69,0,0,0,13.57-13.87,12.73,12.73,0,0,0-2.86-9.74,12.52,12.52,0,0,0-9.1-4.45,10,10,0,0,0-10.46,9.44,7.95,7.95,0,0,0,5.33,8.08,7.14,7.14,0,0,0,5.09,0,6.39,6.39,0,0,0,3.51-3.63,5.56,5.56,0,0,0-.37-5,5.09,5.09,0,0,0-4.37-2.37,4.08,4.08,0,0,0-3.85,2.93,3.65,3.65,0,0,0,.15,2.52,3.29,3.29,0,0,0,1.87,1.68,2.81,2.81,0,0,0,2.48-.23,2.59,2.59,0,0,0,1.18-2.17h.1a2.75,2.75,0,0,1-1.19,2.31,3,3,0,0,1-2.64.31,3.53,3.53,0,0,1-2.06-1.77,3.85,3.85,0,0,1-.23-2.75,4.5,4.5,0,0,1,4.19-3.32,5.53,5.53,0,0,1,2.76.62,5.7,5.7,0,0,1,2.1,1.92,5.55,5.55,0,0,1,.91,2.73,6.89,6.89,0,0,1-.41,2.81,7.12,7.12,0,0,1-3.85,4.08,8.18,8.18,0,0,1-6.87-.41c-9.27-.94-18.49-2.26-27.74-3.36a227.89,227.89,0,0,0-29.3-1.94A273.57,273.57,0,0,0,69.4,650c-9.73,1.12-19.45,2.44-29.21,3.33v0c4.87-.52,9.73-1.14,14.58-1.79l14.59-1.84a276.56,276.56,0,0,1,29.33-2.28,228.32,228.32,0,0,1,29.35,2.1l14.58,1.92q6.47.92,12.95,1.69a8.57,8.57,0,0,1-3.08-2.81,8.87,8.87,0,0,1-1.46-5.47,10.77,10.77,0,0,1,1.71-5.35,11,11,0,0,1,4.17-3.79,11.16,11.16,0,0,1,5.5-1.22,13.39,13.39,0,0,1,12.42,9.72A14.24,14.24,0,0,1,175.24,649.65Z"/></g></svg>