<svg xmlns="http://www.w3.org/2000/svg" xmlns:xlink="http://www.w3.org/1999/xlink" viewBox="0 0 101.8 78.63"><defs><style>.cls-1,.cls-3{fill:none;stroke-linecap:round;stroke-miterlimit:10;}.cls-1{stroke:#006637;stroke-width:0.75px;}.cls-2{fill:#006637;}.cls-3{stroke-width:12px;stroke:url(#linear-gradient);}.cls-4{fill:#8cc63f;}.cls-5{fill:#c1272d;}</style><linearGradient id="linear-gradient" y1="35.61" x2="92" y2="35.61" gradientUnits="userSpaceOnUse"><stop offset="0" stop-color="#6ebe2d"/><stop offset="1" stop-color="#006837"/></linearGradient></defs><g id="Layer_2" data-name="Layer 2"><g id="Layer_2-2" data-name="Layer 2"><line class="cls-1" x1="85.16" y1="13.11" x2="81.16" y2="1.11"/><polygon class="cls-2" points="78.98 2.21 80.79 0 83.56 0.68 83.57 0.7 78.99 2.23 78.98 2.21"/><line class="cls-1" x1="87.84" y1="13.11" x2="91.84" y2="1.11"/><polygon class="cls-2" points="89.44 0.68 92.21 0 94.02 2.21 94.01 2.23 89.43 0.7 89.44 0.68"/><path class="cls-3" d="M86,10.61a50,50,0,0,1-50,50,30,30,0,0,1-30-30,18,18,0,0,1,18-18,10.8,10.8,0,0,1,10.8,10.8,6.48,6.48,0,0,1-6.48,6.48A3.89,3.89,0,0,1,24.43,26a2.33,2.33,0,0,1,2.33-2.33"/><path class="cls-2" d="M21.67,35.18c.35.87.68,1.74,1,2.61s.54,1.76.81,2.64.46,1.76.7,2.64.4,1.77.6,2.66l.35,1.55L23.17,48c-.9.33-1.79.68-2.71,1l-2.73.88c-.91.31-1.84.53-2.76.79l-2.77.77,2-2.65,0,2.94c0,1,0,2-.07,2.93L14,57.55c0,1-.17,2-.25,2.93l-.16,1.85-1.43.19c-.88.11-1.76.24-2.66.31s-1.78.17-2.68.22-1.79.12-2.7.12-1.82,0-2.75,0h0A.15.15,0,0,1,1.16,63a.16.16,0,0,1,.11-.14c3.44-.88,6.87-1.75,10.32-2.58l-.19.24-.16-11.73v-.23l.23-.06L22.6,45.71l-.19.27c-.37-3.59-.71-7.18-1-10.77a.16.16,0,0,1,.14-.16.15.15,0,0,1,.15.09Z"/><path class="cls-2" d="M49.22,41.78c.91-.24,1.81-.47,2.72-.64s1.8-.33,2.71-.49,1.8-.25,2.71-.37,1.8-.18,2.71-.28l1.58-.16.47,2c.22.94.46,1.87.62,2.81l.55,2.82c.19.94.3,1.89.45,2.84l.42,2.83L61.79,50.8l2.9.39c1,.15,2,.24,2.91.43l2.89.51c1,.16,1.92.41,2.88.61l1.82.38v1.45c0,.89,0,1.78,0,2.67s0,1.79-.11,2.69-.1,1.79-.21,2.7-.22,1.81-.37,2.72v0a.16.16,0,0,1-.17.13.14.14,0,0,1-.12-.13q-.69-5.26-1.31-10.55l.21.22L61.45,53.78l-.24,0,0-.24-1.4-11.38.24.21c-3.61-.06-7.21-.16-10.81-.27a.15.15,0,0,1-.15-.15.15.15,0,0,1,.11-.14Z"/><path class="cls-2" d="M41.26,43c.93.1,1.85.21,2.76.37s1.81.35,2.71.52,1.77.42,2.66.62,1.75.48,2.63.72l1.53.42-.27,2c-.13,1-.24,1.91-.43,2.85l-.5,2.83c-.16.94-.4,1.87-.6,2.8L51.13,59l-1.38-3,2.58,1.4c.85.48,1.73.91,2.56,1.44l2.51,1.52c.85.49,1.65,1.06,2.48,1.6l1.56,1-.51,1.35c-.31.83-.61,1.67-1,2.49s-.68,1.65-1.06,2.47-.74,1.64-1.17,2.44-.85,1.62-1.31,2.41l0,0a.16.16,0,0,1-.21.05.15.15,0,0,1-.06-.16c.83-3.45,1.67-6.89,2.55-10.32l.13.28L48.37,58.59l-.21-.11.06-.23L51,47.12l.15.29q-5-2-10-4.13a.15.15,0,0,1-.07-.2.13.13,0,0,1,.15-.08Z"/><path class="cls-2" d="M64.41,30.22c.69-.64,1.4-1.25,2.12-1.82s1.46-1.12,2.18-1.68,1.5-1,2.24-1.57,1.52-1,2.28-1.5l1.33-.87,1.34,1.56c.62.73,1.26,1.45,1.84,2.21l1.78,2.26c.61.74,1.14,1.54,1.71,2.31l1.67,2.32-3.18-1,2.76-1c.93-.32,1.83-.69,2.78-1l2.8-.87c.93-.31,1.9-.53,2.84-.79l1.79-.5.68,1.28c.41.79.84,1.57,1.21,2.38s.79,1.61,1.15,2.44.73,1.64,1,2.49.63,1.71.92,2.58v0a.14.14,0,0,1-.09.19.16.16,0,0,1-.17-.06q-3-4.36-6-8.76l.29.09L80.79,35.26l-.22.08-.13-.19L74,25.68l.32.08q-4.84,2.4-9.73,4.73a.16.16,0,0,1-.2-.07.15.15,0,0,1,0-.17Z"/><path class="cls-2" d="M26.86,40.52c.51.79,1,1.59,1.44,2.39s.86,1.63,1.29,2.44.78,1.64,1.18,2.47.72,1.66,1.09,2.49l.63,1.46-1.76,1.06c-.82.49-1.64,1-2.48,1.45l-2.52,1.38c-.84.47-1.71.86-2.57,1.29l-2.57,1.27,1.51-3,.51,2.89c.16,1,.37,1.92.48,2.89l.39,2.92c.15,1,.2,2,.31,2.93L24,68.72l-1.38.45c-.84.27-1.68.57-2.55.8s-1.71.51-2.59.72-1.74.45-2.64.62-1.78.34-2.7.48h0a.15.15,0,0,1-.17-.13.13.13,0,0,1,.08-.15c3.21-1.51,6.42-3,9.65-4.47l-.14.27L19.16,55.83l-.05-.23.21-.1,10.42-4.8-.13.29q-1.56-5.18-3-10.38a.14.14,0,0,1,.26-.12Z"/><path class="cls-2" d="M33.33,44.23c.85.4,1.68.82,2.48,1.27s1.59.93,2.38,1.39,1.54,1,2.3,1.48,1.5,1,2.24,1.55l1.31.9-.94,1.83c-.44.85-.86,1.72-1.35,2.54l-1.41,2.5c-.47.84-1,1.63-1.5,2.45l-1.52,2.43L37,59.25l2,2.18c.64.74,1.33,1.44,1.93,2.21l1.87,2.27c.64.75,1.2,1.56,1.8,2.33l1.14,1.48-.93,1.1c-.58.68-1.14,1.37-1.75,2s-1.19,1.33-1.82,2-1.25,1.3-1.92,1.92S38,78,37.27,78.57l0,0a.14.14,0,0,1-.21,0,.15.15,0,0,1,0-.18q2.9-4.45,5.85-8.88l0,.31-8-8.53-.16-.17.13-.2,6.33-9.57,0,.32q-4.05-3.59-8-7.23a.14.14,0,0,1,0-.2.16.16,0,0,1,.17,0Z"/><path class="cls-2" d="M58.27,36.26q1.26-.61,2.55-1.14c.85-.36,1.71-.65,2.57-1s1.73-.58,2.59-.87,1.74-.52,2.61-.78L70.12,32,71,33.9c.39.88.8,1.75,1.14,2.65l1.07,2.66c.36.89.65,1.8,1,2.7l1,2.71-2.77-1.85,2.93-.16c1,0,2-.14,2.93-.13l2.94,0c1,0,2,0,2.94.05l1.86,0,.28,1.41c.18.88.36,1.75.49,2.64s.3,1.76.4,2.66.24,1.78.3,2.69.13,1.81.15,2.73v0a.15.15,0,0,1-.14.16.16.16,0,0,1-.15-.11q-1.67-5-3.26-10.11l.25.17-11.69.95-.24,0-.07-.23L68.72,34.63l.28.17q-5.34.91-10.68,1.76a.15.15,0,0,1-.08-.28Z"/><path class="cls-2" d="M67.58,20.85c.6-.71,1.22-1.41,1.87-2.07s1.3-1.29,2-1.94,1.35-1.23,2-1.85,1.38-1.17,2.07-1.76l1.21-1,1.53,1.37c.71.65,1.44,1.28,2.11,2l2,2c.69.67,1.32,1.39,2,2.08l2,2.09L83,21.14l2.62-1.33c.88-.43,1.73-.92,2.63-1.3L91,17.29c.89-.43,1.81-.76,2.72-1.14l1.71-.72.83,1.18c.51.73,1,1.45,1.51,2.21s1,1.5,1.44,2.27.94,1.54,1.36,2.35.85,1.61,1.24,2.44l0,0a.16.16,0,0,1-.07.2.15.15,0,0,1-.17,0q-3.57-4-7.08-7.94l.31.06L84.46,23.78l-.21.11-.16-.17-7.62-8.58.33,0q-4.51,3-9.06,5.92a.14.14,0,0,1-.2,0,.15.15,0,0,1,0-.18Z"/><path class="cls-4" d="M89.5,10.61A54.47,54.47,0,0,1,83.11,35a26.53,26.53,0,0,1-1.6,2.72c-.57.89-1.11,1.79-1.7,2.66l-1.93,2.5-1,1.24c-.33.41-.71.77-1.07,1.16l-2.15,2.29c-.72.77-1.56,1.41-2.33,2.12l-1.18,1a11.83,11.83,0,0,1-1.23,1l-2.54,1.83a21.53,21.53,0,0,1-2.65,1.68l-2.7,1.58-2.85,1.32a25,25,0,0,1-2.88,1.2,45,45,0,0,1-6,1.83c-1,.23-2,.5-3,.7l-3.09.42a47.54,47.54,0,0,1-6.19.4,25.65,25.65,0,0,1-3.15-.11,22.08,22.08,0,0,1-3.15-.42A31.65,31.65,0,0,1,5.4,37.22c-.2-1-.3-2.06-.45-3.08s-.08-2.07-.13-3.1a20,20,0,0,1,1-6.22A19.28,19.28,0,0,1,13.35,15,18.75,18.75,0,0,1,25.2,12a11.4,11.4,0,0,1,9.3,7.42,10.84,10.84,0,0,1,.63,3,7.49,7.49,0,0,1-.34,3.08,6.79,6.79,0,0,1-4.28,4.2,5.82,5.82,0,0,1-3,.23A4,4,0,0,1,25,28.23a3.73,3.73,0,0,1-.52-2.92,2.36,2.36,0,0,1,2.28-1.64,2.33,2.33,0,0,0-2.18,1.67,3.59,3.59,0,0,0,.6,2.77,3.8,3.8,0,0,0,2.36,1.53,5.45,5.45,0,0,0,2.82-.32,6.21,6.21,0,0,0,3.8-4,6.65,6.65,0,0,0,.21-2.81,10.31,10.31,0,0,0-9.31-9.2,19.43,19.43,0,0,0-2.84.09,19,19,0,0,0-2.79.6,17.58,17.58,0,0,0-5.1,2.47,17.31,17.31,0,0,0-6.44,9A17.78,17.78,0,0,0,7.22,31c.09.95.1,1.9.23,2.85s.3,1.88.52,2.8a28.51,28.51,0,0,0,13,17.82,27.93,27.93,0,0,0,10.45,3.75,19.82,19.82,0,0,0,2.77.26,20.14,20.14,0,0,0,2.8,0,43,43,0,0,0,5.68-.58l2.81-.48c.92-.22,1.83-.5,2.74-.74a41.92,41.92,0,0,0,5.36-1.86,21.41,21.41,0,0,0,2.57-1.19l2.53-1.28L61,50.83a19.61,19.61,0,0,0,2.33-1.6L65.6,47.5a10.37,10.37,0,0,0,1.06-.93l1-1c.66-.66,1.4-1.25,2-2l1.85-2.12c.31-.36.63-.7.92-1.07l.82-1.14L74.92,37c.5-.79,1-1.62,1.42-2.42a20.83,20.83,0,0,0,1.33-2.46A47.87,47.87,0,0,0,82.5,10.61v0a3.5,3.5,0,1,1,7-.1Z"/><polygon class="cls-5" points="87.5 10.61 87.49 11.12 84.5 11.09 84.5 10.61 87.5 10.61"/><polygon class="cls-5" points="87.26 15.24 87.26 15.25 84.34 14.99 84.34 14.98 87.26 15.24"/><polygon class="cls-5" points="87.26 15.25 87.15 16.28 84.25 15.96 84.34 14.99 87.26 15.25"/><polygon class="cls-5" points="86.5 20.35 86.5 20.36 83.7 19.82 83.7 19.82 86.5 20.35"/><path class="cls-5" d="M85.1,21.52v0Z"/><polygon class="cls-5" points="86.5 20.36 86.29 21.37 83.52 20.78 83.7 19.82 86.5 20.36"/><polygon class="cls-5" points="85.24 25.36 85.23 25.37 82.58 24.57 82.58 24.56 85.24 25.36"/><path class="cls-5" d="M83.91,26.35v0Z"/><polygon class="cls-5" points="85.23 25.37 84.92 26.35 82.3 25.51 82.58 24.57 85.23 25.37"/><polygon class="cls-5" points="83.47 30.2 83.47 30.21 80.98 29.18 80.99 29.18 83.47 30.2"/><path class="cls-5" d="M82.23,31v0Z"/><polygon class="cls-5" points="83.47 30.21 83.06 31.16 80.61 30.09 80.98 29.18 83.47 30.21"/><polygon class="cls-5" points="81.23 34.84 81.23 34.85 78.93 33.62 78.93 33.61 81.23 34.84"/><path class="cls-5" d="M80.08,35.54v0Z"/><polygon class="cls-5" points="81.23 34.85 80.72 35.75 78.46 34.48 78.93 33.62 81.23 34.85"/><polygon class="cls-5" points="78.54 39.23 78.53 39.24 76.43 37.82 76.44 37.81 78.54 39.23"/><path class="cls-5" d="M77.48,39.8v0Z"/><polygon class="cls-5" points="78.53 39.24 77.94 40.08 75.89 38.63 76.43 37.82 78.53 39.24"/><polygon class="cls-5" points="75.42 43.32 75.42 43.33 73.53 41.76 73.54 41.75 75.42 43.32"/><path class="cls-5" d="M74.47,43.77v0Z"/><polygon class="cls-5" points="75.42 43.33 74.75 44.11 72.9 42.51 73.53 41.76 75.42 43.33"/><polygon class="cls-5" points="71.92 47.08 71.91 47.09 70.25 45.39 70.25 45.38 71.92 47.08"/><path class="cls-5" d="M71.08,47.43v0Z"/><polygon class="cls-5" points="71.91 47.09 71.17 47.79 69.55 46.08 70.25 45.39 71.91 47.09"/><polygon class="cls-5" points="68.06 50.46 68.05 50.47 66.61 48.68 66.62 48.67 68.06 50.46"/><path class="cls-5" d="M67.33,50.72v0Z"/><polygon class="cls-5" points="68.05 50.47 67.24 51.1 65.85 49.29 66.61 48.68 68.05 50.47"/><polygon class="cls-5" points="63.89 53.45 63.88 53.45 62.67 51.59 62.68 51.59 63.89 53.45"/><path class="cls-5" d="M63.27,53.63v0Z"/><polygon class="cls-5" points="63.88 53.45 63.01 54 61.84 52.13 62.67 51.59 63.88 53.45"/><polygon class="cls-5" points="59.44 55.99 59.43 56 58.45 54.1 58.46 54.09 59.44 55.99"/><path class="cls-5" d="M58.94,56.12v0Z"/><polygon class="cls-5" points="59.43 56 58.51 56.45 57.58 54.55 58.45 54.1 59.43 56"/><polygon class="cls-5" points="54.76 58.08 54.75 58.08 53.99 56.17 54 56.16 54.76 58.08"/><path class="cls-5" d="M54.37,58.15v0Z"/><polygon class="cls-5" points="54.75 58.08 53.79 58.44 53.08 56.53 53.99 56.17 54.75 58.08"/><polygon class="cls-5" points="49.9 59.68 49.89 59.68 49.35 57.78 49.36 57.77 49.9 59.68"/><path class="cls-5" d="M49.62,59.72v0Z"/><polygon class="cls-5" points="49.89 59.68 48.9 59.95 48.4 58.04 49.35 57.78 49.89 59.68"/><polygon class="cls-5" points="44.9 60.78 44.89 60.79 44.56 58.91 44.57 58.91 44.9 60.78"/><path class="cls-5" d="M44.73,60.8v0Z"/><polygon class="cls-5" points="44.89 60.79 43.88 60.95 43.59 59.08 44.56 58.91 44.89 60.79"/><polygon class="cls-5" points="39.83 61.38 39.82 61.38 39.68 59.56 39.69 59.56 39.83 61.38"/><path class="cls-5" d="M39.75,61.38v0Z"/><polygon class="cls-5" points="39.82 61.38 38.8 61.44 38.7 59.63 39.68 59.56 39.82 61.38"/><polygon class="cls-5" points="34.7 61.45 34.69 61.45 34.77 59.71 34.78 59.71 34.7 61.45"/><path class="cls-5" d="M34.73,61.45v0Z"/><polygon class="cls-5" points="34.69 61.45 33.66 61.39 33.79 59.66 34.77 59.71 34.69 61.45"/><polygon class="cls-5" points="29.59 60.77 29.58 60.77 29.93 59.14 29.93 59.14 29.59 60.77"/><path class="cls-5" d="M29.75,60.79v0Z"/><polygon class="cls-5" points="29.58 60.77 28.58 60.53 28.97 58.93 29.93 59.14 29.58 60.77"/><polygon class="cls-5" points="24.67 59.25 24.66 59.24 25.24 57.77 25.25 57.77 24.67 59.25"/><path class="cls-5" d="M25,59.3v0Z"/><polygon class="cls-5" points="24.66 59.24 23.71 58.84 24.34 57.4 25.24 57.77 24.66 59.24"/><polygon class="cls-5" points="20.08 56.92 20.07 56.92 20.85 55.63 20.86 55.64 20.08 56.92"/><path class="cls-5" d="M20.46,57v0Z"/><polygon class="cls-5" points="20.07 56.92 19.2 56.37 20.02 55.12 20.85 55.63 20.07 56.92"/><polygon class="cls-5" points="15.95 53.87 15.94 53.87 16.87 52.79 16.88 52.79 15.95 53.87"/><path class="cls-5" d="M16.41,54v0Z"/><polygon class="cls-5" points="15.94 53.87 15.18 53.18 16.14 52.14 16.87 52.79 15.94 53.87"/><polygon class="cls-5" points="12.38 50.19 12.38 50.18 13.42 49.32 13.42 49.32 12.38 50.19"/><path class="cls-5" d="M12.9,50.42v0Z"/><polygon class="cls-5" points="12.38 50.18 11.74 49.37 12.8 48.55 13.42 49.32 12.38 50.18"/><polygon class="cls-5" points="9.48 45.96 9.48 45.95 10.58 45.32 10.58 45.33 9.48 45.96"/><path class="cls-5" d="M10,46.27v0Z"/><polygon class="cls-5" points="9.48 45.95 8.99 45.06 10.09 44.46 10.58 45.32 9.48 45.95"/><polygon class="cls-5" points="7.33 41.32 7.33 41.31 8.45 40.9 8.45 40.9 7.33 41.32"/><path class="cls-5" d="M7.89,41.7v0Z"/><polygon class="cls-5" points="7.33 41.31 6.99 40.34 8.11 39.97 8.45 40.9 7.33 41.31"/><polygon class="cls-5" points="5.99 36.39 5.99 36.38 7.08 36.17 7.08 36.18 5.99 36.39"/><path class="cls-5" d="M6.53,36.83v0Z"/><polygon class="cls-5" points="5.99 36.38 5.82 35.37 6.91 35.2 7.08 36.17 5.99 36.38"/><polygon class="cls-5" points="5.49 31.31 5.49 31.3 6.53 31.28 6.53 31.29 5.49 31.31"/><path class="cls-5" d="M6,31.81v0Z"/><polygon class="cls-5" points="5.49 31.3 5.49 30.27 6.51 30.29 6.53 31.28 5.49 31.3"/><polygon class="cls-5" points="6.05 26.2 6.05 26.19 6.98 26.42 6.98 26.43 6.05 26.2"/><path class="cls-5" d="M6.52,26.78v0Z"/><polygon class="cls-5" points="6.05 26.19 6.33 25.2 7.23 25.47 6.98 26.42 6.05 26.19"/><polygon class="cls-5" points="7.99 21.45 8 21.44 8.76 21.88 8.76 21.88 7.99 21.45"/><path class="cls-5" d="M8.38,22.1v0Z"/><polygon class="cls-5" points="8 21.44 8.54 20.57 9.26 21.04 8.76 21.88 8 21.44"/><polygon class="cls-5" points="11.16 17.43 11.17 17.42 11.73 17.99 11.72 18 11.16 17.43"/><path class="cls-5" d="M11.45,18.1v0Z"/><polygon class="cls-5" points="11.17 17.42 11.93 16.73 12.45 17.32 11.73 17.99 11.17 17.42"/><polygon class="cls-5" points="15.3 14.43 15.31 14.43 15.65 15.06 15.65 15.07 15.3 14.43"/><path class="cls-5" d="M15.48,15.11v0Z"/><polygon class="cls-5" points="15.31 14.43 16.23 13.98 16.53 14.61 15.65 15.06 15.31 14.43"/><polygon class="cls-5" points="20.1 12.7 20.11 12.7 20.25 13.33 20.24 13.33 20.1 12.7"/><path class="cls-5" d="M20.18,13.33v0Z"/><polygon class="cls-5" points="20.11 12.7 21.12 12.52 21.21 13.14 20.25 13.33 20.11 12.7"/><polygon class="cls-5" points="25.19 12.39 25.2 12.39 25.14 12.95 25.13 12.95 25.19 12.39"/><path class="cls-5" d="M25.17,13v0Z"/><polygon class="cls-5" points="25.2 12.39 26.22 12.56 26.11 13.09 25.14 12.95 25.2 12.39"/><polygon class="cls-5" points="29.98 14.13 29.99 14.13 29.73 14.54 29.72 14.53 29.98 14.13"/><path class="cls-5" d="M29.86,14.58v0Z"/><polygon class="cls-5" points="29.99 14.13 30.82 14.74 30.54 15.1 29.73 14.54 29.99 14.13"/><polygon class="cls-5" points="33.48 17.82 33.48 17.82 33.13 18.03 33.13 18.02 33.48 17.82"/><path class="cls-5" d="M33.31,18.13v0Z"/><polygon class="cls-5" points="33.48 17.82 33.95 18.73 33.6 18.9 33.13 18.03 33.48 17.82"/><polygon class="cls-5" points="34.94 22.66 34.94 22.67 34.61 22.69 34.61 22.68 34.94 22.66"/><path class="cls-5" d="M34.78,22.84v0Z"/><path class="cls-5" d="M34.94,22.67c0,.34,0,.68,0,1h-.31c0-.33,0-.66,0-1Z"/><polygon class="cls-5" points="33.53 27.46 33.52 27.47 33.33 27.32 33.34 27.31 33.53 27.46"/><path class="cls-5" d="M33.43,27.52v0Z"/><polygon class="cls-5" points="33.52 27.47 32.83 28.22 32.67 28.05 33.33 27.32 33.52 27.47"/><polygon class="cls-5" points="29.19 29.91 29.18 29.91 29.16 29.75 29.17 29.75 29.19 29.91"/><path class="cls-5" d="M29.17,29.92v0Z"/><path class="cls-5" d="M29.18,29.91c-.34,0-.67.06-1,.05v-.15c.33,0,.66,0,1-.06Z"/><polygon class="cls-5" points="24.87 27.89 24.86 27.88 24.94 27.84 24.95 27.84 24.87 27.89"/><path class="cls-5" d="M24.9,27.9v0Z"/><path class="cls-5" d="M24.86,27.88a4,4,0,0,1-.35-.95l.07,0a3.74,3.74,0,0,0,.36.93Z"/><polygon class="cls-5" points="26.18 23.74 26.26 23.72 26.27 23.73 26.19 23.74 26.18 23.74"/><polygon class="cls-5" points="26.27 23.72 26.77 23.67 26.27 23.72 26.27 23.72"/></g></g></svg>