<svg xmlns="http://www.w3.org/2000/svg" xmlns:xlink="http://www.w3.org/1999/xlink" viewBox="0 0 46.79 137.82"><defs><style>.cls-1,.cls-3{fill:none;stroke-linecap:round;stroke-miterlimit:10;}.cls-1{stroke:#006637;stroke-width:0.75px;}.cls-2{fill:#006637;}.cls-3{stroke-width:12px;stroke:url(#linear-gradient);}.cls-4{fill:#8cc63f;}.cls-5{fill:#c1272d;}</style><linearGradient id="linear-gradient" x1="27.54" y1="137.82" x2="27.54" y2="9.82" gradientUnits="userSpaceOnUse"><stop offset="0" stop-color="#6ebe2d"/><stop offset="1" stop-color="#006837"/></linearGradient></defs><g id="Layer_2" data-name="Layer 2"><g id="Layer_3" data-name="Layer 3"><line class="cls-1" x1="22.37" y1="14.86" x2="13.63" y2="5.72"/><polygon class="cls-2" points="12.13 7.64 12.82 4.87 15.62 4.31 15.63 4.32 12.14 7.65 12.13 7.64"/><line class="cls-1" x1="24.79" y1="13.72" x2="23.29" y2="1.16"/><polygon class="cls-2" points="20.94 1.8 23.15 0 25.73 1.23 25.73 1.24 20.94 1.82 20.94 1.8"/><path class="cls-3" d="M38.22,131.82c-8.27-5.36-18.87-14.23-21-27-2.28-13.61,6.71-21.9,11-39,2.72-10.85,4.06-27.32-4-50"/><path class="cls-2" d="M.36,105.75c.48-.81,1-1.59,1.51-2.35s1.08-1.49,1.61-2.23S4.62,99.74,5.18,99s1.17-1.39,1.76-2.08l1-1.21,1.72,1.11c.81.52,1.63,1,2.4,1.59l2.35,1.65c.79.54,1.53,1.16,2.29,1.73L19,103.56l-3.34,0L18,101.79c.79-.57,1.55-1.19,2.38-1.71l2.44-1.64c.8-.56,1.67-1,2.5-1.57l1.57-1,1,1c.62.64,1.26,1.26,1.85,1.94s1.21,1.31,1.79,2,1.17,1.37,1.72,2.1,1.1,1.45,1.62,2.2l0,0a.14.14,0,0,1,0,.2.15.15,0,0,1-.18,0C32,103.18,29.2,101,26.46,98.71h.31L17.5,105.9l-.19.15-.18-.15L8.22,98.67h.32q-4,3.69-8,7.31a.15.15,0,0,1-.21,0,.15.15,0,0,1,0-.18Z"/><path class="cls-2" d="M11,65.78c.57-.74,1.16-1.46,1.77-2.15s1.24-1.35,1.86-2,1.29-1.29,1.94-1.94,1.32-1.24,2-1.86l1.16-1.08L21.26,58c.74.61,1.5,1.21,2.2,1.86L25.6,61.8c.72.63,1.38,1.32,2.08,2l2.05,2-3.31-.42L29,63.91c.86-.47,1.69-1,2.57-1.42l2.62-1.34c.86-.46,1.77-.84,2.66-1.26l1.68-.8.88,1.14c.54.71,1.1,1.4,1.61,2.14s1,1.45,1.54,2.2,1,1.5,1.46,2.28.93,1.57,1.36,2.39l0,0a.15.15,0,0,1-.06.2.15.15,0,0,1-.18,0q-3.74-3.78-7.43-7.6l.31,0L28,67.93l-.2.13-.17-.17-8-8.22.32,0Q15.55,62.9,11.14,66a.15.15,0,0,1-.21,0,.15.15,0,0,1,0-.18Z"/><path class="cls-2" d="M7.84,72.49c.67-.66,1.34-1.3,2-1.9s1.41-1.17,2.12-1.76,1.45-1.11,2.17-1.66,1.48-1,2.22-1.58l1.3-.92,1.39,1.5c.66.71,1.33,1.4,1.93,2.14l1.87,2.18c.63.72,1.2,1.49,1.79,2.24L26.44,75l-3.22-.86L25.94,73c.92-.35,1.81-.76,2.74-1.07l2.77-1c.91-.34,1.87-.6,2.8-.9L36,69.52l.73,1.25c.44.77.9,1.53,1.31,2.33s.84,1.57,1.23,2.39.8,1.61,1.15,2.45.71,1.68,1,2.54v0a.14.14,0,0,1-.09.19.14.14,0,0,1-.16,0Q38,76.41,34.87,72.14l.3.08L24.4,76.88l-.21.1L24,76.79,17.2,67.58l.32.07Q12.77,70.24,8,72.76a.15.15,0,0,1-.2-.06.17.17,0,0,1,0-.18Z"/><path class="cls-2" d="M12.61,47.92c.35-.87.71-1.73,1.12-2.56s.82-1.63,1.24-2.46.89-1.59,1.33-2.38.94-1.56,1.41-2.34l.82-1.36,1.88.83c.88.38,1.77.75,2.62,1.19l2.58,1.26c.87.41,1.69.9,2.54,1.34l2.52,1.37-3.3.49,2.06-2.09c.7-.69,1.35-1.41,2.09-2.06l2.15-2c.7-.68,1.47-1.29,2.21-1.94L37.28,34l1.16.86c.72.53,1.44,1,2.13,1.62s1.41,1.11,2.09,1.7,1.37,1.16,2,1.79,1.31,1.26,2,1.93l0,0a.15.15,0,0,1,0,.21.13.13,0,0,1-.17,0q-4.64-2.61-9.22-5.29l.3,0-8,8.56-.16.17-.21-.11-9.94-5.73.32-.06c-2.21,2.84-4.46,5.66-6.72,8.48a.14.14,0,0,1-.2,0,.16.16,0,0,1-.05-.17Z"/><path class="cls-2" d="M.07,91.18c.65-.67,1.31-1.33,2-2S3.45,88,4.14,87.42s1.42-1.14,2.13-1.71,1.46-1.09,2.18-1.63l1.28-1,1.43,1.47c.67.69,1.35,1.37,2,2.09l1.92,2.14c.65.71,1.23,1.47,1.84,2.2l1.83,2.21-3.24-.78,2.69-1.16c.9-.38,1.78-.8,2.71-1.13l2.74-1c.91-.37,1.86-.65,2.79-1l1.76-.61.75,1.24c.46.76.94,1.51,1.36,2.3s.89,1.55,1.3,2.36.83,1.59,1.2,2.42.75,1.66,1.09,2.52v0a.15.15,0,0,1-.08.19.16.16,0,0,1-.17,0c-2.2-2.78-4.39-5.56-6.56-8.37l.3.08L16.73,95.18l-.21.1-.15-.19-7.06-9,.32.06Q4.95,88.81.22,91.44a.15.15,0,0,1-.2,0,.17.17,0,0,1,0-.18Z"/><path class="cls-2" d="M4.91,81.14c.65-.68,1.31-1.34,2-2S8.29,78,9,77.37s1.42-1.14,2.13-1.71,1.45-1.09,2.18-1.64l1.27-1L16,74.54c.67.69,1.36,1.36,2,2.09l1.92,2.13c.65.71,1.23,1.47,1.85,2.2l1.82,2.21-3.24-.78L23,81.23c.9-.38,1.78-.81,2.71-1.14l2.74-1c.91-.36,1.86-.64,2.79-1L33,77.47l.75,1.23c.47.76,1,1.51,1.37,2.3s.89,1.55,1.3,2.35.83,1.6,1.2,2.43.75,1.66,1.09,2.51l0,0a.15.15,0,0,1-.08.19.13.13,0,0,1-.17,0c-2.21-2.78-4.4-5.56-6.57-8.37l.3.08L21.58,85.12l-.22.1L21.22,85l-7.07-9,.32.06q-4.7,2.7-9.41,5.34a.15.15,0,0,1-.18-.23Z"/><path class="cls-2" d="M12.21,55.15c.6-.72,1.22-1.42,1.87-2.08s1.3-1.29,2-1.94,1.35-1.23,2-1.84,1.38-1.18,2.07-1.77l1.22-1,1.52,1.38c.71.64,1.44,1.27,2.11,2l2.05,2c.69.66,1.32,1.38,2,2.07L31,56l-3.29-.58,2.62-1.33c.88-.43,1.73-.91,2.63-1.3l2.67-1.22c.89-.42,1.81-.76,2.72-1.14L40,49.72l.82,1.18c.51.73,1,1.45,1.51,2.22s1,1.49,1.44,2.26.94,1.54,1.36,2.35.85,1.61,1.24,2.44l0,0a.14.14,0,0,1-.07.19.14.14,0,0,1-.17,0q-3.57-3.94-7.08-7.94l.31.06L29.09,58.07l-.21.12L28.73,58l-7.62-8.57.32,0c-3,2-6,4-9.06,5.92a.15.15,0,0,1-.2,0,.14.14,0,0,1,0-.17Z"/><path class="cls-2" d="M12.69,36.38c.35-.87.72-1.72,1.12-2.55s.83-1.64,1.24-2.46.89-1.6,1.34-2.39.93-1.56,1.4-2.33l.83-1.37,1.87.83c.88.39,1.77.76,2.63,1.19l2.58,1.26c.87.41,1.69.9,2.53,1.34l2.53,1.37-3.3.49,2.06-2.09c.69-.68,1.35-1.41,2.08-2.06l2.15-2c.71-.68,1.48-1.3,2.22-1.94l1.4-1.23,1.16.86c.71.53,1.44,1.05,2.13,1.62s1.4,1.11,2.08,1.7,1.38,1.16,2,1.79,1.32,1.26,2,1.93l0,0a.13.13,0,0,1,0,.2.15.15,0,0,1-.18,0Q42,28,37.35,25.3l.31,0-8,8.56-.16.18-.21-.12-9.94-5.73.32-.06q-3.33,4.26-6.72,8.48a.15.15,0,0,1-.25-.15Z"/><path class="cls-4" d="M38.22,131.82A62.44,62.44,0,0,1,25.68,122a35.2,35.2,0,0,1-8.51-13.62,27.64,27.64,0,0,1-1.39-8.09,29.64,29.64,0,0,1,1.07-8.18,62.57,62.57,0,0,1,2.68-7.67c1-2.47,2-4.9,3-7.34a76.7,76.7,0,0,0,4.26-14.87,69,69,0,0,0,.9-15.32A96.29,96.29,0,0,0,20.92,17h0a3.5,3.5,0,1,1,6.54-2.51,1,1,0,0,1,.06.18,102.16,102.16,0,0,1,5.41,32.18,74.31,74.31,0,0,1-1.86,16.28,80.28,80.28,0,0,1-5.33,15.37c-1.1,2.45-2.28,4.83-3.4,7.21a60.36,60.36,0,0,0-3,7.18A28,28,0,0,0,18,100.33a25.6,25.6,0,0,0,.89,7.57,34,34,0,0,0,7.47,13.53A62.22,62.22,0,0,0,38.22,131.82Z"/><polygon class="cls-5" points="38.22 131.82 37.38 131.28 37.39 131.26 38.22 131.82"/><polygon class="cls-5" points="34.09 129.03 34.08 129.02 34.15 128.93 34.16 128.93 34.09 129.03"/><path class="cls-5" d="M34.12,129v0Z"/><polygon class="cls-5" points="34.08 129.02 33.27 128.43 33.36 128.32 34.15 128.93 34.08 129.02"/><polygon class="cls-5" points="30.15 125.94 30.14 125.93 30.3 125.75 30.3 125.76 30.15 125.94"/><path class="cls-5" d="M30.22,126v0Z"/><polygon class="cls-5" points="30.14 125.93 29.39 125.28 29.56 125.09 30.3 125.75 30.14 125.93"/><polygon class="cls-5" points="26.49 122.53 26.48 122.52 26.74 122.28 26.74 122.28 26.49 122.53"/><path class="cls-5" d="M26.61,122.57v0Z"/><polygon class="cls-5" points="26.48 122.52 25.79 121.79 26.07 121.54 26.74 122.28 26.48 122.52"/><polygon class="cls-5" points="23.19 118.74 23.18 118.73 23.56 118.45 23.57 118.46 23.19 118.74"/><path class="cls-5" d="M23.37,118.83v0Z"/><polygon class="cls-5" points="23.18 118.73 22.58 117.93 22.98 117.64 23.56 118.45 23.18 118.73"/><polygon class="cls-5" points="20.39 114.56 20.38 114.56 20.89 114.27 20.9 114.28 20.39 114.56"/><path class="cls-5" d="M20.64,114.71v0Z"/><polygon class="cls-5" points="20.38 114.56 19.89 113.67 20.44 113.39 20.89 114.27 20.38 114.56"/><polygon class="cls-5" points="18.22 110 18.22 110 18.89 109.75 18.89 109.76 18.22 110"/><path class="cls-5" d="M18.55,110.23v0Z"/><polygon class="cls-5" points="18.22 110 17.88 109.04 18.57 108.82 18.89 109.75 18.22 110"/><polygon class="cls-5" points="16.85 105.14 16.85 105.13 17.66 104.98 17.67 104.99 16.85 105.14"/><path class="cls-5" d="M17.26,105.47v0Z"/><polygon class="cls-5" points="16.85 105.13 16.68 104.13 17.52 104.01 17.66 104.98 16.85 105.13"/><polygon class="cls-5" points="16.39 100.08 16.39 100.07 17.33 100.09 17.33 100.1 16.39 100.08"/><path class="cls-5" d="M16.86,100.55v0Z"/><polygon class="cls-5" points="16.39 100.07 16.41 99.06 17.38 99.11 17.33 100.09 16.39 100.07"/><polygon class="cls-5" points="16.91 95.02 16.91 95.02 17.95 95.23 17.95 95.24 16.91 95.02"/><path class="cls-5" d="M17.43,95.65v0Z"/><polygon class="cls-5" points="16.91 95.02 17.12 94.02 18.18 94.28 17.95 95.23 16.91 95.02"/><polygon class="cls-5" points="18.25 90.14 18.25 90.13 19.36 90.52 19.36 90.53 18.25 90.14"/><path class="cls-5" d="M18.8,90.92v0Z"/><polygon class="cls-5" points="18.25 90.13 18.58 89.18 19.71 89.6 19.36 90.52 18.25 90.13"/><polygon class="cls-5" points="20.06 85.44 20.06 85.43 21.25 85.95 21.25 85.95 20.06 85.44"/><path class="cls-5" d="M20.66,86.34v0Z"/><polygon class="cls-5" points="20.06 85.43 20.45 84.51 21.66 85.04 21.25 85.95 20.06 85.43"/><polygon class="cls-5" points="22.03 80.84 22.04 80.83 23.33 81.41 23.33 81.42 22.03 80.84"/><path class="cls-5" d="M22.68,81.83v0Z"/><polygon class="cls-5" points="22.04 80.83 22.43 79.92 23.75 80.5 23.33 81.41 22.04 80.83"/><polygon class="cls-5" points="23.94 76.25 23.94 76.24 25.36 76.82 25.36 76.83 23.94 76.25"/><path class="cls-5" d="M24.65,77.3v0Z"/><polygon class="cls-5" points="23.94 76.24 24.3 75.31 25.75 75.89 25.36 76.82 23.94 76.24"/><polygon class="cls-5" points="25.63 71.59 25.64 71.58 27.2 72.12 27.2 72.13 25.63 71.59"/><path class="cls-5" d="M26.42,72.68v0Z"/><polygon class="cls-5" points="25.64 71.58 25.94 70.64 27.53 71.17 27.2 72.12 25.64 71.58"/><polygon class="cls-5" points="27.03 66.86 27.04 66.85 28.74 67.31 28.74 67.32 27.03 66.86"/><path class="cls-5" d="M27.89,68v0Z"/><polygon class="cls-5" points="27.04 66.85 27.27 65.89 29.01 66.33 28.74 67.31 27.04 66.85"/><rect class="cls-5" x="29.01" y="61.27" width="0.01" height="1.89" transform="translate(-37.3 79.96) rotate(-79.97)"/><path class="cls-5" d="M29,63.16v0Z"/><polygon class="cls-5" points="28.09 62.03 28.26 61.07 30.14 61.4 29.95 62.4 28.09 62.03"/><rect class="cls-5" x="29.79" y="56.29" width="0.01" height="2.01" transform="translate(-30.29 80.95) rotate(-84.02)"/><path class="cls-5" d="M29.8,58.29v0Z"/><polygon class="cls-5" points="28.8 57.17 28.9 56.19 30.92 56.41 30.79 57.41 28.8 57.17"/><rect class="cls-5" x="30.22" y="51.26" width="0.01" height="2.12" transform="translate(-23.14 80.65) rotate(-87.95)"/><path class="cls-5" d="M30.22,53.38v0Z"/><polygon class="cls-5" points="29.16 52.26 29.2 51.28 31.34 51.36 31.28 52.37 29.16 52.26"/><polygon class="cls-5" points="29.2 47.34 29.2 47.34 31.44 47.3 31.44 47.31 29.2 47.34"/><path class="cls-5" d="M30.32,48.44v0Z"/><polygon class="cls-5" points="29.2 47.34 29.16 46.35 31.43 46.29 31.44 47.3 29.2 47.34"/><polygon class="cls-5" points="28.91 42.43 28.91 42.42 31.27 42.24 31.27 42.25 28.91 42.43"/><path class="cls-5" d="M30.09,43.51v0Z"/><polygon class="cls-5" points="28.91 42.42 28.82 41.44 31.2 41.23 31.27 42.24 28.91 42.42"/><polygon class="cls-5" points="28.34 37.54 28.34 37.53 30.8 37.2 30.8 37.21 28.34 37.54"/><path class="cls-5" d="M29.57,38.6v0Z"/><polygon class="cls-5" points="28.34 37.53 28.19 36.55 30.67 36.2 30.8 37.2 28.34 37.53"/><polygon class="cls-5" points="27.5 32.68 27.5 32.67 30.05 32.19 30.05 32.2 27.5 32.68"/><path class="cls-5" d="M28.77,33.73v0Z"/><polygon class="cls-5" points="27.5 32.67 27.3 31.71 29.87 31.2 30.05 32.19 27.5 32.67"/><polygon class="cls-5" points="26.41 27.87 26.4 27.86 29.04 27.23 29.05 27.24 26.41 27.87"/><path class="cls-5" d="M27.72,28.9v0Z"/><polygon class="cls-5" points="26.4 27.86 26.16 26.91 28.81 26.25 29.04 27.23 26.4 27.86"/><polygon class="cls-5" points="25.09 23.12 25.08 23.11 27.8 22.33 27.81 22.34 25.09 23.12"/><path class="cls-5" d="M26.44,24.14v0Z"/><polygon class="cls-5" points="25.08 23.11 24.79 22.17 27.53 21.35 27.8 22.33 25.08 23.11"/><polygon class="cls-5" points="23.56 18.43 23.55 18.42 26.35 17.48 26.35 17.49 23.56 18.43"/><path class="cls-5" d="M25,19.42v0Z"/><polygon class="cls-5" points="23.55 18.42 23.23 17.49 26.04 16.52 26.35 17.48 23.55 18.42"/></g></g></svg>