<svg xmlns="http://www.w3.org/2000/svg" viewBox="0 0 382.94 196"><defs><style>.cls-1{fill:#fff;}</style></defs><g id="Layer_2" data-name="Layer 2"><g id="Layer_8" data-name="Layer 8"><rect x="30.74" y="37.23" width="319.54" height="148.98"/><path d="M377.74,38H5.2C.11,38-1.94,29.63,2.25,25.94L27,4.15A15.77,15.77,0,0,1,37.42,0h308.1A15.77,15.77,0,0,1,356,4.15l24.74,21.79C384.88,29.63,382.83,38,377.74,38Z"/><path class="cls-1" d="M59.57,46.87a14.08,14.08,0,0,0-8.33,4,13.69,13.69,0,0,0-4,8.26,15,15,0,0,0-.09,2.31l0,2.24.09,4.47.24,9c.29,11.92.85,23.84.89,35.77h0L47.79,148l-.12,8.79-.05,4.39a23.18,23.18,0,0,0,.21,4.4,13.34,13.34,0,0,0,12.21,11,10.71,10.71,0,0,0,11.61-10.65,8.56,8.56,0,0,0-8.4-8.57,6.78,6.78,0,0,0-4.17,1.28,7,7,0,0,0-2.56,3.53,6.18,6.18,0,0,0,.2,4.34,5.54,5.54,0,0,0,3.2,2.9,5.61,5.61,0,0,0,2.19.28,4.4,4.4,0,0,0,4-4.54,3.53,3.53,0,0,0-2.6-3.25,3.09,3.09,0,0,0-2.18.17,2.86,2.86,0,0,0-1.43,1.64,2.47,2.47,0,0,0,.23,2.15,2.31,2.31,0,0,0,1.9,1v-.09a2.16,2.16,0,0,1-1.78-1,2.29,2.29,0,0,1-.16-2,2.57,2.57,0,0,1,1.35-1.47,2.79,2.79,0,0,1,2-.11,3.18,3.18,0,0,1,2.27,3,4,4,0,0,1-1.79,3.37,4,4,0,0,1-1.85.63,5,5,0,0,1-2-.29,4.9,4.9,0,0,1-2.82-2.63,5.45,5.45,0,0,1-.11-3.88,6.35,6.35,0,0,1,2.33-3.14,6.91,6.91,0,0,1,7.55,0,7.79,7.79,0,0,1,3.77,6.7,10.06,10.06,0,0,1-3.21,7.26,9.93,9.93,0,0,1-7.53,2.6,12.55,12.55,0,0,1-7.55-3.14,13,13,0,0,1-4.07-7.14,12.15,12.15,0,0,1-.23-2.09v-6.57l0-8.79.18-35.15c.08-6,0-11.93-.14-17.89L48,77.07l-.17-8.95-.06-4.47,0-2.23a16.57,16.57,0,0,1,.11-2.23A13.37,13.37,0,0,1,59.66,47.65a10.8,10.8,0,0,1,8.28,2.43,10.67,10.67,0,0,1,3.79,7.74,8.55,8.55,0,0,1-3.86,7.54,8.39,8.39,0,0,1-4.17,1.36,6.77,6.77,0,0,1-6.88-4.53,6.09,6.09,0,0,1,0-4.33,5.44,5.44,0,0,1,3.09-3,4.7,4.7,0,0,1,4.24.32,4.33,4.33,0,0,1,2,3.71,3.49,3.49,0,0,1-2.49,3.28,3.07,3.07,0,0,1-2.15-.13,2.8,2.8,0,0,1-1.43-1.59,2.41,2.41,0,0,1,.2-2.11,2.23,2.23,0,0,1,1.85-1v-.08a2.34,2.34,0,0,0-2,1A2.56,2.56,0,0,0,60,60.52a3,3,0,0,0,1.5,1.76,3.38,3.38,0,0,0,2.34.19,3.84,3.84,0,0,0,2.83-3.56,4.8,4.8,0,0,0-.53-2.35,4.86,4.86,0,0,0-1.64-1.79A4.79,4.79,0,0,0,62.14,54a6.12,6.12,0,0,0-2.4.36,6,6,0,0,0-3.47,3.27,7,7,0,0,0,.35,5.85c.8,7.88,1.92,15.72,2.86,23.59A194.25,194.25,0,0,1,61.13,112a236.28,236.28,0,0,1-1.81,24.93c-1,8.28-2.08,16.54-2.83,24.84h0c.44-4.15,1-8.28,1.52-12.41L59.61,137a231.41,231.41,0,0,0,1.94-25,194.6,194.6,0,0,0-1.78-25l-1.63-12.4c-.52-3.67-1-7.34-1.44-11a7.33,7.33,0,0,0,2.39,2.62,7.55,7.55,0,0,0,4.65,1.24A9.14,9.14,0,0,0,68.29,66a9.33,9.33,0,0,0,4.26-8.22,11.32,11.32,0,0,0-4.07-8.35,11.64,11.64,0,0,0-4.2-2.22A12.31,12.31,0,0,0,59.57,46.87Z"/><path class="cls-1" d="M321.45,46.87a14.08,14.08,0,0,1,8.33,4,13.69,13.69,0,0,1,4,8.26,15,15,0,0,1,.09,2.31l0,2.24-.09,4.47-.23,9c-.3,11.92-.86,23.84-.9,35.77h0l.59,35.14.12,8.79,0,4.39a23.18,23.18,0,0,1-.21,4.4,13.34,13.34,0,0,1-12.21,11,10.71,10.71,0,0,1-11.61-10.65,8.56,8.56,0,0,1,8.4-8.57,6.78,6.78,0,0,1,4.17,1.28,7,7,0,0,1,2.56,3.53,6.18,6.18,0,0,1-.2,4.34,5.54,5.54,0,0,1-3.2,2.9,5.61,5.61,0,0,1-2.19.28,4.4,4.4,0,0,1-4-4.54,3.53,3.53,0,0,1,2.6-3.25,3.09,3.09,0,0,1,2.18.17,2.86,2.86,0,0,1,1.43,1.64,2.47,2.47,0,0,1-.23,2.15,2.3,2.3,0,0,1-1.9,1v-.09a2.16,2.16,0,0,0,1.78-1,2.29,2.29,0,0,0,.16-2,2.57,2.57,0,0,0-1.35-1.47,2.79,2.79,0,0,0-2-.11,3.18,3.18,0,0,0-2.27,3,4,4,0,0,0,1.79,3.37,4,4,0,0,0,1.85.63,5,5,0,0,0,2-.29,4.9,4.9,0,0,0,2.82-2.63,5.45,5.45,0,0,0,.11-3.88,6.35,6.35,0,0,0-2.33-3.14,6.91,6.91,0,0,0-7.55,0,7.79,7.79,0,0,0-3.77,6.7,10.06,10.06,0,0,0,3.21,7.26,9.93,9.93,0,0,0,7.53,2.6,12.55,12.55,0,0,0,7.55-3.14,13,13,0,0,0,4.07-7.14,12.15,12.15,0,0,0,.23-2.09v-6.57l0-8.79-.18-35.15c-.08-6,.05-11.93.14-17.89L333,77.07l.17-8.95.06-4.47,0-2.23a15.08,15.08,0,0,0-.11-2.23,13.37,13.37,0,0,0-11.81-11.54,10.8,10.8,0,0,0-8.28,2.43,10.67,10.67,0,0,0-3.79,7.74,8.55,8.55,0,0,0,3.86,7.54,8.39,8.39,0,0,0,4.17,1.36,6.77,6.77,0,0,0,6.88-4.53,6.09,6.09,0,0,0,0-4.33,5.44,5.44,0,0,0-3.09-3,4.7,4.7,0,0,0-4.24.32,4.33,4.33,0,0,0-2,3.71,3.49,3.49,0,0,0,2.49,3.28,3.06,3.06,0,0,0,2.15-.13,2.8,2.8,0,0,0,1.43-1.59,2.41,2.41,0,0,0-.2-2.11,2.23,2.23,0,0,0-1.85-1v-.08a2.34,2.34,0,0,1,2,1,2.59,2.59,0,0,1,.27,2.25,3,3,0,0,1-1.51,1.76,3.38,3.38,0,0,1-2.34.19,3.84,3.84,0,0,1-2.83-3.56,4.8,4.8,0,0,1,.53-2.35,4.86,4.86,0,0,1,1.64-1.79,4.79,4.79,0,0,1,2.32-.78,6.1,6.1,0,0,1,2.39.36,6,6,0,0,1,3.47,3.27,7,7,0,0,1-.35,5.85c-.8,7.88-1.92,15.72-2.86,23.59A194.25,194.25,0,0,0,319.89,112a236.28,236.28,0,0,0,1.81,24.93c1,8.28,2.08,16.54,2.83,24.84h0c-.44-4.15-1-8.28-1.52-12.41L321.41,137a231.41,231.41,0,0,1-1.94-25,194.6,194.6,0,0,1,1.78-25l1.63-12.4c.52-3.67,1-7.34,1.44-11a7.33,7.33,0,0,1-2.39,2.62,7.55,7.55,0,0,1-4.65,1.24A9.14,9.14,0,0,1,312.73,66a9.33,9.33,0,0,1-4.26-8.22,11.32,11.32,0,0,1,4.07-8.35,11.64,11.64,0,0,1,4.2-2.22A12.31,12.31,0,0,1,321.45,46.87Z"/><path class="cls-1" d="M63.72,66.63c10.58.33,21.15.76,31.72,1.22l31.71,1.57c21.13,1,42.28,1.81,63.43,1.86S232.87,70.83,254,70l31.72-1.36c10.57-.39,21.15-.75,31.73-1v.08c-42.29,1.48-84.54,4.59-126.89,4.36S106,68.46,63.72,66.7Z"/><path class="cls-1" d="M63.76,158.31c10.57-.54,21.13-1.18,31.69-1.84l31.7-1.8c21.13-1.15,42.28-2.11,63.46-2.29s42.35.74,63.49,1.73l63.41,3.23v.08c-42.29-1.46-84.54-4.55-126.88-4.29s-84.57,3.52-126.85,5.25Z"/><polygon class="cls-1" points="60.34 47.32 93.14 46.9 125.95 46.75 191.55 46.47 257.16 46.76 289.96 46.91 322.77 47.32 322.77 47.42 60.34 47.42 60.34 47.32"/><polygon class="cls-1" points="60.82 176.6 93.63 176.19 126.43 176.04 192.04 175.75 257.64 176.04 290.45 176.19 323.25 176.6 323.25 176.7 60.82 176.7 60.82 176.6"/><path d="M46.31,196H30.74V186h21l-3,8.33A2.54,2.54,0,0,1,46.31,196Z"/><path d="M334.71,196h15.57V186h-21l3,8.33A2.54,2.54,0,0,0,334.71,196Z"/><polygon class="cls-1" points="39.71 27.55 49.37 20.2 49.22 20.2 58.65 27.81 58.77 27.91 58.9 27.81 68.56 20.46 68.21 20.45 77.64 28.07 77.86 28.25 78.09 28.07 87.72 20.68 87.23 20.68 96.69 28.26 96.95 28.46 97.22 28.26 106.85 20.87 106.29 20.86 115.75 28.44 116.05 28.68 116.34 28.45 125.97 21.05 125.34 21.05 134.81 28.63 135.13 28.89 135.47 28.63 145.09 21.24 144.4 21.23 153.86 28.81 154.22 29.1 154.59 28.82 164.21 21.42 163.45 21.42 172.91 29 173.31 29.31 173.71 29 183.34 21.61 182.5 21.6 191.97 29.18 192.4 29.52 192.83 29.18 202.43 21.75 201.59 21.75 211.09 29.29 211.49 29.6 211.89 29.29 221.49 21.86 220.72 21.85 230.22 29.39 230.59 29.68 230.95 29.4 240.55 21.97 239.85 21.96 249.35 29.5 249.68 29.76 250.01 29.51 259.61 22.07 258.98 22.07 268.48 29.61 268.78 29.84 269.07 29.61 278.67 22.18 278.12 22.18 287.61 29.72 287.87 29.93 288.14 29.72 297.73 22.29 297.24 22.29 306.75 29.82 306.97 30 307.19 29.83 316.76 22.36 316.42 22.35 325.95 29.86 326.07 29.96 326.2 29.86 335.77 22.39 335.62 22.39 345.16 29.89 345.21 29.84 335.72 22.28 335.7 22.26 335.67 22.28 326.05 29.69 326.1 29.69 316.62 22.13 316.59 22.11 316.56 22.13 306.94 29.54 307 29.54 297.52 21.98 297.49 21.95 297.46 21.98 287.85 29.39 287.91 29.39 278.43 21.83 278.4 21.8 278.36 21.83 268.75 29.24 268.82 29.24 259.34 21.68 259.3 21.65 259.26 21.68 249.65 29.09 249.72 29.09 240.24 21.53 240.2 21.5 240.16 21.53 230.55 28.94 230.63 28.94 221.15 21.38 221.11 21.35 221.06 21.38 211.45 28.79 211.54 28.79 202.06 21.23 202.01 21.2 201.97 21.23 192.36 28.64 192.45 28.64 182.97 21.09 182.92 21.05 182.88 21.09 173.27 28.5 173.36 28.5 163.88 20.94 163.84 20.91 163.79 20.94 154.19 28.36 154.27 28.36 144.79 20.8 144.75 20.77 144.71 20.8 135.1 28.21 135.18 28.21 125.7 20.66 125.66 20.63 125.63 20.66 116.02 28.07 116.09 28.07 106.61 20.52 106.57 20.49 106.54 20.51 96.93 27.93 96.99 27.93 87.51 20.37 87.48 20.35 87.45 20.37 77.84 27.79 77.9 27.79 68.42 20.23 68.39 20.21 68.36 20.23 58.75 27.64 58.8 27.64 49.32 20.09 49.3 20.07 49.27 20.09 39.66 27.5 39.71 27.55"/><polygon class="cls-1" points="39.71 20.95 49.37 13.59 49.22 13.59 58.65 21.21 58.77 21.31 58.9 21.21 68.56 13.85 68.21 13.85 77.64 21.47 77.86 21.64 78.09 21.47 87.72 14.08 87.23 14.07 96.69 21.65 96.95 21.86 97.22 21.66 106.85 14.26 106.29 14.26 115.75 21.84 116.05 22.07 116.34 21.84 125.97 14.45 125.34 14.44 134.81 22.02 135.13 22.29 135.47 22.03 145.09 14.63 144.4 14.63 153.86 22.21 154.22 22.5 154.59 22.21 164.21 14.82 163.45 14.81 172.91 22.39 173.31 22.71 173.71 22.4 183.34 15 182.5 15 191.97 22.57 192.4 22.92 192.83 22.58 202.43 15.15 201.59 15.14 211.09 22.68 211.49 23 211.89 22.69 221.49 15.26 220.72 15.25 230.22 22.79 230.59 23.08 230.95 22.8 240.55 15.36 239.85 15.36 249.35 22.9 249.68 23.16 250.01 22.9 259.61 15.47 258.98 15.47 268.48 23.01 268.78 23.24 269.07 23.01 278.67 15.58 278.12 15.57 287.61 23.11 287.87 23.32 288.14 23.12 297.73 15.69 297.24 15.68 306.75 23.22 306.97 23.4 307.19 23.22 316.76 15.75 316.42 15.75 325.95 23.25 326.07 23.35 326.2 23.26 335.77 15.79 335.62 15.79 345.16 23.29 345.21 23.24 335.72 15.68 335.7 15.66 335.67 15.68 326.05 23.09 326.1 23.09 316.62 15.53 316.59 15.5 316.56 15.53 306.94 22.94 307 22.94 297.52 15.38 297.49 15.35 297.46 15.38 287.85 22.79 287.91 22.79 278.43 15.23 278.4 15.2 278.36 15.23 268.75 22.64 268.82 22.64 259.34 15.08 259.3 15.05 259.26 15.08 249.65 22.49 249.72 22.49 240.24 14.93 240.2 14.9 240.16 14.93 230.55 22.34 230.63 22.34 221.15 14.78 221.11 14.74 221.06 14.78 211.45 22.19 211.54 22.19 202.06 14.63 202.01 14.59 201.97 14.63 192.36 22.04 192.45 22.04 182.97 14.48 182.92 14.45 182.88 14.48 173.27 21.9 173.36 21.9 163.88 14.34 163.84 14.3 163.79 14.34 154.19 21.75 154.27 21.75 144.79 14.2 144.75 14.16 144.71 14.2 135.1 21.61 135.18 21.61 125.7 14.05 125.66 14.02 125.63 14.05 116.02 21.47 116.09 21.47 106.61 13.91 106.57 13.88 106.54 13.91 96.93 21.33 96.99 21.33 87.51 13.77 87.48 13.74 87.45 13.77 77.84 21.18 77.9 21.18 68.42 13.63 68.39 13.6 68.36 13.63 58.75 21.04 58.8 21.04 49.32 13.48 49.3 13.46 49.27 13.48 39.66 20.9 39.71 20.95"/><polygon class="cls-1" points="39.54 14.35 49.2 6.99 49.05 6.99 58.48 14.61 58.6 14.7 58.73 14.61 68.39 7.25 68.04 7.25 77.47 14.86 77.69 15.04 77.92 14.87 87.55 7.47 87.06 7.47 96.52 15.05 96.78 15.26 97.05 15.05 106.67 7.66 106.12 7.66 115.58 15.23 115.87 15.47 116.17 15.24 125.8 7.84 125.17 7.84 134.63 15.42 134.96 15.68 135.3 15.42 144.92 8.03 144.22 8.03 153.69 15.6 154.05 15.89 154.42 15.61 164.04 8.21 163.28 8.21 172.74 15.79 173.13 16.11 173.54 15.79 183.16 8.4 182.33 8.39 191.79 15.97 192.22 16.32 192.66 15.98 202.25 8.54 201.42 8.54 210.92 16.08 211.32 16.39 211.72 16.09 221.31 8.65 220.55 8.65 230.05 16.19 230.41 16.48 230.78 16.19 240.37 8.76 239.68 8.75 249.18 16.3 249.51 16.56 249.84 16.3 259.44 8.87 258.81 8.86 268.31 16.4 268.61 16.64 268.9 16.41 278.5 8.97 277.94 8.97 287.44 16.51 287.7 16.72 287.96 16.52 297.56 9.08 297.07 9.08 306.58 16.62 306.8 16.79 307.02 16.62 316.59 9.15 316.24 9.15 325.78 16.65 325.9 16.75 326.02 16.65 335.6 9.18 335.45 9.18 344.99 16.69 345.04 16.63 335.55 9.07 335.52 9.05 335.5 9.07 325.88 16.48 325.93 16.48 316.45 8.92 316.42 8.9 316.39 8.92 306.77 16.33 306.83 16.34 297.35 8.77 297.32 8.75 297.29 8.77 287.67 16.18 287.74 16.18 278.26 8.62 278.23 8.6 278.19 8.62 268.57 16.04 268.65 16.04 259.17 8.47 259.13 8.44 259.09 8.47 249.47 15.88 249.55 15.89 240.07 8.32 240.03 8.29 239.99 8.32 230.38 15.74 230.46 15.74 220.98 8.18 220.94 8.14 220.89 8.17 211.28 15.59 211.37 15.59 201.89 8.03 201.84 7.99 201.79 8.03 192.18 15.44 192.28 15.44 182.8 7.88 182.75 7.84 182.71 7.88 173.1 15.29 173.19 15.29 163.71 7.74 163.66 7.7 163.62 7.74 154.01 15.15 154.1 15.15 144.62 7.59 144.58 7.56 144.53 7.59 134.93 15.01 135.01 15.01 125.53 7.45 125.49 7.42 125.45 7.45 115.84 14.87 115.92 14.87 106.43 7.31 106.4 7.28 106.36 7.31 96.75 14.72 96.82 14.72 87.34 7.17 87.31 7.14 87.28 7.16 77.67 14.58 77.73 14.58 68.25 7.02 68.22 7 68.19 7.02 58.58 14.44 58.63 14.44 49.15 6.88 49.13 6.86 49.1 6.88 39.49 14.29 39.54 14.35"/></g></g></svg>