<svg xmlns="http://www.w3.org/2000/svg" viewBox="0 0 401.78 288.01"><defs><style>.cls-1{fill:#fff;}</style></defs><g id="Layer_2" data-name="Layer 2"><g id="Layer_8" data-name="Layer 8"><rect x="41.12" y="129.24" width="319.54" height="148.98"/><path class="cls-1" d="M70,138.88a14.08,14.08,0,0,0-8.33,4,13.76,13.76,0,0,0-4,8.26,18,18,0,0,0-.09,2.31l0,2.24.09,4.47.23,9c.29,11.92.85,23.84.9,35.77h0L58.17,240l-.12,8.79,0,4.39a23.18,23.18,0,0,0,.21,4.4,13.34,13.34,0,0,0,12.21,10.95A10.71,10.71,0,0,0,82,257.88a8.56,8.56,0,0,0-8.4-8.57,6.78,6.78,0,0,0-4.17,1.28,7,7,0,0,0-2.56,3.53,6.13,6.13,0,0,0,.2,4.34,5.54,5.54,0,0,0,3.2,2.9,5.61,5.61,0,0,0,2.19.28,4.4,4.4,0,0,0,4-4.54,3.52,3.52,0,0,0-2.61-3.25,3.07,3.07,0,0,0-2.17.17,2.82,2.82,0,0,0-1.43,1.64,2.47,2.47,0,0,0,.23,2.15,2.3,2.3,0,0,0,1.9,1v-.09a2.15,2.15,0,0,1-1.78-1,2.29,2.29,0,0,1-.16-2,2.57,2.57,0,0,1,1.35-1.47,2.79,2.79,0,0,1,2-.11,3.16,3.16,0,0,1,2.26,3,4,4,0,0,1-1.79,3.37,4,4,0,0,1-1.84.63,5.05,5.05,0,0,1-2-.29,5,5,0,0,1-2.82-2.63,5.45,5.45,0,0,1-.1-3.88,6.35,6.35,0,0,1,2.33-3.14,6.91,6.91,0,0,1,7.55,0,7.79,7.79,0,0,1,3.77,6.7A10.08,10.08,0,0,1,78,265.14a9.93,9.93,0,0,1-7.53,2.6,12.55,12.55,0,0,1-7.55-3.14,13,13,0,0,1-4.07-7.14,12.15,12.15,0,0,1-.23-2.09V248.8l.05-8.79.18-35.15c.08-6-.05-11.93-.14-17.89l-.34-17.89-.17-9-.06-4.47,0-2.23a15.08,15.08,0,0,1,.11-2.23A13.37,13.37,0,0,1,70,139.66a10.81,10.81,0,0,1,8.29,2.43,10.67,10.67,0,0,1,3.79,7.74,8.55,8.55,0,0,1-3.86,7.54,8.39,8.39,0,0,1-4.17,1.36,6.77,6.77,0,0,1-6.88-4.53,6.09,6.09,0,0,1,0-4.33,5.44,5.44,0,0,1,3.09-3,4.7,4.7,0,0,1,4.24.32,4.32,4.32,0,0,1,2,3.71,3.49,3.49,0,0,1-2.49,3.28,3.06,3.06,0,0,1-2.15-.13,2.8,2.8,0,0,1-1.43-1.59,2.41,2.41,0,0,1,.2-2.11,2.21,2.21,0,0,1,1.85-1v-.08a2.34,2.34,0,0,0-2,1,2.59,2.59,0,0,0-.27,2.25,3,3,0,0,0,1.51,1.76,3.38,3.38,0,0,0,2.34.19A3.84,3.84,0,0,0,77,150.92a4.8,4.8,0,0,0-.53-2.35,4.86,4.86,0,0,0-1.64-1.79,4.79,4.79,0,0,0-2.32-.78,6.25,6.25,0,0,0-2.39.35,6.05,6.05,0,0,0-3.47,3.28,6.9,6.9,0,0,0,.35,5.84c.8,7.89,1.92,15.73,2.86,23.6A194.25,194.25,0,0,1,71.51,204a235.9,235.9,0,0,1-1.81,24.92c-1,8.28-2.08,16.55-2.84,24.85h0c.43-4.14,1-8.27,1.52-12.4L70,229a234,234,0,0,0,1.94-25,194.6,194.6,0,0,0-1.78-25l-1.63-12.4c-.52-3.67-1-7.34-1.44-11a7.33,7.33,0,0,0,2.39,2.62,7.55,7.55,0,0,0,4.65,1.24A9.14,9.14,0,0,0,78.67,158a9.33,9.33,0,0,0,4.26-8.22,11.34,11.34,0,0,0-4.08-8.35,11.52,11.52,0,0,0-4.19-2.22A12.31,12.31,0,0,0,70,138.88Z"/><path class="cls-1" d="M331.83,138.88a14.11,14.11,0,0,1,8.33,4,13.75,13.75,0,0,1,4,8.26,15,15,0,0,1,.09,2.31l0,2.24-.09,4.47-.24,9c-.29,11.92-.85,23.84-.89,35.77h0l.59,35.14.12,8.79,0,4.39a22.38,22.38,0,0,1-.2,4.4,13.34,13.34,0,0,1-12.21,10.95,10.71,10.71,0,0,1-11.61-10.65,8.56,8.56,0,0,1,8.4-8.57,6.78,6.78,0,0,1,4.17,1.28,6.91,6.91,0,0,1,2.55,3.53,6.13,6.13,0,0,1-.19,4.34,5.49,5.49,0,0,1-5.39,3.18,4.39,4.39,0,0,1-4-4.54,3.52,3.52,0,0,1,2.6-3.25,3.1,3.1,0,0,1,2.18.17,2.86,2.86,0,0,1,1.43,1.64,2.47,2.47,0,0,1-.24,2.15,2.28,2.28,0,0,1-1.89,1v-.09a2.16,2.16,0,0,0,1.78-1,2.29,2.29,0,0,0,.16-2,2.6,2.6,0,0,0-1.35-1.47,2.79,2.79,0,0,0-2-.11,3.18,3.18,0,0,0-2.27,3,4,4,0,0,0,1.79,3.37,4.09,4.09,0,0,0,1.85.63,5,5,0,0,0,2-.29,4.9,4.9,0,0,0,2.82-2.63,5.45,5.45,0,0,0,.11-3.88,6.35,6.35,0,0,0-2.33-3.14,6.91,6.91,0,0,0-7.55,0,7.79,7.79,0,0,0-3.77,6.7,10,10,0,0,0,3.21,7.26,9.93,9.93,0,0,0,7.53,2.6,12.5,12.5,0,0,0,7.54-3.14,13,13,0,0,0,4.08-7.14,13.23,13.23,0,0,0,.23-2.09V248.8L343.1,240l-.17-35.15c-.08-6,.05-11.93.14-17.89l.34-17.89.17-9,.06-4.47,0-2.23a15.08,15.08,0,0,0-.12-2.23,13.22,13.22,0,0,0-3.9-7.81,13.38,13.38,0,0,0-7.9-3.73,10.79,10.79,0,0,0-8.28,2.43,10.67,10.67,0,0,0-3.79,7.74,8.55,8.55,0,0,0,3.86,7.54,8.39,8.39,0,0,0,4.17,1.36,6.79,6.79,0,0,0,6.88-4.53,6.09,6.09,0,0,0,0-4.33,5.44,5.44,0,0,0-3.09-3,4.72,4.72,0,0,0-4.25.32,4.33,4.33,0,0,0-2,3.71,3.49,3.49,0,0,0,2.49,3.28,3.07,3.07,0,0,0,2.15-.13,2.8,2.8,0,0,0,1.43-1.59,2.41,2.41,0,0,0-.2-2.11,2.24,2.24,0,0,0-1.85-1v-.08a2.34,2.34,0,0,1,2,1,2.56,2.56,0,0,1,.26,2.25,3,3,0,0,1-1.51,1.76,3.37,3.37,0,0,1-2.34.19,3.84,3.84,0,0,1-2.82-3.56,4.69,4.69,0,0,1,.53-2.35,4.88,4.88,0,0,1,3.95-2.57,6.3,6.3,0,0,1,2.4.35,6.08,6.08,0,0,1,3.47,3.28,6.94,6.94,0,0,1-.35,5.84c-.8,7.89-1.93,15.73-2.86,23.6A194.25,194.25,0,0,0,330.27,204a233.27,233.27,0,0,0,1.81,24.92c.95,8.28,2.08,16.55,2.83,24.85h0c-.44-4.14-1-8.27-1.52-12.4L331.79,229a234,234,0,0,1-2-25,194.61,194.61,0,0,1,1.79-25l1.63-12.4c.52-3.67,1-7.34,1.44-11a7.33,7.33,0,0,1-2.39,2.62,7.55,7.55,0,0,1-4.65,1.24,9.11,9.11,0,0,1-4.55-1.46,9.33,9.33,0,0,1-4.26-8.22,11.29,11.29,0,0,1,4.07-8.35,11.56,11.56,0,0,1,4.2-2.22A12.31,12.31,0,0,1,331.83,138.88Z"/><path class="cls-1" d="M74.1,158.64c10.58.33,21.15.76,31.72,1.22l31.71,1.57c21.13,1,42.28,1.81,63.42,1.86s42.3-.45,63.44-1.31l31.72-1.36c10.57-.39,21.15-.75,31.73-1v.08c-42.29,1.48-84.55,4.59-126.89,4.36s-84.57-3.57-126.85-5.33Z"/><path class="cls-1" d="M74.14,250.32c10.57-.54,21.13-1.18,31.69-1.85l31.7-1.79c21.13-1.15,42.28-2.11,63.46-2.29s42.35.73,63.49,1.73l63.41,3.23v.08c-42.29-1.46-84.55-4.55-126.88-4.29s-84.57,3.52-126.86,5.25Z"/><polygon class="cls-1" points="70.72 139.33 103.52 138.91 136.33 138.76 201.93 138.48 267.54 138.76 300.34 138.91 333.14 139.33 333.14 139.43 70.72 139.43 70.72 139.33"/><polygon class="cls-1" points="71.2 268.61 104 268.19 136.81 268.05 202.41 267.76 268.02 268.05 300.82 268.2 333.63 268.61 333.63 268.71 71.2 268.71 71.2 268.61"/><path d="M56.69,288H41.12V278h21l-3,8.33A2.54,2.54,0,0,1,56.69,288Z"/><path d="M345.09,288h15.57V278h-21l3,8.33A2.56,2.56,0,0,0,345.09,288Z"/><path d="M287.84,0,395.55,109.26a15.73,15.73,0,0,1,4.37,10.33l1.85,32.92c.31,5.58-7.1,10-10.67,6.38L260.77,26.69"/><polyline class="cls-1" points="267.03 20.94 267.57 21.01 279.6 22.63 279.02 22.03 280.32 34.09 280.38 34.59 280.88 34.66 292.91 36.28 292.38 35.73 293.67 47.79 293.72 48.25 294.18 48.31 306.21 49.92 305.73 49.43 307.03 61.49 307.07 61.9 307.49 61.96 319.52 63.58 319.08 63.13 320.38 75.19 320.42 75.56 320.79 75.61 332.82 77.23 332.44 76.83 333.74 88.89 333.77 89.22 334.1 89.26 346.13 90.88 345.79 90.53 347.09 102.58 347.12 102.87 347.4 102.91 359.44 104.47 359.2 104.23 360.55 116.28 360.57 116.44 360.72 116.46 372.76 118.03 372.66 117.93 374.01 129.99 374.08 129.99 372.81 117.92 372.8 117.89 372.77 117.89 360.74 116.24 360.77 116.28 359.5 104.21 359.5 104.18 359.46 104.17 347.43 102.53 347.47 102.57 346.2 90.51 346.2 90.47 346.16 90.46 334.13 88.82 334.18 88.87 332.9 76.81 332.9 76.77 332.86 76.76 320.83 75.11 320.88 75.17 319.61 63.11 319.6 63.06 319.56 63.05 307.52 61.41 307.58 61.46 306.31 49.4 306.3 49.35 306.25 49.35 294.22 47.7 294.28 47.76 293.01 35.7 293.01 35.65 292.95 35.64 280.92 34 280.99 34.06 279.71 22 279.71 21.94 279.65 21.94 267.62 20.3"/><polyline class="cls-1" points="271.73 16.3 272.28 16.38 284.3 17.99 283.73 17.39 285.02 29.45 285.08 29.96 285.58 30.02 297.61 31.64 297.08 31.09 298.38 43.15 298.43 43.61 298.88 43.67 310.91 45.29 310.43 44.79 311.73 56.85 311.77 57.27 312.19 57.32 324.22 58.94 323.79 58.49 325.08 70.55 325.12 70.92 325.5 70.97 337.53 72.59 337.14 72.19 338.44 84.25 338.47 84.58 338.8 84.63 350.83 86.24 350.49 85.89 351.8 97.95 351.83 98.23 352.11 98.27 364.14 99.84 363.9 99.59 365.25 111.65 365.27 111.81 365.42 111.83 377.46 113.4 377.36 113.29 378.71 125.36 378.79 125.35 377.51 113.29 377.51 113.25 377.47 113.25 365.44 111.6 365.48 111.64 364.2 99.58 364.2 99.54 364.17 99.54 352.13 97.89 352.18 97.93 350.9 85.87 350.9 85.83 350.86 85.83 338.83 84.19 338.88 84.23 337.61 72.17 337.6 72.13 337.56 72.12 325.53 70.48 325.58 70.53 324.31 58.47 324.31 58.42 324.26 58.42 312.23 56.77 312.28 56.83 311.01 44.77 311 44.72 310.95 44.71 298.93 43.07 298.99 43.13 297.71 31.07 297.71 31.01 297.65 31.01 285.63 29.36 285.69 29.43 284.42 17.37 284.41 17.31 284.35 17.3 272.33 15.66"/><polyline class="cls-1" points="276.31 11.55 276.86 11.62 288.88 13.23 288.31 12.64 289.61 24.7 289.66 25.2 290.16 25.27 302.19 26.88 301.66 26.34 302.96 38.39 303.01 38.85 303.46 38.92 315.5 40.53 315.01 40.03 316.31 52.09 316.36 52.51 316.77 52.56 328.8 54.18 328.37 53.73 329.67 65.79 329.71 66.17 330.08 66.22 342.11 67.83 341.72 67.43 343.02 79.49 343.06 79.82 343.38 79.87 355.41 81.48 355.07 81.13 356.38 93.19 356.41 93.47 356.69 93.51 368.73 95.08 368.48 94.83 369.83 106.89 369.85 107.05 370.01 107.07 382.05 108.64 381.94 108.53 383.3 120.6 383.37 120.59 382.09 108.53 382.09 108.5 382.06 108.49 370.02 106.84 370.06 106.88 368.79 94.82 368.78 94.78 368.75 94.78 356.72 93.13 356.76 93.17 355.49 81.11 355.48 81.07 355.44 81.07 343.41 79.43 343.46 79.47 342.19 67.42 342.19 67.37 342.14 67.36 330.11 65.72 330.16 65.77 328.89 53.71 328.89 53.66 328.84 53.66 316.81 52.01 316.86 52.07 315.59 40.01 315.59 39.96 315.54 39.95 303.51 38.31 303.57 38.37 302.3 26.31 302.29 26.25 302.24 26.25 290.21 24.6 290.27 24.67 289 12.61 288.99 12.55 288.93 12.54 276.91 10.9"/><path d="M113.94,0,6.22,109.26a15.77,15.77,0,0,0-4.36,10.33L0,152.51c-.31,5.58,7.09,10,10.67,6.38L141,26.69"/><polyline class="cls-1" points="134.75 20.94 134.2 21.01 122.18 22.63 122.75 22.03 121.46 34.09 121.4 34.59 120.9 34.66 108.87 36.28 109.4 35.73 108.1 47.79 108.05 48.25 107.6 48.31 95.57 49.92 96.05 49.43 94.75 61.49 94.7 61.9 94.29 61.96 82.26 63.58 82.69 63.13 81.4 75.19 81.36 75.56 80.98 75.61 68.95 77.23 69.34 76.83 68.04 88.89 68.01 89.22 67.68 89.26 55.65 90.88 55.99 90.53 54.68 102.58 54.65 102.87 54.37 102.91 42.34 104.47 42.58 104.23 41.23 116.28 41.21 116.44 41.06 116.46 29.02 118.03 29.12 117.93 27.77 129.99 27.69 129.99 28.97 117.92 28.97 117.89 29.01 117.89 41.04 116.24 41 116.28 42.27 104.21 42.28 104.18 42.31 104.17 54.35 102.53 54.3 102.57 55.58 90.51 55.58 90.47 55.62 90.46 67.65 88.82 67.6 88.87 68.87 76.81 68.88 76.77 68.92 76.76 80.95 75.11 80.9 75.17 82.17 63.11 82.17 63.06 82.22 63.05 94.25 61.41 94.2 61.46 95.47 49.4 95.47 49.35 95.53 49.35 107.55 47.7 107.5 47.76 108.77 35.7 108.77 35.65 108.83 35.64 120.86 34 120.79 34.06 122.06 22 122.07 21.94 122.13 21.94 134.15 20.3"/><polyline class="cls-1" points="130.05 16.3 129.5 16.38 117.47 17.99 118.05 17.39 116.75 29.45 116.7 29.96 116.2 30.02 104.17 31.64 104.7 31.09 103.4 43.15 103.35 43.61 102.89 43.67 90.86 45.29 91.35 44.79 90.05 56.85 90 57.27 89.59 57.32 77.56 58.94 77.99 58.49 76.69 70.55 76.65 70.92 76.28 70.97 64.25 72.59 64.64 72.19 63.34 84.25 63.3 84.58 62.98 84.63 50.95 86.24 51.29 85.89 49.98 97.95 49.95 98.23 49.67 98.27 37.63 99.84 37.88 99.59 36.53 111.65 36.51 111.81 36.35 111.83 24.31 113.4 24.42 113.29 23.06 125.36 22.99 125.35 24.27 113.29 24.27 113.25 24.3 113.25 36.34 111.6 36.3 111.64 37.57 99.58 37.58 99.54 37.61 99.54 49.64 97.89 49.6 97.93 50.87 85.87 50.88 85.83 50.92 85.83 62.95 84.19 62.9 84.23 64.17 72.17 64.17 72.13 64.22 72.12 76.25 70.48 76.2 70.53 77.47 58.47 77.47 58.42 77.52 58.42 89.55 56.77 89.5 56.83 90.77 44.77 90.77 44.72 90.82 44.71 102.85 43.07 102.79 43.13 104.06 31.07 104.07 31.01 104.12 31.01 116.15 29.36 116.09 29.43 117.36 17.37 117.37 17.31 117.42 17.3 129.45 15.66"/><polyline class="cls-1" points="125.47 11.55 124.92 11.62 112.89 13.23 113.47 12.64 112.17 24.7 112.12 25.2 111.62 25.27 99.59 26.88 100.12 26.34 98.82 38.39 98.77 38.85 98.31 38.92 86.28 40.53 86.77 40.03 85.47 52.09 85.42 52.51 85.01 52.56 72.97 54.18 73.41 53.73 72.11 65.79 72.07 66.17 71.7 66.22 59.67 67.83 60.06 67.43 58.76 79.49 58.72 79.82 58.39 79.87 46.37 81.48 46.7 81.13 45.4 93.19 45.37 93.47 45.09 93.51 33.05 95.08 33.29 94.83 31.94 106.89 31.93 107.05 31.77 107.07 19.73 108.64 19.84 108.53 18.48 120.6 18.41 120.59 19.69 108.53 19.69 108.5 19.72 108.49 31.76 106.84 31.72 106.88 32.99 94.82 32.99 94.78 33.03 94.78 45.06 93.13 45.02 93.17 46.29 81.11 46.3 81.07 46.34 81.07 58.36 79.43 58.32 79.47 59.59 67.42 59.59 67.37 59.64 67.36 71.67 65.72 71.61 65.77 72.89 53.71 72.89 53.66 72.94 53.66 84.97 52.01 84.91 52.07 86.19 40.01 86.19 39.96 86.24 39.95 98.27 38.31 98.21 38.37 99.48 26.31 99.49 26.25 99.54 26.25 111.57 24.6 111.51 24.67 112.78 12.61 112.78 12.55 112.84 12.54 124.87 10.9"/></g></g></svg>