<svg xmlns="http://www.w3.org/2000/svg" viewBox="0 0 294.46 540.11"><defs><style>.cls-1{fill:#fff;}</style></defs><g id="Layer_2" data-name="Layer 2"><g id="Layer_8" data-name="Layer 8"><path d="M224.58,21.52c-.31-.51-.82-.42-1.29-.42-.62,0-1.24.33-1.87,0-8.07,0-16.12-.92-24.21-.56a9.57,9.57,0,0,0-4.87,0,45.7,45.7,0,0,0-14.39,0c-2.3-.05-4.62,0-6.92-.17-9.7-.75-19.39-1.67-29.14-1.52a.77.77,0,0,0-.87,0h-1.77c-4.06.12-8.13-.16-12.17.38-8.52,0-17-.22-25.56-.45-14-.38-27.94,1.58-41.91,1-4.92-.21-7.6,2.12-10.06,5.59l.94,0-.94,0c-1.12.71-1.31,1.95-1.71,3.06C46.13,31,46.3,33.83,47,36.57A35.94,35.94,0,0,1,48,43.41a4.51,4.51,0,0,1-2,4c-2.32,1.9-5.08,2.62-7.85,3.46-1.55.48-3.23.94-3.8,2.82h.46a3.92,3.92,0,0,1,2.11-1.62,3.92,3.92,0,0,0-2.11,1.62h-.46c-2.16,1.93-4.89,3.27-6.18,6.08a5.36,5.36,0,0,0-1.69,3.91l.16.14h0l-.16-.14c-.14.24-.4.48-.41.72-.22,5.4-1.56,10.4-5.17,14.6,0,.28,0,.57,0,.86h0c0-.29,0-.58,0-.86q-2.86,4.51-5.72,9C13.47,91,13,94.48,10.89,97.2a10.38,10.38,0,0,0-2,7.33c.12,2.08.48,4.19-.11,6.26a11.32,11.32,0,0,0,.29,7c.58,2.24,2.09,3.9,3.54,5.6.42,1.08,1.47,1.54,2.3,2.18a4.25,4.25,0,0,1,1.74,4.61c-.42,2.76-1.39,5.84.22,8.47,1.31,2.16.91,4.09.24,6.16a2.35,2.35,0,0,0-.2,1.66,12.28,12.28,0,0,0-.46,1.65c-.31,2.58-.81,5.22,1.72,7.12A10.54,10.54,0,0,0,27,158.3c0-.16,0-.32,0-.48,1.15-.35,2.5-.35,3-1.79.86-1,1.59-1.21,2.18-.54-.59-.67-1.32-.46-2.18.54-.49,1.44-1.84,1.44-3,1.79,0,.16,0,.32,0,.48a23.42,23.42,0,0,0,2.78,0c4.1-.25,5.48,1,5.75,5.11a18.66,18.66,0,0,1,0,2.59,5,5,0,0,0,.6,3.12c.75,1.25.91,1.22,2.2-.46a5.49,5.49,0,0,0,2.65-3.9h0c1.46-.74,2.22-.28,2.78,1.26a33.06,33.06,0,0,1,2,7.86c.13,1.13.23,2.26.4,3.38a86.86,86.86,0,0,0,2.16,10.57c.13,1,.19,2,.39,3,.94,4.8,1.74,9.62,2.59,14.44.48,2.76.87,5.54,1.44,8.29,1,4.58,2.05,9.13,3.07,13.7a55.31,55.31,0,0,0,1.63,6.93c1.33,3.64,3.83,4.81,7.27,3.16a36,36,0,0,0,7.54-5.07l2.64-1.38c3.47-.74,5.24.86,6.33,4.08.61,1.77,1,3.75,2.31,5.24.76,3.85.68,7.82,1.76,11.61.12.15.23.31.34.46l1,0V251a3.35,3.35,0,0,1-.34-2.34,3.35,3.35,0,0,0,.34,2.34v1.3l-1,0A3.41,3.41,0,0,0,87.16,254c3,2.23,6.19,2.09,9.49.88,3.65-1.39,7.09-3.26,10.84-4.41,1.77,0,3.55,0,3,2.64A49.64,49.64,0,0,0,108,257.9c-1.37,3.28-2.38,6.65-.3,10.06a6.92,6.92,0,0,0,5.4,1.8c2.36.82,4.89,1.19,7,2.6a7,7,0,0,0,2.3,1.7l1.63,1.77c1.75,3.35,3.83,6.41,7,8.55a4.53,4.53,0,0,1,3.09.33c.38.16.75.35,1.12.53-.37-.18-.74-.37-1.12-.53a4.53,4.53,0,0,0-3.09-.33c5.5,4.17,11.62,4.8,18.14,3.17a34.45,34.45,0,0,0,5.66-4c8.12-7.34,13.17-16.92,18.82-26,3.94-6.37,7-13.29,11.74-19.15,1.82-1.09,3.55-1.35,5.12.46a18.63,18.63,0,0,0,1.37,1.29l2.61,4.82a.31.31,0,0,0,.09.36c.6,2,1.6,3.83,2,5.92.87,5.11.93,9.89-3.76,13.43a3.61,3.61,0,0,0-1.65,2.48c-.23,4.15-.27,7.88,4.19,10.53l.47.42a1.89,1.89,0,0,0,.18.61c3.43,4.54,3.77,9.59,2.46,14.92l-1.28,3.09c-.49.21-.49.64-.53,1.08-.24,2.5.61,4.84,1.06,7.23,1.17,6.15-.19,9.46-5.36,12.94-1.46,1-3.23,1.66-4,3.46a7.94,7.94,0,0,0-1.24,2.95,2,2,0,0,1,0,.92,2,2,0,0,0,0-.92c-2.78,4.49-3.05,9-.37,13.67a3.85,3.85,0,0,0,.84,1.79l0,5.19c-.88,1.63-.75,3.51-1.27,5.23-1.19,7.69-5.51,14-9.17,20.6a89.78,89.78,0,0,0-6.54,13.36,51.67,51.67,0,0,0-5.23,13.15c-.88,3.28-.3,6.64-.39,10h0c0,2.45,0,4.91,0,7.37l-.06.83-.84,2.65a11.49,11.49,0,0,1,.83,1.49,15.12,15.12,0,0,1,.63,1.57,15.12,15.12,0,0,0-.63-1.57,11.49,11.49,0,0,0-.83-1.49c-1.72,3.29-1.07,7-1.74,10.45.3.43.6.86.89,1.3h0c-.29-.44-.59-.87-.89-1.3-1,1,0,2.28-.77,3.42a22.46,22.46,0,0,1-4.84,5.74,5.08,5.08,0,0,0-.78.37,55.2,55.2,0,0,0-13.47,13.33,5.54,5.54,0,0,0-1,4.36c1.14,4.92.74,9.92.85,14.89h0L141,473.5q-1.07,2-2.15,3.9a1.5,1.5,0,0,0,0,.42,2.63,2.63,0,0,0-.88,1.75l.38.19c.13.06.25.11.37.18-.12-.07-.24-.12-.37-.18l-.38-.19c-1.4,2.06-2.77,4.15-4.21,6.18-3,4.24-6.25,8.27-7.71,13.48a45,45,0,0,0-1.53,11.62c0,.31.26.63.4.95a32.19,32.19,0,0,0,1.3,10.64c1.48,4.38,4.35,8.08,6.08,12.34a2,2,0,0,0,1.65,1.26c1.51.1,2.94.75,4.48.54l10.4.07c4.6,1,9.29,1,14,1.27,7.87-.26,15.72.54,23.6.55,2.84,0,5.75.17,8.62.41,4.19.34,8.33,1.41,12.59.83a11.53,11.53,0,0,1,3.89.08c3.51.76,6.83.05,10.14-1h0l.79,0h4.79V22A4.69,4.69,0,0,0,224.58,21.52Zm-3.46,512.86c-1.1-1.31-1.34-3-1.72-4.53.38,1.57.62,3.22,1.72,4.53a2,2,0,0,1,.31,1.68A2,2,0,0,0,221.12,534.38Zm.28,1.85c-.05.23-.1.46-.14.69C221.3,536.69,221.35,536.46,221.4,536.23Zm-85.54-15.74c.12.15.27.3.37.45h0C136.13,520.79,136,520.64,135.86,520.49Zm30.22-117.2c0,.59.11,1.18.17,1.77.19,1.77.41,3.54.43,5.3h0c0-1.76-.24-3.53-.43-5.3-.06-.59-.12-1.18-.17-1.77s-.09-1.17-.1-1.76C166,402.12,166,402.71,166.08,403.29ZM166.26,258h0a1.77,1.77,0,0,0-.13-.56,1.77,1.77,0,0,1,.13.56ZM40.32,162.3a.68.68,0,0,0,0-.21A.68.68,0,0,1,40.32,162.3Zm-6.81-13.6-.88-1.29.88,1.29c.15.43.31.85.46,1.27C33.82,149.55,33.66,149.13,33.51,148.7ZM130.56,20.55c.87,0,1.26.26,1.36.76-.1-.5-.49-.8-1.36-.76a1.29,1.29,0,0,0-1.41-.84A1.29,1.29,0,0,1,130.56,20.55Zm7.47,1c0,.13-.05.26-.07.38,0-.12,0-.25.07-.38.37-1.06.24-1.51-.12-1.68a1.13,1.13,0,0,0-.43-.09,1.13,1.13,0,0,1,.43.09C138.27,20.05,138.4,20.5,138,21.56ZM205.47,531h0Zm-59.26-21h0a.82.82,0,0,0,.44-.62A.82.82,0,0,1,146.21,510ZM142,508.13v0Zm-.23.57h0a2.44,2.44,0,0,1,2-.13A2.44,2.44,0,0,0,141.81,508.7Zm.5,3.13a2.11,2.11,0,0,1-.05-.35,2.11,2.11,0,0,0,.05.35Zm36.51-135.07a.65.65,0,0,0-.22.16A.65.65,0,0,1,178.82,376.76Zm13.83-161.32a2.83,2.83,0,0,1,0-.29A2.83,2.83,0,0,0,192.65,215.44Zm1,4.61h0c0,.23,0,.47,0,.7C193.69,220.52,193.67,220.28,193.7,220.05Zm-.91-5.63h0l-1.68-1.78c-.17-.43-.33-.85-.49-1.28l-.9-1.27a10.47,10.47,0,0,1,.06,1.22,10.47,10.47,0,0,0-.06-1.22c-.31-1-.82-1.93-1.1-2.92.28,1,.79,1.93,1.1,2.92l.9,1.27c.16.43.32.85.49,1.28l1.68,1.78c1.11.87,2.06,1.9,3.09,2.86C194.85,216.32,193.9,215.29,192.79,214.42ZM139.26,27.2h0l.3,0Zm-1.93-3.66.22.16h0Zm-.24-.5a1.17,1.17,0,0,1,.36-.72h0A1.14,1.14,0,0,0,137.09,23Zm-.48-.77-.07,0Zm-.21-.13a.88.88,0,0,1-.22-.25A.88.88,0,0,0,136.4,22.14Zm3,5.59h0Zm0,.31a.71.71,0,0,1-.1.14A.71.71,0,0,0,139.4,28ZM195,32.41a.43.43,0,0,1-.16.24.43.43,0,0,0,.16-.24,2.62,2.62,0,0,0,.14-.55A2.62,2.62,0,0,1,195,32.41Zm3.18,482.15c-.19-.2-.49-.36-.58-.58a4.53,4.53,0,0,1-1.38-1.23,9.05,9.05,0,0,0-1.24-1.38,3.36,3.36,0,0,1-2.26-.54,5.5,5.5,0,0,1-.87-.74,9.89,9.89,0,0,1-.78-.9l-.44-.44a3.38,3.38,0,0,1-.65-.44,3.38,3.38,0,0,0,.65.44l.44.44a9.89,9.89,0,0,0,.78.9,5.5,5.5,0,0,0,.87.74,3.36,3.36,0,0,0,2.26.54,9.05,9.05,0,0,1,1.24,1.38,4.53,4.53,0,0,0,1.38,1.23C197.68,514.2,198,514.36,198.17,514.56ZM167,412.31a1.51,1.51,0,0,1,0,.52A1.51,1.51,0,0,0,167,412.31Zm24.18-70.86.78.51-.78-.51a7.3,7.3,0,0,0-.55-.64A7.3,7.3,0,0,1,191.13,341.45Zm-.21-6.77h0ZM176.52,224.8c.13-.58.31-1.16-.28-1.63-1.13.18-1.6.19-2.09-.08.49.27,1,.26,2.09.08l0-.49h0l0,.49C176.83,223.64,176.65,224.22,176.52,224.8Zm-7.09,10.89a2.86,2.86,0,0,1,0-.71A2.86,2.86,0,0,0,169.43,235.69ZM123.85,246.1l-.24-.35h0ZM125,247a1.31,1.31,0,0,1-.54-.27A1.31,1.31,0,0,0,125,247Zm-.62-.33h0ZM53.12,160.85a1.57,1.57,0,0,0-.44.28,1.57,1.57,0,0,1,.44-.28,4.39,4.39,0,0,1,1-.48A4.39,4.39,0,0,0,53.12,160.85Zm-33.07-8.76v.49c.34.74.69,1.47,1,2.2-.34-.73-.69-1.46-1-2.2ZM96.78,50.3a.51.51,0,0,1-.3.22A.51.51,0,0,0,96.78,50.3Zm36-22.23a2.84,2.84,0,0,0,0-.41A2.84,2.84,0,0,1,132.78,28.07Zm0,1.28a1.3,1.3,0,0,0,.54.29,1.3,1.3,0,0,1-.54-.29c0-.28,0-.56,0-.85C132.73,28.79,132.74,29.07,132.76,29.35Zm88.33,93.18Zm.31,274.83h0Zm-69.34,84.32a4.72,4.72,0,0,0,.5.71,4.72,4.72,0,0,1-.5-.71,7.52,7.52,0,0,1-.43-.79A7.52,7.52,0,0,0,152.06,481.68Zm19.86-62.62c-.11-.49-.25-1-.35-1.46.1.49.24,1,.35,1.46ZM187.43,367a.52.52,0,0,0,0,.11A.52.52,0,0,1,187.43,367Zm.36,1.19c.36.49.73,1,1.1,1.45l.43.45,1.19-.3h0a2,2,0,0,1,1.19.14,2,2,0,0,0-1.19-.14l-1.19.31c-.14-.16-.29-.31-.43-.46-.37-.48-.74-1-1.1-1.45Zm13.66-102.07.16.18h0l-.16-.18Zm-27.81-70.4h0a2.46,2.46,0,0,1,.59,2.72A2.46,2.46,0,0,0,173.64,195.71Zm-2.19.87a11.11,11.11,0,0,1-3-1.71,3.18,3.18,0,0,1-2.1-1.73c-.2-.31-.38-.63-.59-.94.21.31.39.63.59.94a3.18,3.18,0,0,0,2.1,1.73,11.11,11.11,0,0,0,3,1.71c.11.3.21.6.32.91C171.66,197.18,171.56,196.88,171.45,196.58ZM55.71,171.74h0c0-.63,0-1.26.86-1.33a1,1,0,0,0-.25-.82,1,1,0,0,1,.25.82l0,0h0l0,0C55.71,170.48,55.71,171.11,55.71,171.74Zm-5-44.81a1.62,1.62,0,0,1,.11.46,1.62,1.62,0,0,0-.11-.46c-.06-.15-.14-.31-.22-.47l-1.75.43h0a36,36,0,0,1-3.85.45,36,36,0,0,0,3.85-.45l1.75-.43C50.58,126.62,50.66,126.78,50.72,126.93Zm-18.48,11.3Zm-5.79-6.94a7.78,7.78,0,0,0,.07-.82A7.78,7.78,0,0,1,26.45,131.29Zm-1.05-4.63a5.92,5.92,0,0,1,1.12,3.79A5.92,5.92,0,0,0,25.4,126.66Zm-1.18,2.44a8.29,8.29,0,0,1,.51-1.83A8.29,8.29,0,0,0,24.22,129.1ZM78.86,36.16a3.39,3.39,0,0,1-.45-.53A3.39,3.39,0,0,0,78.86,36.16ZM157.8,56.67c0-.33.47-.87.56-1.24h0C158.27,55.8,157.8,56.34,157.8,56.67Zm-1-2a.92.92,0,0,0,.5.69A.92.92,0,0,1,156.78,54.63Zm.77.79h0ZM165,67.24h0a10.55,10.55,0,0,1-1.3-1.19,10.55,10.55,0,0,0,1.3,1.19Zm35.3-4.81a1.28,1.28,0,0,1,1.23-.19,1.28,1.28,0,0,0-1.23.19,1.34,1.34,0,0,1-.56-1.35A1.34,1.34,0,0,0,200.25,62.43Zm20.84,246h-.86l-.12.35.12-.35h.86ZM178,463h0v.44h0Zm14.79-123.2a2.35,2.35,0,0,1,.73.35A2.35,2.35,0,0,0,192.8,339.83Zm9.4-68.76a11.09,11.09,0,0,0,.07,1.15A11.09,11.09,0,0,1,202.2,271.07Zm0-.6a4.84,4.84,0,0,1,.19-1.19h0A4.84,4.84,0,0,0,202.21,270.47Zm-.67-37.86c-.09.28-.17.58-.25.88l-.21.89c-.07.3-.14.6-.22.9.08-.3.15-.6.22-.9l.21-.89c.08-.3.16-.6.25-.88a5.21,5.21,0,0,1,2.12-3c.14-.29.21-.66.37-.92-.16.26-.23.63-.37.92A5.21,5.21,0,0,0,201.54,232.61ZM183.69,190l.39.92a3,3,0,0,1,1,1.49c.09.22.17.45.24.68-.07-.23-.15-.46-.24-.68a3,3,0,0,0-1-1.49h0l-.39-.92a3.21,3.21,0,0,1,0-1,5.32,5.32,0,0,1,.28-.94,5.32,5.32,0,0,0-.28.94A3.21,3.21,0,0,0,183.69,190Zm-10.45,29.17h0Zm-28.76,6.17a3.18,3.18,0,0,1-.47-2,3.18,3.18,0,0,0,.47,2Zm-31.35-28.62a1.06,1.06,0,0,1,0,.7h0A1.06,1.06,0,0,0,113.13,196.73ZM71.34,172l-1.24-1.54a2.18,2.18,0,0,1,.62.16,2.18,2.18,0,0,0-.62-.16ZM57.67,141.1a4,4,0,0,0-.4-.27A4,4,0,0,1,57.67,141.1Zm.16.16a1.06,1.06,0,0,0-.15-.15A1.06,1.06,0,0,1,57.83,141.26ZM63.44,48h0l.22.11h0L63.44,48l-3.8-.38-1-.65,1,.65Zm11.5-12.3a1.06,1.06,0,0,0,.29.74A1.06,1.06,0,0,1,74.94,35.71Zm3,.68a.9.9,0,0,1,.22.61A.9.9,0,0,0,78,36.39ZM139,69.44c-.31-.47-.75-.89-1.08-1.35l-.46.08.46-.08C138.26,68.55,138.7,69,139,69.44ZM194.1,93.81c1.88.9,3.35,2.37,5.23,3.91-1.88-1.54-3.35-3-5.23-3.91a30.61,30.61,0,0,1-3.42-2.2A32.11,32.11,0,0,0,194.1,93.81Zm-.88-38.36h0c.59-.19,1.28.45,1.84.33-.56.12-1.25-.52-1.84-.33a1.25,1.25,0,0,0-.29.34A1.25,1.25,0,0,1,193.22,55.45Zm8,10.48c0,.14-.06.29-.08.43a6.46,6.46,0,0,0-.61,1.44,6.46,6.46,0,0,1,.61-1.44C201.12,66.22,201.15,66.07,201.18,65.93ZM163.06,187.56a6.76,6.76,0,0,1-1.61-1l-.87-.89h0c0-.16,0-.32,0-.48,0,.16,0,.32,0,.48l.87.89a6.76,6.76,0,0,0,1.61,1,4.06,4.06,0,0,1,.79.5A4.06,4.06,0,0,0,163.06,187.56Zm-3.12-.63a.7.7,0,0,1,.25-1A.7.7,0,0,0,159.94,186.93ZM143.47,219.3a1,1,0,0,1,0-.34,2.21,2.21,0,0,1,.06-.34c.16-.58.46-1.19-.25-1.64h0c.71.45.41,1.06.25,1.64a2.21,2.21,0,0,0-.06.34A1,1,0,0,0,143.47,219.3Zm-4.22,2.53c-.35.58-.72,1.14-1.1,1.7.38-.56.75-1.12,1.1-1.7h0c-.15-.06-.38-.17-.5-.2.12,0,.35.14.5.2Zm-35.66-18.31a1.28,1.28,0,0,0-.68-.26,1.28,1.28,0,0,1,.68.26,2.44,2.44,0,0,1,.84-1.88A2.44,2.44,0,0,0,103.59,203.52Zm-72.43-69c0-.27-.1-.54-.16-.81C31.06,134,31.12,134.23,31.16,134.5ZM55.28,53.7A13.75,13.75,0,0,1,61.15,52a13.75,13.75,0,0,0-5.87,1.72,2.44,2.44,0,0,0-.5,1.11A2.44,2.44,0,0,1,55.28,53.7ZM59.18,48v0Zm52.3,16a.57.57,0,0,0,0,.22A.57.57,0,0,1,111.48,64Zm0,0a.41.41,0,0,1,0-.16A.41.41,0,0,0,111.48,63.91Zm82.77-6.41c-.23-.17-.74-.47-1-.67a1,1,0,0,1-.38-.69,1,1,0,0,0,.38.69C193.51,57,194,57.33,194.25,57.5Zm5.62,28h0a7.59,7.59,0,0,0-3.3-1.09A7.59,7.59,0,0,1,199.87,85.49Zm8.15,7h0c.17,0,.29.21.42.34C208.31,92.72,208.19,92.54,208,92.51Zm2.65,17.7a2.72,2.72,0,0,1,0,.49,1.16,1.16,0,0,1-.12.45,1.16,1.16,0,0,0,.12-.45A2.72,2.72,0,0,0,210.67,110.21Zm3,20.17h0a14.71,14.71,0,0,0,1.26,1.11A14.71,14.71,0,0,1,213.7,130.38Zm.44,22.2a1.23,1.23,0,0,0-.35,0,1.23,1.23,0,0,1,.35,0Zm-5.72,17.28a7.78,7.78,0,0,0,.46,2.34h0A7.78,7.78,0,0,1,208.42,169.86Zm5.7,9.29h0a2.61,2.61,0,0,1,.24.23A2.61,2.61,0,0,0,214.12,179.15ZM201.87,202l1,.69h0Zm-17.18-5.29a6,6,0,0,0-.16-1.59A6,6,0,0,1,184.69,196.7Zm-.15,3.32a1.48,1.48,0,0,0,.46-1.28,1.48,1.48,0,0,1-.46,1.28Zm-46.13,14.37a1.41,1.41,0,0,0,.87-1.49,1.41,1.41,0,0,1-.87,1.49Zm-2.85-2.31a.19.19,0,0,0,0,.08A.19.19,0,0,1,135.56,212.08Zm2.18,1.17,0,0ZM94.37,170.9a2.3,2.3,0,0,0,.08-.91,4.85,4.85,0,0,1-.41-.3,4.85,4.85,0,0,0,.41.3A2.3,2.3,0,0,1,94.37,170.9ZM80.53,182.26a1.82,1.82,0,0,0,.43-.51h0a1.82,1.82,0,0,1-.43.51,2.57,2.57,0,0,1-.54.34A2.57,2.57,0,0,0,80.53,182.26Zm.43-.51a3.8,3.8,0,0,1-.07-.72,3.8,3.8,0,0,0,.07.72Zm-34.09-60c-.63-.06-1.25-.06-1.85-.06C45.62,121.68,46.24,121.68,46.87,121.74Zm-5.09-.94c-.62-.62-.72-1-.56-1.24-.16.24-.06.62.56,1.24ZM47,68.88a1.25,1.25,0,0,0,.63.49,1.25,1.25,0,0,1-.63-.49c-.17-.23-.31-.5-.46-.75a1.13,1.13,0,0,1-.42-.78,1.13,1.13,0,0,0,.42.78C46.68,68.38,46.82,68.65,47,68.88Zm68.35,4a2.29,2.29,0,0,1,0,.64A2.74,2.74,0,0,0,115.34,72.87Zm0,1.29h0a6.71,6.71,0,0,1,1.58-.8,6.71,6.71,0,0,0-1.58.8l-.09,0Zm7.45-3.47h0a2,2,0,0,1-.15,1.39A2,2,0,0,0,122.78,70.69Zm13,3.94c.3-.21.41-.08.5.09s.08.19.13.26-.08-.17-.13-.26-.2-.3-.5-.09a2,2,0,0,1-.93-.92A2,2,0,0,0,135.81,74.63Zm19.48-9.24a1.25,1.25,0,0,0-1.16-.78.37.37,0,0,1,.1-.17.37.37,0,0,0-.1.17A1.25,1.25,0,0,1,155.29,65.39Zm7.94,12.75c0,.22,0,.46,0,.68,0-.22,0-.46,0-.68a1.36,1.36,0,0,0,.23-.54.24.24,0,0,0-.14-.25.24.24,0,0,1,.14.25A1.36,1.36,0,0,1,163.23,78.14Zm3.92,13.45a3.75,3.75,0,0,0,2.39,1.88,3.75,3.75,0,0,1-2.39-1.88c-1.35-2.94-3.55-5.29-5.46-7.84C163.6,86.3,165.8,88.65,167.15,91.59Zm40.47,132a8.63,8.63,0,0,0,.63-6.41,8.63,8.63,0,0,1-.63,6.41Zm-23.16-58.43c.24-.17.51,0,.78.12C185,165.13,184.7,165,184.46,165.16Zm-4.24,24.89c0-.27-.11-.64,0-.91h0C180.11,189.41,180.25,189.78,180.22,190.05Zm-2.55-16.22a.81.81,0,0,0,0,.34A.81.81,0,0,1,177.67,173.83Zm.35,1h0a.87.87,0,0,1-.36-.45A.87.87,0,0,0,178,174.79Zm.84-.92a.71.71,0,0,1,.63.36.71.71,0,0,0-.63-.36Zm.82,1.83a1.45,1.45,0,0,1-.09-.57A1.45,1.45,0,0,0,179.68,175.7Zm-.13-1.3h0ZM181,186.1a1.23,1.23,0,0,0,.74.46,1.23,1.23,0,0,1-.74-.46,1.06,1.06,0,0,0-.4-.22A1.06,1.06,0,0,1,181,186.1Zm-2.08.8a1.13,1.13,0,0,0-.06-.36h0A1.13,1.13,0,0,1,179,186.9Zm1.28-1.08h0Zm1.72,7.24h0a6.86,6.86,0,0,0,.25,2.21A6.86,6.86,0,0,1,182,193.06Zm1.25-9.51a.33.33,0,0,1,.22.24A.33.33,0,0,0,183.2,183.55Zm-1.28-.09h0c.33.11.85,0,1.19,0C182.77,183.43,182.24,183.57,181.92,183.46Zm-.88-7.81-.84.43a4.76,4.76,0,0,0-.6,1.59,4.76,4.76,0,0,1,.6-1.59.67.67,0,0,1-.41-.21.67.67,0,0,0,.41.21l.84-.43c.14-.2.26-.48.45-.58C181.3,175.17,181.18,175.45,181,175.65Zm-2.82-23.93c0-1.44-.23-2.89-.22-4.34l-.6,0,.6,0C178,148.83,178.2,150.28,178.22,151.72Zm-5.92,4.55a2.34,2.34,0,0,0,0,.46A2.34,2.34,0,0,1,172.3,156.27ZM66.44,154.55a1,1,0,0,0,.46.16A1,1,0,0,1,66.44,154.55Zm1,.2h0l-.43.44ZM78.34,144.3ZM64.73,105.08c.18.76.33,1.64.56,2.65a4.72,4.72,0,0,0,.35.52,4.72,4.72,0,0,1-.35-.52C65.06,106.72,64.91,105.84,64.73,105.08Zm4.43-47c.33-.61.67-1.23.18-1.55a1.72,1.72,0,0,0-.8-.19,1.72,1.72,0,0,1,.8.19c.49.32.15.94-.18,1.54a12.72,12.72,0,0,1-2.19,2A13.08,13.08,0,0,0,69.16,58.1Zm13.54-.46c.21,0,.44,0,.65,0-.21,0-.44,0-.65,0Zm36.52,14a.5.5,0,0,0-.11-.17.5.5,0,0,1,.11.17,3.48,3.48,0,0,1-1.6.43A3.48,3.48,0,0,0,119.22,71.61Zm24.61,16.56a10.09,10.09,0,0,1,2,0h0a10.09,10.09,0,0,0-2,0,2.93,2.93,0,0,1-1.93-.46,2.47,2.47,0,0,0-1.31-.39,4,4,0,0,1-2.22-.43l-.9-.45.9.45a4,4,0,0,0,2.22.43,2.47,2.47,0,0,1,1.31.39A2.93,2.93,0,0,0,143.83,88.17ZM173.34,91a2.65,2.65,0,0,0-.06-.42,1.57,1.57,0,0,0-.38-.69,1.57,1.57,0,0,1,.38.69A2.65,2.65,0,0,1,173.34,91Zm0,0a3.41,3.41,0,0,1-.12,1l.09,0-.09,0A3.41,3.41,0,0,0,173.34,91.06Zm35.14,123.06c-.21-.26-.41-.54-.61-.8C208.07,213.58,208.27,213.86,208.48,214.12Zm2.17,1.15a2.55,2.55,0,0,1-.57,0,2.55,2.55,0,0,0,.57,0l.22.23Zm-28.66-60a4.6,4.6,0,0,1-.84-.09,4.6,4.6,0,0,0,.84.09Zm-14.31-1.91a17.8,17.8,0,0,1,.68,3.53l-.6,1,.6-1A17.8,17.8,0,0,0,167.68,153.35Zm-31.88-29a1.32,1.32,0,0,1,0-.44,1.32,1.32,0,0,0,0,.44ZM57,57.74a2,2,0,0,0,0-.53A2,2,0,0,1,57,57.74ZM160.89,91.09a1.43,1.43,0,0,1,.14-.76h0A1.43,1.43,0,0,0,160.89,91.09Zm1.44,4.1-.42-.09a1.57,1.57,0,0,1-.57.39,1.57,1.57,0,0,0,.57-.39Zm1.79-.57c-.17.17-.22.45-.07.94h0C163.9,95.07,164,94.79,164.12,94.62Zm33,62.29a2.61,2.61,0,0,1-.24-.22,2.61,2.61,0,0,0,.24.22Zm.38-4a1.67,1.67,0,0,1-.21-.69A1.67,1.67,0,0,0,197.52,152.89Zm-1.08,2.72a1.3,1.3,0,0,0,.14.65A1.3,1.3,0,0,1,196.44,155.61Zm1.86-2.86a1.06,1.06,0,0,1-.71.26h0A1.06,1.06,0,0,0,198.3,152.75Zm-2.86-5c1.27,0,2,.51,2.15,1.55C197.43,148.26,196.71,147.75,195.44,147.74Zm-3.91,10.08c-.05.51,0,1.06-.08,1.54a1.7,1.7,0,0,1-.19.66,1.7,1.7,0,0,0,.19-.66c.07-.48,0-1,.08-1.54l1.23-.64Zm-4.78,1.27c0-.25,0-.54,0-.85a2.26,2.26,0,0,1-.48-.1,2.26,2.26,0,0,0,.48.1C186.74,158.55,186.75,158.84,186.75,159.09ZM147.1,144.83h0a11.5,11.5,0,0,1-2-2.29A11.5,11.5,0,0,0,147.1,144.83ZM77,149.54a4.61,4.61,0,0,0-.83,0,4.61,4.61,0,0,1,.83,0h0Zm-1.13,0a1.49,1.49,0,0,1-.55-.1A1.49,1.49,0,0,0,75.89,149.55ZM93.7,149a2.47,2.47,0,0,0-.08.43A2.47,2.47,0,0,1,93.7,149Zm-3.17-2.06h0c.52,0,1-.11,1.54-.19C91.56,146.81,91.05,146.87,90.53,146.92Zm-6.35-1.74a6.3,6.3,0,0,1,1.72-.35A6.3,6.3,0,0,0,84.18,145.18Zm5.55,19.19a1.28,1.28,0,0,0,.74-.23,1.28,1.28,0,0,1-.74.23,7.52,7.52,0,0,1-1.25,1.77A7.52,7.52,0,0,0,89.73,164.37Zm4.44-4.93a1.49,1.49,0,0,1,.28-.77h0A1.49,1.49,0,0,0,94.17,159.44ZM100,146.55h0Zm.28.19a.45.45,0,0,1,.1.27,1.16,1.16,0,0,1-.1.41,1.16,1.16,0,0,0,.1-.41A.45.45,0,0,0,100.29,146.74ZM89.7,119.57a13.51,13.51,0,0,0,3.48,1.2,1.08,1.08,0,0,1,.69.23,1.09,1.09,0,0,0-.7-.23A13.57,13.57,0,0,1,89.7,119.57ZM83.12,65.41a5,5,0,0,1-2.6-1.21,2,2,0,0,0-.25.14,2,2,0,0,1,.25-.14A5,5,0,0,0,83.12,65.41Zm-3.43-.58a2.35,2.35,0,0,1,.33-.3A2.35,2.35,0,0,0,79.69,64.83Zm-.21.26a2.34,2.34,0,0,0-.3.56A2.34,2.34,0,0,1,79.48,65.09Zm24.38,10a1.51,1.51,0,0,1,.31,0,1.51,1.51,0,0,0-.31,0c-.47.08-.72.39-.36,1.34h0C103.14,75.49,103.39,75.18,103.86,75.1Zm59.35,27.56a.86.86,0,0,1,.3-.45A.86.86,0,0,0,163.21,102.66Zm-6.26-1.2.16,0Zm-4.19,27.18c0,.43,0,.86,0,1.29l1.24,2.25h0l-1.24-2.25C152.78,129.5,152.76,129.07,152.76,128.64Zm1.52,0v0Zm2.4-23.45a3.19,3.19,0,0,1-.81-1.35,3.19,3.19,0,0,0,.81,1.35,18.06,18.06,0,0,1,1.69.88A18.06,18.06,0,0,0,156.68,105.19Zm-9.15,25.63a7.75,7.75,0,0,0,1.32,2.18,9,9,0,0,0,1.76,4.6,9,9,0,0,1-1.76-4.6A7.75,7.75,0,0,1,147.53,130.82Zm9.15-34a2.34,2.34,0,0,0-.46,0c-.15,0-.31,0-.46,0,.15,0,.31,0,.46,0a2.34,2.34,0,0,1,.46,0,2.58,2.58,0,0,1,.51-.7A2.58,2.58,0,0,0,156.68,96.84Zm-3-8.39c-.44-.39-.88-.78-1.31-1.18.43.4.87.79,1.31,1.18.93-1.17,1.83-.51,2.74-.11C155.48,87.94,154.58,87.28,153.65,88.45ZM145,92.08c.11.23-.09.7-.09,1,0-.3.2-.77.09-1a29,29,0,0,0,4.42-.86A29,29,0,0,1,145,92.08Zm0,1.26a.21.21,0,0,1-.1-.15A.21.21,0,0,0,145,93.34Zm-38.33,29.34.84-.16a6.14,6.14,0,0,1,2.09-.7,6.14,6.14,0,0,0-2.09.7Zm-8.25-.2h0a26.27,26.27,0,0,0,6.91.46h0A26.27,26.27,0,0,1,98.41,122.48Zm11-29.11a4,4,0,0,0,1.07.2,4,4,0,0,1-1.07-.2,8.25,8.25,0,0,1-1.08-.45c-.27-.31-.45-.71-.69-1,.24.34.42.74.69,1A8.25,8.25,0,0,0,109.46,93.37ZM113.55,90a1.5,1.5,0,0,0-.13-.58A1.5,1.5,0,0,1,113.55,90Zm-.06.68a1.36,1.36,0,0,0,.25-.22,1.36,1.36,0,0,1-.25.22Zm1.37-2.16Zm-15,20.73a5.2,5.2,0,0,0-2.39,1.93h0A5.2,5.2,0,0,1,99.88,109.27Zm4.36,8.67a4,4,0,0,1-1.08.24h0a1.16,1.16,0,0,1-.4.67,1.16,1.16,0,0,0,.4-.67h0a4,4,0,0,0,1.08-.24c.35-.12.7-.27,1.05-.4C104.94,117.67,104.59,117.82,104.24,117.94Zm2-33.77Zm6.85,6.89h0c-.18.41-.4.55-.64.53C112.71,91.61,112.93,91.47,113.11,91.06Zm-9.21-14.3a1.33,1.33,0,0,0,.43.13h0A1.33,1.33,0,0,1,103.9,76.76Zm-5.54,43.58c.28-.39.91-.39,1.43-.53-.52.14-1.15.14-1.43.53-.86,0-1.72,0-2.58,0C96.64,120.36,97.5,120.34,98.36,120.34Zm.86.43a.72.72,0,0,0-.16-.21.72.72,0,0,1,.16.21l-1.7,0ZM120.63,122c.53.15,1.05.31,1.57.48a16.75,16.75,0,0,1,2.29.9,5.3,5.3,0,0,0,.69,0,5.3,5.3,0,0,1-.69,0,16.75,16.75,0,0,0-2.29-.9c-.52-.17-1-.33-1.57-.48l-1.59-.47Zm3.85-5.16a2.69,2.69,0,0,0-.43-1.13,2.69,2.69,0,0,1,.43,1.13,9.61,9.61,0,0,0,3.89.63A9.61,9.61,0,0,1,124.48,116.87Zm6.12-35.4a5.47,5.47,0,0,1,1.71.57v0A5.47,5.47,0,0,0,130.6,81.47ZM107,73.79c.22.25.4.54.6.81h0C107.37,74.33,107.19,74,107,73.79ZM95.31,121.6a3.71,3.71,0,0,1,1-.53,3.71,3.71,0,0,0-1,.53h0l-1-.31Zm19.79,17.33c-.26.1-.53.19-.81.28C114.57,139.12,114.84,139,115.1,138.93Zm-5.16-17.13a2.65,2.65,0,0,1,.68.06A2.65,2.65,0,0,0,109.94,121.8Zm17.87,1c.63-.23,1.26-.5,1.89-.73a1.9,1.9,0,0,0,.1-.44,1.9,1.9,0,0,1-.1.44C129.07,122.33,128.44,122.6,127.81,122.83Zm10.6-8.13Zm6.47,7.92a6.28,6.28,0,0,1,0,1.62,6.28,6.28,0,0,0,0-1.62Zm.07,9h0a2.63,2.63,0,0,0-.42,1.3A2.63,2.63,0,0,1,145,131.67ZM159.68,146a9.73,9.73,0,0,0-1.32.07A9.73,9.73,0,0,1,159.68,146ZM164,101.66a1.54,1.54,0,0,1-.47.55,1.54,1.54,0,0,0,.47-.55,7,7,0,0,1-1-.12A7,7,0,0,0,164,101.66Zm5.56,7.5a1,1,0,0,1,.19.75h0A1,1,0,0,0,169.55,109.16Zm23.67,23.41a2.6,2.6,0,0,1,.05.39c.36.19.65.5,1,.7a1.08,1.08,0,0,0,.29.13,1.08,1.08,0,0,1-.29-.13c-.35-.2-.64-.51-1-.7A2.6,2.6,0,0,0,193.22,132.57Zm-22.61-14c-.11.58,0,1.18,0,1.76a1.83,1.83,0,0,0-.46,1.52,1.83,1.83,0,0,1,.46-1.52C170.65,119.75,170.5,119.15,170.61,118.57Zm7.58,3.67c-.44-.63,0-1.26.25-1.9h0C178.2,121,177.75,121.61,178.19,122.24Zm.24.27h0c0,.15,0,.3,0,.45l.22-.09-.22.09ZM176.06,117a.45.45,0,0,1,.4.22A.45.45,0,0,0,176.06,117Zm-1.1.29a4.63,4.63,0,0,1,.79-.27,4.63,4.63,0,0,0-.79.27,2.71,2.71,0,0,1,0-.57A2.71,2.71,0,0,0,175,117.31Zm-2.38,2.82a3.06,3.06,0,0,1,0-.74A3.06,3.06,0,0,0,172.58,120.13Zm0,.07c.06.5.18,1,.23,1.48h0C172.77,121.19,172.65,120.7,172.59,120.2Zm5.24,7.77.21.21.4,0-.4,0Zm.92,2.25c-.09,0-.15,0-.17.09S178.66,130.22,178.75,130.22Zm-1.16-20.33h0l-.39-.74.39.74c.55.26.74.18.81,0C178.33,110.07,178.14,110.15,177.59,109.89Zm-1.75,21.35a9.15,9.15,0,0,1,2.33,2.8,11.34,11.34,0,0,1,.88,2.17,11.34,11.34,0,0,0-.88-2.17,9.15,9.15,0,0,0-2.33-2.8ZM195.24,158a2,2,0,0,1-.25-.62A2,2,0,0,0,195.24,158Zm-.63-10.16h0Zm-16.19-38.74h0l-1.72-2.18ZM182,149.88a.8.8,0,0,1,.21.2A.8.8,0,0,0,182,149.88ZM180.63,148c.15.21.29.46.43.64,0-.68.15-1,.43-1.16-.28.15-.46.48-.43,1.16C180.92,148.46,180.78,148.21,180.63,148Zm1.34-.65h0Zm9.17,12.86a1.36,1.36,0,0,1-.37.29A1.36,1.36,0,0,0,191.14,160.21Zm2.14-27.69a2.51,2.51,0,0,1,0-.27,2,2,0,0,0,0,.26,3.05,3.05,0,0,1,1.87.6A3,3,0,0,0,193.28,132.52Zm.15-.57.07-.08Zm0,.05-.16.13h0Zm-5.33-7a3.64,3.64,0,0,1-.14-.79A3.64,3.64,0,0,0,188.06,125Zm-9.25-19.59-.36.19h0l.36-.19a6,6,0,0,0,.64-.44A6,6,0,0,1,178.81,105.36ZM168.44,99a1.24,1.24,0,0,1-.21-.27,1.24,1.24,0,0,0,.21.27,13.32,13.32,0,0,0,1,1.08A13.32,13.32,0,0,1,168.44,99Zm-2.16,2.22a2,2,0,0,1-1,.37,2,2,0,0,0,1-.37c.43.28.72.35.9.28C167,101.59,166.71,101.52,166.28,101.24Zm-2.09-6.66a1,1,0,0,1,.38-.17A1,1,0,0,0,164.19,94.58Zm-6.21-3c-.2-.34-.35-.6-.45-.8a.63.63,0,0,1-.09-.42.63.63,0,0,0,.09.42c.1.2.25.46.45.8a7,7,0,0,0,1.53,2.23A7,7,0,0,1,158,91.62Zm-.86-7.38h0a1.7,1.7,0,0,1,1.17.9A1.7,1.7,0,0,0,157.12,84.24Zm-5.69-.43a22.6,22.6,0,0,0,3.08,2.48,8.91,8.91,0,0,0,1.41.72,8.91,8.91,0,0,1-1.41-.72,22.6,22.6,0,0,1-3.08-2.48,5.84,5.84,0,0,0-2,.65A5.84,5.84,0,0,1,151.43,83.81Zm-8.79,10.73a6.87,6.87,0,0,1-.89.5,4.13,4.13,0,0,0-.85.55,4.13,4.13,0,0,1,.85-.55A6.87,6.87,0,0,0,142.64,94.54Zm-2,1.43a2.1,2.1,0,0,1-.54-.57,2.1,2.1,0,0,0,.54.57,1.38,1.38,0,0,1,.24-.3A1.38,1.38,0,0,0,140.59,96ZM134.06,82.9c-.25-1.51-1.21-.19-1.77-.45h0c.56.26,1.52-1.06,1.77.45a.83.83,0,0,0,.64-.23A.83.83,0,0,1,134.06,82.9Zm-31.78-7.73a.64.64,0,0,0-.41-.08,1.89,1.89,0,0,0-.56.35,1.89,1.89,0,0,1,.56-.35A.64.64,0,0,1,102.28,75.17Zm-5.64-1.38-.74,0,.74,0Zm2.23-3.45a3.39,3.39,0,0,1-.5.37l-.28,0,.28,0a3.39,3.39,0,0,0,.5-.37c.2-.18.39-.37.58-.57C99.26,70,99.07,70.16,98.87,70.34Zm-9.21,4.3c-.23.13-.5.22-.75.33.25-.11.52-.2.75-.33a20.64,20.64,0,0,1,2.73-1.92A20.64,20.64,0,0,0,89.66,74.64ZM92.07,69l.05-.07Zm-35.83,8.1a8.17,8.17,0,0,0-.91-.71A8.17,8.17,0,0,1,56.24,77.14Zm-1.37-1.06A2.2,2.2,0,0,1,54,74.64h0A2.2,2.2,0,0,0,54.87,76.08Zm43,52.59-.17,0Zm-5.77,17.2a11.5,11.5,0,0,0-2.87,1l-.64,0,.64,0A11.5,11.5,0,0,1,92.08,145.87Zm-3.72,1c-.13-.29-.27-.55-.4-.78a2.83,2.83,0,0,0-.88-1,2.83,2.83,0,0,1,.88,1c.13.23.27.49.4.78Zm-7.15-.43-.25,0h0Zm-6.35,2.62h0c-1.08.71-2.16,1.41-3.22,2.14,1.06-.73,2.14-1.43,3.22-2.14h0a3.29,3.29,0,0,1,1.33-1.19A3.29,3.29,0,0,0,74.86,149.09Zm3,3.16a5.14,5.14,0,0,1,.94-.53,6,6,0,0,1,2.13-.46.63.63,0,0,0-.27-.65.63.63,0,0,1,.27.65,6,6,0,0,0-2.13.46,5.14,5.14,0,0,0-.94.53A5.88,5.88,0,0,0,77,153h0A5.88,5.88,0,0,1,77.87,152.25Zm7.84,1.14a5.76,5.76,0,0,1,4.07-3,5.76,5.76,0,0,0-4.07,3c-1.75.33-2.4,1.85-3.33,3.07C83.31,155.24,84,153.72,85.71,153.39Zm-.66,1a1.17,1.17,0,0,0-.41.69A1.17,1.17,0,0,1,85.05,154.43Zm1,2.55a11.89,11.89,0,0,1,.78,1.5,11.89,11.89,0,0,0-.78-1.5c-.48-.48-.84-.83-1.08-1.12C85.22,156.15,85.58,156.5,86.06,157Zm12,1.89c0-.21-.1-.42-.14-.63h0C98,158.45,98,158.66,98.07,158.87Zm13.06-17c.16-.16.32-.32.47-.49-.15.17-.31.33-.47.49l-.49.48Zm1.17-2a6.51,6.51,0,0,1,.76-.34c.27-.1.54-.19.82-.27-.28.08-.55.17-.82.27a6.51,6.51,0,0,0-.76.34,2,2,0,0,1-.3,1A2,2,0,0,0,112.3,140Zm-2.23-16.26c.36.14.62.57,1,.54h0C110.69,124.26,110.43,123.83,110.07,123.69Zm22.43,2.51a.84.84,0,0,0-.84-.06A.84.84,0,0,1,132.5,126.2Zm10.73-3.88a.56.56,0,0,0,.15.34A.56.56,0,0,1,143.23,122.32Zm.89.7h0a1.66,1.66,0,0,1-.69-.3A1.66,1.66,0,0,0,144.12,123Zm.35,11.31a21.39,21.39,0,0,0,2.94,7.47,21.39,21.39,0,0,1-2.94-7.47,13.78,13.78,0,0,1-.54-3.51A13.78,13.78,0,0,0,144.47,134.33ZM148.94,145a1.46,1.46,0,0,0,2,.27l2.59,1.39L151,145.22A1.46,1.46,0,0,1,148.94,145Zm6,.22h0c-.14.48-.35.66-.58.7C154.61,145.83,154.82,145.65,155,145.17Zm7.38.88c-.44,0-.88,0-1.33,0,.45,0,.89,0,1.33,0l1.75.43Zm33.94,12.17h0c0,.14,0,.27,0,.41C196.29,158.49,196.28,158.36,196.28,158.22Zm7.91-6,1.21-1,.06,0h0l-.06,0-1.21,1a5.29,5.29,0,0,1-2.55,2.31A5.29,5.29,0,0,0,204.19,152.2Zm.07-56.6a1.44,1.44,0,0,1,.72,1.24c-.41.41-.47.7-.33,1-.14-.25-.08-.54.33-1a1.44,1.44,0,0,0-.72-1.24c-.27-.18-.58-.32-.88-.49C203.68,95.28,204,95.42,204.26,95.6Zm-2.32-4.86a3.36,3.36,0,0,1,1-.19,3.36,3.36,0,0,0-1,.19Zm-4.2,44.83a13.85,13.85,0,0,1-1-1.28l.44-.45-.44.45A13.85,13.85,0,0,0,197.74,135.57Zm-2.53-12.09a4.92,4.92,0,0,1-.23-.81,4.92,4.92,0,0,0,.23.81c.11.3.23.59.34.88C195.44,124.07,195.32,123.78,195.21,123.48Zm-6.66-1.86a3.22,3.22,0,0,1-.1-.84h0A3.28,3.28,0,0,0,188.55,121.62ZM169.31,95.56l-.82,1.3h0a2.3,2.3,0,0,0-.93,2.08,2.3,2.3,0,0,1,.93-2.08l.82-1.3a2,2,0,0,1,1-1.18A2,2,0,0,0,169.31,95.56Zm-2.62-.9-1.3-.44a4.79,4.79,0,0,0-2.18-1.84,4.79,4.79,0,0,1,2.18,1.84l1.3.44h0a5,5,0,0,1,.49.31A5,5,0,0,0,166.69,94.66ZM166.64,92a1.49,1.49,0,0,1,.45-.32h0A1.68,1.68,0,0,0,166.64,92ZM148.82,80.73h0a5.94,5.94,0,0,1,.77-2.18A5.94,5.94,0,0,0,148.82,80.73Zm-11.46-2.61a3,3,0,0,1,.55.2A3,3,0,0,0,137.36,78.12Zm.23-3.65a.8.8,0,0,0-.93.63h0a.8.8,0,0,1,.93-.63c.18,0,.37.08.56.13C138,74.55,137.77,74.5,137.59,74.47Zm-.87,3.67a1,1,0,0,1-1-.4,9.13,9.13,0,0,1-2.37,1.19,9.13,9.13,0,0,0,2.37-1.19A1,1,0,0,0,136.72,78.14ZM135.23,75a1.21,1.21,0,0,0,.3-.11A1.21,1.21,0,0,1,135.23,75Zm-.78.07h0c.23,0,.48,0,.71,0C134.93,75.09,134.68,75.08,134.45,75.1Zm-28.32-7.83c.06-.13.11-.27.16-.39C106.24,67,106.19,67.14,106.13,67.27Zm-.54.42a.36.36,0,0,0,.32-.1A.36.36,0,0,1,105.59,67.69Zm-.92.84a2.86,2.86,0,0,0,.26-1.3h0A2.86,2.86,0,0,1,104.67,68.53ZM103,67.2a.74.74,0,0,1,.8-.39A.74.74,0,0,0,103,67.2Zm-.21,5.73a19.3,19.3,0,0,0-4.62.42,19.3,19.3,0,0,1,4.62-.42Zm-3.38-4.46a4.79,4.79,0,0,0-1.9,1.76,5.1,5.1,0,0,1-2.14.91.39.39,0,0,1,.06-.17.39.39,0,0,0-.06.17,5.1,5.1,0,0,0,2.14-.91,4.79,4.79,0,0,1,1.9-1.76c.44-.26.91-.49,1.36-.75C100.28,68,99.81,68.21,99.37,68.47Zm-3.94,2.45a.21.21,0,0,1,0-.06A.21.21,0,0,0,95.43,70.92Zm.17-.21.09-.1Zm.23-.31a.3.3,0,0,0,0-.15A.3.3,0,0,1,95.83,70.4Zm-3.67-1.5a1.71,1.71,0,0,0,.11-.78c-1.16,0-1.35-.23-1.21-.56-.14.33,0,.57,1.21.56A1.71,1.71,0,0,1,92.16,68.9Zm-.47-2.24a1,1,0,0,0,.13-.27,25.49,25.49,0,0,1-4.63-.28,25.49,25.49,0,0,0,4.63.28A1,1,0,0,1,91.69,66.66Zm-.14.2.13-.18Zm-11-11.35a.76.76,0,0,1,.32.06.76.76,0,0,0-.32-.06c-.16.82-.52,1.22-1.11,1.12C80.05,56.73,80.41,56.33,80.57,55.51Zm-.71-.88a.52.52,0,0,1,.42.19A.52.52,0,0,0,79.86,54.63Zm-.23-.47A1.28,1.28,0,0,1,80,54.1,1.28,1.28,0,0,0,79.63,54.16Zm-.81.89h0a1.39,1.39,0,0,1,.71-.85A1.35,1.35,0,0,0,78.82,55.05Zm-2.95.56a1.2,1.2,0,0,1-.48-.85A1.2,1.2,0,0,0,75.87,55.61Zm2.17.18.17.08Zm.51,5.79.34,0-.34,0a1.66,1.66,0,0,1-.63,0,14.8,14.8,0,0,1-3.08.46,14.8,14.8,0,0,0,3.08-.46A1.66,1.66,0,0,0,78.55,61.58ZM64.43,104a5,5,0,0,0-.42-.9A5,5,0,0,1,64.43,104Zm23.5,18.51a2,2,0,0,0,.54,0,2,2,0,0,1-.54,0,20.8,20.8,0,0,1-6.22,1.38A20.8,20.8,0,0,0,87.93,122.54Zm4.38,5.7h0a4.74,4.74,0,0,0-3.08-.38A4.74,4.74,0,0,1,92.31,128.24Zm.72,2.21a15.46,15.46,0,0,1,1.88-.65,9,9,0,0,1,3-.33,1.13,1.13,0,0,0,.1-.62,1.13,1.13,0,0,1-.1.62h0a9,9,0,0,0-3,.33,15.46,15.46,0,0,0-1.88.65c-.62.25-1.23.52-1.83.79C91.8,131,92.41,130.7,93,130.45Zm.4,38.35a.91.91,0,0,1,.21-.62.91.91,0,0,0-.21.62,1,1,0,0,0,.3.59A1,1,0,0,1,93.43,168.8Zm5.81-7.51h0a6.58,6.58,0,0,1-.47-.7,6.58,6.58,0,0,0,.47.7Zm34.62-36.42-.16-.26a1.53,1.53,0,0,0-.16-.25,1.53,1.53,0,0,1,.16.25Zm7.49,77.26a2.5,2.5,0,0,1,.54,1,1.22,1.22,0,0,1,.65-.09,1.22,1.22,0,0,0-.65.09A2.5,2.5,0,0,0,141.35,202.13Zm2.1,1.08-.46-.13Zm4.11,6.84h0c-.18.69-.95.86-1.49,1.26C146.61,210.91,147.38,210.74,147.56,210.05Zm2.77-63.33a9.76,9.76,0,0,0,3.75.17h0l.41.06a.59.59,0,0,0,0,.13.59.59,0,0,1,0-.13l-.41-.06A9.76,9.76,0,0,1,150.33,146.72Zm1.91,5.09a.51.51,0,0,1,.39-.44A.51.51,0,0,0,152.24,151.81Zm2.3-4.48h0a2.46,2.46,0,0,0-.95.18A2.46,2.46,0,0,1,154.54,147.33Zm6.12,1.52a10.77,10.77,0,0,0,2.55.25,6.41,6.41,0,0,1,2.46,1.17,5.73,5.73,0,0,1,1.49,1.81,5.73,5.73,0,0,0-1.49-1.81,6.41,6.41,0,0,0-2.46-1.17A10.77,10.77,0,0,1,160.66,148.85Zm5.17-.62h0l-1.74-1.31Zm4.38-10.9a2.7,2.7,0,0,0-.06-.41,5.24,5.24,0,0,1-2-4.79,5.24,5.24,0,0,0,2,4.79,2.7,2.7,0,0,1,.06.41c.73.31,1.13,1.12,1.8,1.52C171.34,138.45,170.94,137.64,170.21,137.33Zm11.72,20Zm6.57,6.07h0a1.55,1.55,0,0,1-.3,1.11A1.57,1.57,0,0,0,188.5,163.44Zm-.35,1.15a.73.73,0,0,1-.39.17A.73.73,0,0,0,188.15,164.59Zm3.81,5.86a3.27,3.27,0,0,0-.26,2.16,3.27,3.27,0,0,1,.26-2.16,1.13,1.13,0,0,0,.7-.25A1.13,1.13,0,0,1,192,170.45Zm0,3.46h0l-.32-.08Zm8.3,5.65a6.54,6.54,0,0,1,1.18.5,6.54,6.54,0,0,0-1.18-.5c-.55-.42-1.1-.83-1.68-1.2C199.12,178.73,199.67,179.14,200.22,179.56Zm5.2.65-.28.27Zm-.83.73-.17.14Zm6.46,9.47c-.3.45-.6.89-.89,1.34l.89-1.34,1.35-3.87Zm0-13h0c-.35-.57-.77-1.1-1.14-1.65C210.31,176.3,210.73,176.83,211.08,177.4Zm-9.86-15.86a13.67,13.67,0,0,0-2.31,2.37h0a13.67,13.67,0,0,1,2.31-2.37,12,12,0,0,1,1.79-1.21A12,12,0,0,0,201.22,161.54Zm5.93-53.8a2.48,2.48,0,0,1-2.91-1.07,2.48,2.48,0,0,0,2.91,1.07c.87-.11,1.19-.16,1.24.18C208.34,107.58,208,107.63,207.15,107.74Zm-7.39-25.2h0c.15.13.32.25.45.38C200.08,82.79,199.91,82.67,199.76,82.54Zm-1,35.56c.36-.89.76-1.77,1.17-2.64C199.47,116.33,199.07,117.21,198.71,118.1Zm-3.31,2.66a2.23,2.23,0,0,0-.44,1.79,2.23,2.23,0,0,1,.44-1.79c0-.43,0-.86,0-1.29C195.4,119.9,195.41,120.33,195.4,120.76Zm-2.12-9.49a12,12,0,0,1-2.65,4.73l-.42.46a2.56,2.56,0,0,0-1,1.47,8.51,8.51,0,0,0-.25,1.16,8.51,8.51,0,0,1,.25-1.16,2.56,2.56,0,0,1,1-1.47l.42-.46a12,12,0,0,0,2.65-4.73l.41-.49ZM181.14,91.59a3.37,3.37,0,0,1-.47-1,3.37,3.37,0,0,0,.47,1,3.84,3.84,0,0,1,3,1.12A3.84,3.84,0,0,0,181.14,91.59Zm-.52-2.15v0Zm-3.56.85a6.54,6.54,0,0,1,1-.26A6.54,6.54,0,0,0,177.06,90.29Zm-7.49-4.83a2.83,2.83,0,0,0,1-1.16A2.83,2.83,0,0,1,169.57,85.46ZM143,83a1,1,0,0,1,0,.39A1,1,0,0,0,143,83Zm-9.57-9.28a7.92,7.92,0,0,0-.91-.71c-.48-.33-1-.63-1.47-1h0c.48.33,1,.63,1.47,1A7.92,7.92,0,0,1,133.41,73.67Zm-3,3.47L129.7,76a11.07,11.07,0,0,0-2.23-1,11.07,11.07,0,0,1,2.23,1Zm-13.31-5.09c.11.32.51.39.76.61-.25-.22-.65-.29-.76-.61a2,2,0,0,1-.54-1.33A2,2,0,0,0,117.06,72.05Zm-14.22-3.18h0c-1.48-.82-2.35-.14-3.16.67C100.49,68.73,101.36,68.05,102.84,68.87ZM102,66c0-.1,0-.2-.08-.3C101.93,65.77,102,65.87,102,66Zm-.13-.46a9.73,9.73,0,0,1-2.09.87,9.73,9.73,0,0,0,2.09-.87Zm-4.33,1.24h0a23.67,23.67,0,0,0-4.26-.49A23.67,23.67,0,0,1,97.52,66.75ZM82.7,57.4v-.22h0ZM65,55.45h0Zm-1.78-1.88a.23.23,0,0,0,.06.12A.23.23,0,0,1,63.22,53.57Zm0,0a.5.5,0,0,1,0-.13A.5.5,0,0,0,63.23,53.54Zm.23-.43a.33.33,0,0,0,.06-.2c-1.79,0-3.63-.36-5.28.6,1.65-1,3.49-.56,5.28-.6A.33.33,0,0,1,63.46,53.11ZM51.8,72c.25-.06.63-.21.84-.24-.21,0-.59.18-.84.24-.29.29-.57.59-.86.89C51.23,72.62,51.51,72.32,51.8,72Zm-3.72.6a1.89,1.89,0,0,0-.39.26A1.89,1.89,0,0,1,48.08,72.63Zm-6.49,46.68a2.27,2.27,0,0,1,.53-.11A2.27,2.27,0,0,0,41.59,119.31Zm44.55,8.84a10.49,10.49,0,0,1,5.25-1.36,10.49,10.49,0,0,0-5.25,1.36l-1.25.07Zm-6.41,7.92a1.46,1.46,0,0,0-1,.33,1.46,1.46,0,0,1,1-.33Zm-14,20.42a1.81,1.81,0,0,0,2.26-.15,1.81,1.81,0,0,1-2.26.15Zm74.89-32.19c.81-.11,1.21,0,1.32.6-.11-.6-.51-.71-1.32-.6a3.56,3.56,0,0,1-1.77,1.56A3.56,3.56,0,0,0,140.61,124.3Zm1.47,82a5.61,5.61,0,0,1,.26,2h0A5.61,5.61,0,0,0,142.08,206.33Zm.69.79c0-.1,0-.21,0-.31C142.77,206.91,142.77,207,142.77,207.12Zm6.22-3.41a1.44,1.44,0,0,0-.08.46,1.44,1.44,0,0,1,.08-.46,1.47,1.47,0,0,1,.21-.39A1.47,1.47,0,0,0,149,203.71Zm11.58-35.52a7,7,0,0,1,1.76-2.58l3.44-4.75-3.44,4.75a6.88,6.88,0,0,0-1.75,2.58,15.39,15.39,0,0,0-2.3,4.6A15.6,15.6,0,0,1,160.57,168.19Zm.48,15.56a1.33,1.33,0,0,0-.5.64h0A1.33,1.33,0,0,1,161.05,183.75Zm.43-4.45c0-.79,0-1.57,0-2.35h0C161.49,177.73,161.49,178.51,161.48,179.3Zm8.94-2.38a1,1,0,0,1-.12-.16A1,1,0,0,0,170.42,176.92Zm1.06-26.52h0c-.57-.39-1.14-.78-1.71-1.15.57.37,1.14.76,1.71,1.15a2.48,2.48,0,0,1,1.56,2.06A2.48,2.48,0,0,0,171.48,150.4Zm7,11.75a6.41,6.41,0,0,0,1.65-3.94,6.41,6.41,0,0,1-1.65,3.94c-1.32,1.94-2.68,3.84-3.94,5.82C175.75,166,177.11,164.09,178.43,162.15Zm1.41,33q-.1-.57-.24-1.14Q179.74,194.62,179.84,195.19Zm4.09-9.55a1.4,1.4,0,0,0-.88.35A1.4,1.4,0,0,1,183.93,185.64Zm-.36-5.87a2.7,2.7,0,0,0-.33-.22h0a2.7,2.7,0,0,1,.33.22,1.18,1.18,0,0,1,.45.77A1.18,1.18,0,0,0,183.57,179.77Zm0-1.09a.62.62,0,0,0,0-.24A.62.62,0,0,1,183.59,178.68Zm-.35-.86a1.61,1.61,0,0,1,.26.4A1.61,1.61,0,0,0,183.24,177.82Zm-2.3-10.23a6.89,6.89,0,0,0,.54-.65,2.55,2.55,0,0,0,.33-.17,2.55,2.55,0,0,1-.33.17A6.89,6.89,0,0,1,180.94,167.59Zm1.77-1.76a1.66,1.66,0,0,1-.36.53A1.66,1.66,0,0,0,182.71,165.83Zm1.77-5a1.25,1.25,0,0,1-.24-1.46,1.25,1.25,0,0,0,.24,1.46c-.54,1.31-1.09,2.62-1.64,3.93C183.39,163.46,183.94,162.15,184.48,160.84Zm-.79,4.4a1.55,1.55,0,0,0,.42.39h0a1.55,1.55,0,0,1-.42-.39,3.84,3.84,0,0,0-.27-.29A3.84,3.84,0,0,1,183.69,165.24Zm5.63,8.25h0c-.39-.5-1-.42-1.63-.41C188.3,173.07,188.93,173,189.32,173.49Zm7.41,3.9.49.23-.49-.23-.79-.52Zm7.39,5.23h.43A4.59,4.59,0,0,1,205,184a5.88,5.88,0,0,1,0,1.39,5.88,5.88,0,0,0,0-1.39,4.59,4.59,0,0,0-.42-1.42Zm.81,3.27c-.05.31-.11.61-.17.92C204.82,186.5,204.88,186.2,204.93,185.89Zm1.75,37.58a15.42,15.42,0,0,0,.49-4.47,15.38,15.38,0,0,1-.49,4.47,12.44,12.44,0,0,1-1.38,4A12.44,12.44,0,0,0,206.68,223.47Zm5.71,0c-.2.12-.4.24-.61.35l.62-.35c.45-.38.64-.29.74-.05C213,223.21,212.85,223.12,212.39,223.5Zm1-35.31c.33-.83.7-1.67-.14-2.56h0C214.06,186.52,213.69,187.36,213.36,188.19ZM213,153.11a2,2,0,0,1,.48-.37A2,2,0,0,0,213,153.11Zm-2.6-43.71.23.08h0Zm-20.2-12.14a7.17,7.17,0,0,0-2.6-1.9,7.17,7.17,0,0,1,2.6,1.9,5.19,5.19,0,0,1,2,.68A5.19,5.19,0,0,0,190.21,97.26ZM184,82.52a1.14,1.14,0,0,1-.77-.45l-.45-.45.45.45a1.14,1.14,0,0,0,.77.45,1.27,1.27,0,0,0,.28,0A1.27,1.27,0,0,1,184,82.52Zm-6.79,3.06h0c-.24-.06-.55,0-.79-.08C176.65,85.57,177,85.51,177.2,85.58ZM177,87.24a1.77,1.77,0,0,1-.15-.38A1.77,1.77,0,0,0,177,87.24Zm1.48,1,.44-.07-.44.07a3.76,3.76,0,0,1-1.75.92A3.76,3.76,0,0,0,178.44,88.19ZM171,85.42a2.62,2.62,0,0,1-.42-1.13h0A2.62,2.62,0,0,0,171,85.42Zm-6.5-5.69c.7.39,1.93-.43,2.17,1a4.83,4.83,0,0,1,1,0,4.83,4.83,0,0,0-1,0c-.24-1.4-1.47-.58-2.17-1ZM153.21,59.4V58.09h0Zm-7,18.31c.51.81.17,1.89.51,2.76-.34-.87,0-2-.51-2.76a3,3,0,0,1-1.43-2A3,3,0,0,0,146.23,77.71Zm-1,8a1,1,0,0,0-.26-.41A1,1,0,0,1,145.27,85.68Zm-2.93-1.47h0c.28.54.83.61,1.38.67C143.17,84.82,142.62,84.75,142.34,84.21Zm-7.61-14.29.2-.27Zm-.27.44a1.35,1.35,0,0,1,.15-.26A1.35,1.35,0,0,0,134.46,70.36Zm-.27,1.17a2,2,0,0,1,.18-1A2,2,0,0,0,134.19,71.53Zm.28-6.22a1.82,1.82,0,0,0,0-.32A1.82,1.82,0,0,1,134.47,65.31ZM131,72.87a2.15,2.15,0,0,1,.7.51,2.15,2.15,0,0,0-.7-.51Zm-7-.41a1.76,1.76,0,0,0-.12-.58,1.76,1.76,0,0,1,.12.58c.29,0,.58.1.86.16C124.63,72.56,124.34,72.5,124.05,72.46Zm0-2.17h0c.48,0,.87,0,1.19-.07C124.91,70.26,124.52,70.27,124,70.29Zm-1.36,0h0a.88.88,0,0,1-.28,0c-.15-.21-.3-.57-.45-.73.15.16.3.52.45.73A.88.88,0,0,0,122.68,70.27Zm-2.57-5.22Zm.6-1.1c0-.22.06-.45.08-.67C120.77,63.5,120.74,63.73,120.71,64ZM120.08,65l-.14-.1Zm-17.8-.4a2.83,2.83,0,0,1,0-.41h0a2.83,2.83,0,0,0,0,.41ZM97.4,65.89c.11-.41.55-.54,1-.63C98,65.35,97.51,65.48,97.4,65.89ZM86.85,53.74c0,.09.08.19.13.28C86.93,53.93,86.89,53.83,86.85,53.74Zm.36,2.2a1.65,1.65,0,0,1-.38,0A1.65,1.65,0,0,0,87.21,55.94Zm-13-5.65a.48.48,0,0,0-.37.2,2,2,0,0,0-.24,1.06h0a2,2,0,0,1,.24-1.06A.48.48,0,0,1,74.16,50.29ZM74.1,55c1,1.09.94,1.89-.21,2.35,1.15-.46,1.17-1.26.21-2.35l-1-.85ZM61.85,49.68a.6.6,0,0,0,.21.38A.6.6,0,0,1,61.85,49.68Zm-1.11-.88c.1.12.19.26.3.38C60.93,49.06,60.84,48.92,60.74,48.8Zm-.54,2.3a3,3,0,0,1-1.84-.44l0-2.52a1.2,1.2,0,0,0-.21-.19,1.2,1.2,0,0,1,.21.19h0l0,2.52A3,3,0,0,0,60.2,51.1ZM50.7,70.45a.76.76,0,0,0-.25-.16A.76.76,0,0,1,50.7,70.45ZM41,118.83c.23,0,.46,0,.68,0C41.44,118.83,41.21,118.83,41,118.83Zm4,2.85c-1.5,0-2.89,0-4.13-.84A16.46,16.46,0,0,1,36,119.43a16.46,16.46,0,0,0,4.87,1.41C42.13,121.72,43.52,121.69,45,121.68Zm13.71-8.26h0a17.9,17.9,0,0,0,2.1,1.41A17.9,17.9,0,0,1,58.73,113.42Zm16.39,17.91a7.29,7.29,0,0,0-.8.57A7.29,7.29,0,0,1,75.12,131.33Zm1.91-.54a5.48,5.48,0,0,1,1.87-1.15,11,11,0,0,1,1.38-.43,11,11,0,0,0-1.38.43A5.64,5.64,0,0,0,77,130.79a3.38,3.38,0,0,0-1.48.31A3.38,3.38,0,0,1,77,130.79ZM58.75,165a1.24,1.24,0,0,1,.44-1.09,1.63,1.63,0,0,1-.11-1.53,2.42,2.42,0,0,1,.25-.4,2.42,2.42,0,0,0-.25.4,1.63,1.63,0,0,0,.11,1.53A1.24,1.24,0,0,0,58.75,165Zm20.94,17.74c-.2.07-.41.12-.62.18C79.28,182.84,79.49,182.79,79.69,182.72Zm56.59,30.36h0a2.17,2.17,0,0,1-2.21-1.22A2.17,2.17,0,0,0,136.28,213.08Zm-.84,1.33,2.91-.52a2,2,0,0,0-.18-.3,1.4,1.4,0,0,1,.18.3Zm3.09,4.26A1,1,0,0,0,138,218,1,1,0,0,1,138.53,218.67ZM169.3,188.3h0c1.09.63,1.66,1.06,1.79,1.59C171,189.36,170.39,188.93,169.3,188.3Zm6.23-6.47a.87.87,0,0,0,.22,0A.87.87,0,0,1,175.53,181.83Zm1.16-.07c-.23,0-.46.07-.68.1.22,0,.45-.09.68-.1h0l-.87,1.73h0l.87-1.73ZM185.16,194l.09-.08Zm-1.95-.69a5.44,5.44,0,0,1,0-.58A5.44,5.44,0,0,0,183.21,193.26Zm1-21.59a2.33,2.33,0,0,1-.6-.36c-.26-.32-.55-.63-.83-.95a9,9,0,0,1-.78-1,3.65,3.65,0,0,1-.52-1.11,3.65,3.65,0,0,0,.52,1.11,9,9,0,0,0,.78,1c.28.32.57.63.83.95a2.33,2.33,0,0,0,.6.36c.64.26,1.36.26,2,.53.26.81.83.89,1.44.88-.61,0-1.18-.07-1.44-.88C185.62,171.93,184.9,171.93,184.26,171.67Zm2.41,5.68a2.68,2.68,0,0,0-.27.87A2.68,2.68,0,0,1,186.67,177.35Zm.46,3.57a3.73,3.73,0,0,1-.75-2.6,3.73,3.73,0,0,0,.75,2.6Zm17.11,8.18a9.26,9.26,0,0,0-.13.92h0A9.26,9.26,0,0,1,204.24,189.1Zm-2.33,15.15a1.67,1.67,0,0,1-.41.16A1.67,1.67,0,0,0,201.91,204.25Zm5.74,25.45c-.83-.08-1.43-.24-1.63-.61.2.37.8.53,1.63.61Zm4.73-3.55a7.88,7.88,0,0,0,.89-2.16,2.54,2.54,0,0,0,.56-.44,2.54,2.54,0,0,1-.56.44,7.88,7.88,0,0,1-.89,2.16c-.26.45-.53.89-.8,1.34C211.85,227,212.12,226.6,212.38,226.15Zm-3.91-67.49a4.09,4.09,0,0,0-1.59,2,4.09,4.09,0,0,1,1.59-2c.8-.67,1.62-1.32,2.4-2C210.09,157.34,209.27,158,208.47,158.66Zm2.18-48.7a3.85,3.85,0,0,1,0-.48h0A3.85,3.85,0,0,0,210.65,110Zm-.82-8.78A38.25,38.25,0,0,0,208.58,96a38.25,38.25,0,0,1,1.25,5.15,4.12,4.12,0,0,1,1.56,2.55A4.12,4.12,0,0,0,209.83,101.18ZM185.3,85.82a.67.67,0,0,0,.39.15.67.67,0,0,1-.39-.15,1.11,1.11,0,0,1-.35-.7,1.32,1.32,0,0,1-.45-.91,1.32,1.32,0,0,0,.45.91A1.11,1.11,0,0,0,185.3,85.82Zm-2.21-7.37c.18.25.22.72.43.92C183.31,79.17,183.27,78.7,183.09,78.45Zm-8,8.66a2.37,2.37,0,0,0,.34-.26A2.37,2.37,0,0,1,175.09,87.11ZM150.6,52.44c-.11-.27-.23-.52-.35-.78.12.26.24.51.35.78a13.08,13.08,0,0,1,1.78,2A13.08,13.08,0,0,0,150.6,52.44Zm-3.5-1.14a1,1,0,0,0,.36-.86c-.1-.53-.32-1-.94-1,.62,0,.84.46.94,1A1,1,0,0,1,147.1,51.3ZM134,63.37h0l-.37-.07h0l.37.07.5,0h0Zm-6.08,3.05c-.07-.27-.14-.54-.23-.8C127.76,65.88,127.83,66.15,127.9,66.42Zm2.21,3.85a3.67,3.67,0,0,1-.73-.52,3.67,3.67,0,0,0,.73.52c.09-.56.37-.81.73-.85-.36,0-.64.29-.73.85L131,72h0C130.73,71.43,130.42,70.85,130.11,70.27ZM99.32,61.81a.26.26,0,0,1,.12.21A.26.26,0,0,0,99.32,61.81ZM98.45,63l.07,0Zm-3.09-3.16a18.5,18.5,0,0,1-2-.89,18.5,18.5,0,0,0,2,.89ZM81.13,39.22h0Zm-8,6.72c0,.14,0,.29,0,.43,0-.14,0-.29,0-.43a4.36,4.36,0,0,1-2.2-1.59A4.36,4.36,0,0,0,73.08,45.94Zm-6.92,6c-.12-.27-.62-.45-.57-.7,0,.25.45.43.57.7l1.47,0Zm-3-1.64a1.6,1.6,0,0,1-1.07-.22,1.62,1.62,0,0,0,1.07.22Zm-12.77,20c-.23,0-.5,0-.86.39a1.39,1.39,0,0,0-.6.66,1.39,1.39,0,0,1,.6-.66C49.88,70.31,50.15,70.22,50.38,70.27ZM34,116.44h0a5,5,0,0,1,1.76-.36A5,5,0,0,0,34,116.44Zm-3.48,14.81a16.71,16.71,0,0,0,.43,2,16.71,16.71,0,0,1-.43-2,.73.73,0,0,1-.33-.37A.73.73,0,0,0,30.47,131.25Zm3.77,2.53a3.25,3.25,0,0,1-.37-.21A3.25,3.25,0,0,0,34.24,133.78Zm.58-9a2.36,2.36,0,0,1,0-.46l.32-.42-.32.42A2.36,2.36,0,0,0,34.82,124.74Zm.57,1.52a1.43,1.43,0,0,0,.29,1.51c-.11.5-.25,1-.34,1.51.09-.51.23-1,.34-1.51A1.43,1.43,0,0,1,35.39,126.26Zm15.1-1.56a1.19,1.19,0,0,0-.23-.16,1.19,1.19,0,0,1,.23.16,33.69,33.69,0,0,1-5.43.61A33.69,33.69,0,0,0,50.49,124.7Zm5.68-2.15a4,4,0,0,0,.51-.24,4,4,0,0,1-.51.24l-1.76,1.28Zm1.72-1.34a2.41,2.41,0,0,1,.61-.82,2.41,2.41,0,0,0-.61.82,3.73,3.73,0,0,1-.36.43A3.73,3.73,0,0,0,57.89,121.21ZM75.3,132.56ZM59.63,166.51Zm0,0Zm6.5,0,.45.32-.45-.32Zm69.53,50.92.1,0,.1,0h.39a2.19,2.19,0,0,0,.81-.69,1.13,1.13,0,0,0,.2-.45,1,1,0,0,0,0-.25,1,1,0,0,1,0,.25,1.13,1.13,0,0,1-.2.45,2.19,2.19,0,0,1-.81.69h-.39l-.1,0-.1,0Zm.38,1a4,4,0,0,0-.06-.45A4,4,0,0,1,136.05,218.38Zm1.9,7.28c.19-.67.68-1.24,1.23-1.06-.55-.18-1,.39-1.23,1.06l-2.15,1.28Zm5.69-6.06h0l.93,1.34a1.5,1.5,0,0,1,.6,0,1.5,1.5,0,0,0-.6,0l-.52.43a13.28,13.28,0,0,1,0,2,13.28,13.28,0,0,0,0-2h0l.52-.43Zm6.52-5.63a1,1,0,0,1-.6-.5,1,1,0,0,0,.6.5,11,11,0,0,1,1.55.13,6.63,6.63,0,0,1,.95.23,6.63,6.63,0,0,0-.95-.23A11,11,0,0,0,150.16,214Zm7.26-22.43a1.45,1.45,0,0,1-.17.83A1.45,1.45,0,0,0,157.42,191.54Zm-.3-1.95h0c.22-.78.5-1.11.82-1.19C157.62,188.48,157.34,188.81,157.12,189.59Zm29.61,10.24a10.28,10.28,0,0,1-.39,1.52A10.28,10.28,0,0,0,186.73,199.83Zm-1.47-6a1.62,1.62,0,0,0,.2-.4h0A1.62,1.62,0,0,1,185.26,193.85Zm5.6-11.92a.31.31,0,0,1-.07-.22A.31.31,0,0,0,190.86,181.93Zm1.93-.19c.44-.19.74-.76,1.16-1-.42.23-.72.8-1.16,1-.28.24-.51.61-.84.72C192.28,182.35,192.51,182,192.79,181.74Zm4.82,12.2h0c0-.63-.39-.65-.77-.68C197.22,193.29,197.61,193.31,197.61,193.94Zm-2.19,4.35a2.65,2.65,0,0,1-.29.52,2.65,2.65,0,0,0,.29-.52Zm-1.09,1.43a8.85,8.85,0,0,0-.82.92A8.85,8.85,0,0,1,194.33,199.72Zm4.87,3.56a2.37,2.37,0,0,0-.31,1A2.37,2.37,0,0,1,199.2,203.28Zm1.84,1.25a2.88,2.88,0,0,0-.83.3h0A2.88,2.88,0,0,1,201,204.53Zm7.07,307.8v0ZM202,492.51a3.82,3.82,0,0,1,1,1.07h0A3.82,3.82,0,0,0,202,492.51Zm3.47-188.24a16.17,16.17,0,0,0,0,3.75h0A16.17,16.17,0,0,1,205.44,304.27ZM200.88,354a1.29,1.29,0,0,1,.11.76A1.29,1.29,0,0,0,200.88,354Zm10-34.94a11.61,11.61,0,0,0-.2,2.88h0A11.61,11.61,0,0,1,210.86,319.07Zm-10.41,61.08a8.93,8.93,0,0,0,.63-.73h0A8.93,8.93,0,0,1,200.45,380.15Zm.51-1.39a5.32,5.32,0,0,1,.31-1.89A5.32,5.32,0,0,0,201,378.76Zm4.47-5.87h0l2.17.44ZM213,323.46a.85.85,0,0,0,.23-.59,1.33,1.33,0,0,0-1-1.41,1.33,1.33,0,0,1,1,1.41A.85.85,0,0,1,213,323.46Zm-1.08-4.59c-.9.59-.65,1.64-.93,2.48.28-.84,0-1.89.93-2.49Zm-5.64-9.32a4.62,4.62,0,0,1,0,1.17h0A4.62,4.62,0,0,0,206.29,309.55Zm-5.65,51.16a3.36,3.36,0,0,1-.2.44,3.36,3.36,0,0,0,.2-.44l.31-.18Zm2.18,23.51a1.26,1.26,0,0,1,.36-.83,1.26,1.26,0,0,0-.36.83,12,12,0,0,1-1.1,1.25A12,12,0,0,0,202.82,384.22Zm10-70.62a6,6,0,0,0-.84,3.25,6,6,0,0,1,.84-3.25c.45-3,.77-6,1.37-8.94C213.56,307.61,213.24,310.62,212.79,313.6Zm-2.23-17.69c.63-.88,1.16-1.86,1.79-2.74.27-.52.29-1.17.53-1.7-.24.53-.26,1.18-.53,1.7C211.72,294.05,211.19,295,210.56,295.91Zm.89-12.68c.16.59.31,1.19.48,1.77h0c-.17-.58-.32-1.18-.48-1.77a11.25,11.25,0,0,0-.59-1.72A11.25,11.25,0,0,1,211.45,283.23Zm2.2,7.45h0c.41-.28.82-.55.88-.94C214.47,290.13,214.06,290.4,213.65,290.68Zm.55-1.77a13.65,13.65,0,0,0-1.26-1.78,13.65,13.65,0,0,1,1.26,1.78Zm-2.49,2.94a3.16,3.16,0,0,1-1.53.92,6,6,0,0,0-2.09,1.21,6,6,0,0,1,2.09-1.21A3.16,3.16,0,0,0,211.71,291.85Zm-9.77,60.64a5.76,5.76,0,0,0-1.29.82,2.54,2.54,0,0,0,.17.51,2.54,2.54,0,0,1-.17-.51A5.76,5.76,0,0,1,201.94,352.49Zm10.19,160.76v0Zm-28-21c0-.16,0-.32,0-.48.63.35,1.24.74,1.85,1.12-.61-.38-1.22-.77-1.85-1.12,0,.16,0,.32,0,.48.26.48.8.87.75,1.43,0-.56-.49-1-.75-1.43-.94-.22-1.42-.69-1.28-1.36C182.67,491.54,183.15,492,184.09,492.23Zm9.15-75.38a2.78,2.78,0,0,1,.51-.31,3,3,0,0,1,1.07-.27,3,3,0,0,0-1.07.27,2.78,2.78,0,0,0-.51.31Zm15.89,71.56a.85.85,0,0,0,.5-.13.85.85,0,0,1-.5.13,3.72,3.72,0,0,1-.77-.07h0A3.72,3.72,0,0,0,209.13,488.41Zm.19-1.37.5-.07h0Zm-4.38-4.62h0Zm-.77-.3a1.07,1.07,0,0,0,0-.4,1.07,1.07,0,0,1,0,.4,2,2,0,0,0,.44.24A2,2,0,0,1,204.17,482.12Zm1.34,4.36a2.41,2.41,0,0,1,1.46.87,2.41,2.41,0,0,0-1.46-.87c-1-.83-2-1.66-3-2.48C203.54,484.82,204.52,485.65,205.51,486.48Zm4.6,7.37h0l.21.18.28-.33-.28.33a9.33,9.33,0,0,0-.65,2.14,8.86,8.86,0,0,1,.65-2.14Zm-11.35-10.13a.42.42,0,0,1,.35-.22l.27,0-.27,0A.42.42,0,0,0,198.76,483.72Zm-10-29.67a.86.86,0,0,0,.15-.22,3.29,3.29,0,0,0,0-.42,3.29,3.29,0,0,1,0,.42.86.86,0,0,1-.15.22.71.71,0,0,1-.4.23A.71.71,0,0,0,188.77,454.05Zm2.7-7.22h0c.3.22.76.47.78.79C192.23,447.3,191.77,447.05,191.47,446.83Zm0-1.27a9.39,9.39,0,0,0-2.36-.59,9.39,9.39,0,0,1,2.36.59l.43.11Zm-.22,19.76c-.63-2.45-1.47-4.86-1-7.47.7-.61,1.4-1.22,2.11-1.82-.71.6-1.41,1.21-2.11,1.82C189.8,460.46,190.64,462.87,191.27,465.32Zm3.59-22h0l.2.14h0Zm.53,8a10.85,10.85,0,0,1,1.76,1.33c0,.14,0,.29,0,.43,0-.14,0-.29,0-.43A10.85,10.85,0,0,0,195.39,451.32Zm0-7.93.44.46-.44-.46Zm10-15.44a.76.76,0,0,0,.06-.27A.76.76,0,0,1,205.34,428Zm-.26.22.12,0Zm-3.57,21a7.3,7.3,0,0,1-2.25-.6,7.3,7.3,0,0,0,2.25.6Zm-3,2.12.53.05,1.75-1.6h0l-1.75,1.6-.53-.05Zm5.62-6.52h0l.57-1.22ZM205.52,427a1,1,0,0,0-.09.4,1,1,0,0,1,.09-.4.3.3,0,0,1,.3-.17A.3.3,0,0,0,205.52,427Zm-9.62,27.17a5.19,5.19,0,0,1,.67-.6A5.19,5.19,0,0,0,195.9,454.14Zm11.6-6.6c-.52.8-.06,1.07.46,1.3C207.44,448.61,207,448.34,207.5,447.54Zm.07-.12a5.73,5.73,0,0,1-1.74-1.54,3.79,3.79,0,0,1-.42-.67h0a3.79,3.79,0,0,0,.42.67,5.73,5.73,0,0,0,1.74,1.54Zm-1.33-20.52v-.81h0v.81Zm.46-1.23,0,.06Zm-13.51-.51,1.8-.44,0,.1,0-.1-1.8.44Zm.1.79c0,.14,0,.29.05.43l.38.37h0l-.38-.37C193.32,426.24,193.3,426.09,193.29,426Zm-1.81,14.9.62.28-.62-.28a1.68,1.68,0,0,1-1.09-.46A1.68,1.68,0,0,0,191.48,440.85Zm.52,3.92a9.64,9.64,0,0,0-3-.4,9.64,9.64,0,0,1,3,.4Zm-8.32,2.13a7,7,0,0,0,2.45-.36,7.29,7.29,0,0,1-2.45.37Zm5.62,2.61h0c0,.43,0,.86,0,1.3a3,3,0,0,1,1.27.65,3,3,0,0,0-1.27-.65C189.31,450.37,189.31,449.94,189.3,449.51Zm.9,40.64a1.13,1.13,0,0,0,.43.77h0A1.13,1.13,0,0,1,190.2,490.15Zm0-.26a1.08,1.08,0,0,1,.2-.45A1.08,1.08,0,0,0,190.21,489.89Zm10.1-6.36.21,0Zm.26,0a10.86,10.86,0,0,1-.21-6.49,10.86,10.86,0,0,0,.21,6.49Zm12.49,27a.87.87,0,0,0-.51.19A.87.87,0,0,1,213.06,510.52Zm1.11-85a1.33,1.33,0,0,0-.47-.56,1.33,1.33,0,0,1,.47.56Zm-5.59,1.86a2.19,2.19,0,0,1-1,.31,2.19,2.19,0,0,0,1-.31,16.08,16.08,0,0,1,1.53-.5A16.08,16.08,0,0,0,208.58,427.39Zm-25.17,61.16a.46.46,0,0,1,.21,0,1.78,1.78,0,0,1,0-.34,1.78,1.78,0,0,0,0,.34.46.46,0,0,0-.21,0,2.38,2.38,0,0,0-.51.09A2.38,2.38,0,0,1,183.41,488.55Zm2.82,11.15a.52.52,0,0,0,0,.18.52.52,0,0,1,0-.18l-4.17-4.59Zm12.63,1.14a3.54,3.54,0,0,1,.1-1.34h0A3.54,3.54,0,0,0,198.86,500.84Zm0,.55a5,5,0,0,1,0,.55A5,5,0,0,0,198.9,501.39Zm-3.61-5.22-.63-.11c-1.23-.8-2.78-.54-4-1.22A8.68,8.68,0,0,1,188,494a8.68,8.68,0,0,0,2.6.82c1.26.68,2.81.42,4,1.22l.63.11a7.71,7.71,0,0,1,1.19.32A7.71,7.71,0,0,0,195.29,496.17ZM208,512.62l0,0Zm-.13.23-.26.38Zm-.42.61-.07.11Zm2.31-91.36h0a.7.7,0,0,0,.43.3A.7.7,0,0,1,209.78,422.1Zm5.77-125.82-.09-.66.09.66Zm-.53-3.06.38,1.31-.38-1.31a1.29,1.29,0,0,0,.73-.72A1.29,1.29,0,0,1,215,293.22Zm-3.51-50.5a.83.83,0,0,0-.79.52.83.83,0,0,1,.79-.52c0,1.45,0,2.9,0,4.34C211.52,245.62,211.52,244.17,211.51,242.72ZM195,342c-.16-.2-.31-.41-.46-.63.15.22.3.43.46.63h0Zm0,4.35c.32.22.34.58.39.95-.05-.37-.07-.73-.39-.95a4.19,4.19,0,0,0-.54-1.42A4.19,4.19,0,0,1,195,346.33Zm2.08,3.92a6,6,0,0,0,.58-3.64,6,6,0,0,1-.58,3.64Zm-6.65,38.25a.89.89,0,0,1-.41.36A.89.89,0,0,0,190.47,388.5Zm-9,54.06h0a2.65,2.65,0,0,0-.37.12A2.65,2.65,0,0,1,181.5,442.56Zm-1.48.51a2.77,2.77,0,0,0,.64-.2A2.77,2.77,0,0,1,180,443.07Zm1.41,50.51a1.73,1.73,0,0,1-.37.35h0A1.73,1.73,0,0,0,181.43,493.58Zm15.76,11.86c-.13.16-.25.33-.39.48C196.94,505.77,197.06,505.6,197.19,505.44Zm1.49-.73a3.78,3.78,0,0,1-.57.63A3.78,3.78,0,0,0,198.68,504.71Zm1.42-1a.57.57,0,0,1-.11.22A.57.57,0,0,0,200.1,503.7Zm7.1,10.22h0a16.11,16.11,0,0,1-3.4-1.82A15.63,15.63,0,0,0,207.2,513.92Zm9.16-217.7a1.35,1.35,0,0,1,.41.12A1.35,1.35,0,0,0,216.36,296.22Zm-5.7-66.14-2.17,1.34h0l-.49-.07c-.12,0-.24,0-.35.06.11,0,.23,0,.35-.06-.37-.24-.87-.45-1-.74.14.29.64.5,1,.74l.49.07,2.17-1.34,0-.46h0l0,.46a17.8,17.8,0,0,0,3-1A17.8,17.8,0,0,1,210.66,230.08Zm4.15-78a3.55,3.55,0,0,0,1.1-2.1h0A3.55,3.55,0,0,1,214.81,152.09Zm1.92-2.58-.81.49h0ZM191,47.17s0,0,.06,0h0S191,47.17,191,47.17Zm-6.15,32.65a1.43,1.43,0,0,1,.56,1.09A1.43,1.43,0,0,0,184.87,79.82Zm-6-.81.35,0a2.84,2.84,0,0,1,.66.08,2.84,2.84,0,0,0-.66-.08l-.35,0Zm-.78.89a3.34,3.34,0,0,1-.61-1,3.34,3.34,0,0,0,.61,1ZM158.42,61.15l-.1-.06.1.06.9,1.37ZM140.76,42.66h0c.45,0,.65-.16.71-.46C141.4,42.5,141.2,42.7,140.76,42.66ZM131,61.11l.45.88h0l-.46-.88c-.53-.44-1.07-.88-1.6-1.34C130,60.23,130.49,60.67,131,61.11Zm-6.58,4.4h0a2.38,2.38,0,0,0,1.54.27A2.38,2.38,0,0,1,124.45,65.51Zm-11.69-2.23h0l0,0ZM101.71,47.89a3.53,3.53,0,0,0-.73.18v4.36a3.22,3.22,0,0,1-.72-.16c-.25-.07-.49-.15-.74-.21.25.06.49.14.74.21a3.22,3.22,0,0,0,.72.16V48.07h0a3.53,3.53,0,0,1,.73-.18A2.78,2.78,0,0,1,103,48,2.78,2.78,0,0,0,101.71,47.89ZM98.46,61.56c-.31-.07-.56-.17-.52-.41l.47,0-.47,0C97.9,61.39,98.15,61.49,98.46,61.56ZM86.38,43.36A7.52,7.52,0,0,0,85.3,45a1.34,1.34,0,0,0-.21.2,1.34,1.34,0,0,1,.21-.2,7.52,7.52,0,0,1,1.08-1.66.66.66,0,0,1,.66-.14A.66.66,0,0,0,86.38,43.36Zm-1.21,4.71a8.9,8.9,0,0,0,.56,3.5h0A8.82,8.82,0,0,1,85.17,48.07ZM75,34.22l-.09-.06.09.06Zm-.09,8.2,2.61,1.76-2.61-1.76c-.28-.29-.57-.55-.87-.81C74.3,41.87,74.59,42.13,74.87,42.42ZM70.5,44a4.24,4.24,0,0,0-.84-.68h0A4.24,4.24,0,0,1,70.5,44ZM69.18,42h0a2.05,2.05,0,0,1,.29-.66A2.05,2.05,0,0,0,69.18,42Zm-5.24,6.06a1.25,1.25,0,0,1,1,.51A1.25,1.25,0,0,0,63.94,48.07Zm-6.53-4.3c.47.35,1,.69,1.44,1-.49-.32-1-.66-1.44-1l-.44-.4ZM45.18,68.43A.55.55,0,0,0,45,68.2.55.55,0,0,1,45.18,68.43ZM30.47,137.76a.85.85,0,0,1,.65.24.85.85,0,0,0-.65-.24Zm1,1.65a1.28,1.28,0,0,0,.73-1.18h0A1.28,1.28,0,0,1,31.51,139.41Zm29.85-19h0a33.94,33.94,0,0,1-5.1,3.65A33.94,33.94,0,0,0,61.36,120.36Zm-3.64,52.39a2.78,2.78,0,0,1-.85-1.22A2.78,2.78,0,0,0,57.72,172.75Zm1.46.71h0l0,0Zm3.14-2.78a1.79,1.79,0,0,0-.33.39A1.79,1.79,0,0,1,62.32,170.68Zm.79-.25,2.54-2.65c-.85.88-1.7,1.76-2.54,2.65a1.16,1.16,0,0,0-.58.11A1.16,1.16,0,0,1,63.11,170.43Zm26.55,40a2.3,2.3,0,0,1,.13.73,2.3,2.3,0,0,0-.13-.73Zm23.3-14a1.61,1.61,0,0,0-.44-.32A1.61,1.61,0,0,1,113,196.48Zm26.33,31.43.27.05-.27-.05a2.58,2.58,0,0,1-1.18.48A2.58,2.58,0,0,0,139.29,227.91Zm6.08-1.75a6.5,6.5,0,0,1,.28.68,6.5,6.5,0,0,0-.28-.68Zm11.51-33.46a2.23,2.23,0,0,1-.63.2A2.23,2.23,0,0,0,156.88,192.7Zm1.88-4.14a1.5,1.5,0,0,0-.62-.18,1.5,1.5,0,0,1,.62.18c.51.24,1,.62,1.49.56h0C159.79,189.18,159.27,188.8,158.76,188.56Zm14.52,7.85a1.14,1.14,0,0,1-.88.16A1.15,1.15,0,0,0,173.28,196.41Zm.22-.26a.47.47,0,0,1-.11.13A.47.47,0,0,0,173.5,196.15Zm-.19-.86a.83.83,0,0,1,0-.53h0A.83.83,0,0,0,173.31,195.29Zm.55,23.74a.6.6,0,0,0,.13-.09A.6.6,0,0,1,173.86,219Zm.21-.15a1.38,1.38,0,0,0,.27-.42A1.38,1.38,0,0,1,174.07,218.88Zm4.79-5.35a7.23,7.23,0,0,0,.92-.47,7.23,7.23,0,0,1-.92.47Zm20.46-7.4a4.59,4.59,0,0,1-.39-1.17,4.59,4.59,0,0,0,.39,1.17c.39.77.74,1.56,1.11,2.33C200.06,207.69,199.71,206.9,199.32,206.13Zm3.52,60.26a.72.72,0,0,0-.7-.31A.72.72,0,0,1,202.84,266.39Zm1.21,35.46a2.14,2.14,0,0,0-.67,1.68,2.14,2.14,0,0,1,.67-1.68c.33-1,.66-2,1-3C204.71,299.88,204.38,300.87,204.05,301.85Zm-1.69,19.22.27-.2-.27.2a2.4,2.4,0,0,0-1.3-.52A2.4,2.4,0,0,1,202.36,321.07Zm-8.76,15.71c-.22,2,1.22,3.46,1.78,5.22h0c-.56-1.76-2-3.21-1.78-5.22a12.49,12.49,0,0,1,.8-6.91A12.49,12.49,0,0,0,193.6,336.78Zm.24,5.52c-.12.12-.47.14-1.17.17h0C193.37,342.44,193.72,342.42,193.84,342.3Zm.43,2.24q-.26-.37-.54-.72Q194,344.17,194.27,344.54ZM185,383.77h0a9.2,9.2,0,0,1,.83-4.53A9.08,9.08,0,0,0,185,383.77Zm0,0h0a5.11,5.11,0,0,0-.37,3A5.11,5.11,0,0,1,185,383.76Zm0,3.64a3.06,3.06,0,0,0,.56.5,3.06,3.06,0,0,1-.56-.5,2.27,2.27,0,0,1-.27-.44A2.27,2.27,0,0,0,184.94,387.4ZM188,389a10.94,10.94,0,0,0,1.75-.07A10.94,10.94,0,0,1,188,389Zm2.37,17.84h0ZM178.24,463h0Zm34.14-299.58-.46.42.46-.42c.37-1.42,1.46-2,2.57-2.6C213.84,161.41,212.75,162,212.38,163.43Zm3.27-7.91a2,2,0,0,1,.22-.78h0A2,2,0,0,0,215.65,155.52Zm3.58-32.65a.92.92,0,0,0,.71.07A.92.92,0,0,1,219.23,122.87Zm-19-62.6a2.15,2.15,0,0,0-.45.54,2.15,2.15,0,0,1,.45-.54,3.6,3.6,0,0,1,.67-.37A3.6,3.6,0,0,0,200.25,60.27Zm-1.53-6A2.61,2.61,0,0,0,196.35,52h0a2.61,2.61,0,0,1,2.37,2.35c.06.25.11.51.17.76C198.83,54.81,198.78,54.55,198.72,54.3Zm-1.63-2.71c.39-.23.62-.49.58-.8C197.71,51.1,197.48,51.36,197.09,51.59Zm.59-.82a1.25,1.25,0,0,0-.45-.65A1.25,1.25,0,0,1,197.68,50.77Zm-12.26,31.7h0l1.74.88Zm-9.22-6.25.13,0Zm-29.95-42c-.82,0-1.17-.29-1.3-.78.13.49.48.81,1.3.78ZM127.37,58.87a2.35,2.35,0,0,1,1,.22A2.35,2.35,0,0,0,127.37,58.87ZM114,46.4h0l.12-2.31ZM80.12,35.16a.71.71,0,0,1,.26-.64A.71.71,0,0,0,80.12,35.16Zm.41,1.16h0a1.7,1.7,0,0,1-1.1.16A1.7,1.7,0,0,0,80.53,36.32ZM73.07,40.9a18.54,18.54,0,0,0-2-1.22A18.54,18.54,0,0,1,73.07,40.9Zm-18.72-.61a10.38,10.38,0,0,0,1.89,2.38,10.38,10.38,0,0,1-1.89-2.38,8.36,8.36,0,0,1-2-2.56A8.36,8.36,0,0,0,54.35,40.29Zm-2.09,5.63,0-.05,0,.05Zm-8.59,19.6a.43.43,0,0,1,0-.11A.43.43,0,0,0,43.67,65.52Zm.6,2s0,.09-.09.13S44.27,67.58,44.27,67.53Zm-15,71.53a2.73,2.73,0,0,0,0,.41A2.73,2.73,0,0,1,29.3,139.06Zm2.81,2.77a2.5,2.5,0,0,0-.32-.81A2.5,2.5,0,0,1,32.11,141.83Zm.13-3.6h.42a25.1,25.1,0,0,0,1.8,6.07,25.1,25.1,0,0,1-1.8-6.07ZM122.29,244l.5-.78-.5.78-.45.14Zm.51.93h0a1,1,0,0,1-.43-.08A1,1,0,0,0,122.8,244.92Zm20.64-18.19a5.08,5.08,0,0,0-.17,1A5.08,5.08,0,0,1,143.44,226.73Zm1.91,6.83a1.09,1.09,0,0,0-.55-.11,1.09,1.09,0,0,1,.55.11,6.87,6.87,0,0,1,2.11,2.95A6.87,6.87,0,0,0,145.35,233.56Zm17.47-39.06a2.86,2.86,0,0,0,.63,1.24A2.86,2.86,0,0,1,162.82,194.5Zm7.8,2.92,3,2.64a2.44,2.44,0,0,1,.46,2.22,2.44,2.44,0,0,0-.46-2.22Zm3.39,5.13a6.57,6.57,0,0,1-.44.88A6.57,6.57,0,0,0,174,202.55Zm.08,4c.16-.59.29-1.17.4-1.76-.11.59-.24,1.17-.4,1.76-.39.54-.77,1.1-1.13,1.66C173.32,207.67,173.7,207.11,174.09,206.57ZM172.72,221a3.78,3.78,0,0,0,.91,1.72,1.27,1.27,0,0,1,.2.75,1.27,1.27,0,0,0-.2-.75,3.78,3.78,0,0,1-.91-1.72l-.81-1.35Zm3.71,4.26a1.51,1.51,0,0,0,0,.37A1.51,1.51,0,0,1,176.43,225.25Zm0,0a1.91,1.91,0,0,1,.06-.33A1.91,1.91,0,0,0,176.44,225.21Zm9.44-4.28h0a17.74,17.74,0,0,1-.09,2.83A17.74,17.74,0,0,0,185.88,220.93Zm5-19.09a5.43,5.43,0,0,0-.23,1.25c0,.61,0,1.24,0,1.86,0-.62,0-1.25,0-1.86A5.43,5.43,0,0,1,190.87,201.84Zm.45,8.18c-.07.18-.14.37-.23.55C191.18,210.39,191.25,210.2,191.32,210Zm.15-2.1h0a.69.69,0,0,1,.45.56A.69.69,0,0,0,191.47,207.92Zm8.68,33.55c1.08,1.7,1.45,3.82,3.07,5.2,0-.3,0-.6,0-.91a7.9,7.9,0,0,1-1.06-5.78,7.9,7.9,0,0,0,1.06,5.78v.91a3.51,3.51,0,0,0,1.58,2.73,2.78,2.78,0,0,0,1.18.3,2.78,2.78,0,0,1-1.18-.3,3.51,3.51,0,0,1-1.58-2.73c-1.62-1.38-2-3.5-3.08-5.2a4.34,4.34,0,0,1-.25-3.37A4.35,4.35,0,0,0,200.15,241.47Zm0,12.61a1.45,1.45,0,0,1,.43-.05,4.4,4.4,0,0,1-.73,2.21,4.4,4.4,0,0,0,.73-2.21A1.45,1.45,0,0,0,200.19,254.08Zm-.34.18a1,1,0,0,1,.33-.17A1,1,0,0,0,199.85,254.26Zm-2.78,67.66a8.11,8.11,0,0,0-2.58,3.89,18.61,18.61,0,0,0-1.06,1.61,18.61,18.61,0,0,1,1.06-1.61,8.11,8.11,0,0,1,2.58-3.89c.47-.41,1-.8,1.48-1.17C198,321.12,197.54,321.51,197.07,321.92Zm-6,11a11.1,11.1,0,0,1,.34-1.12A11.1,11.1,0,0,0,191.1,333Zm-2.59,30.81a4.72,4.72,0,0,1-.18.53c-.1.24-.2.47-.31.7.11-.23.21-.46.31-.7a4.72,4.72,0,0,0,.18-.53Zm-1.36,5.2.14-.17-.14.17-.16.22Zm-3.58,16a5.82,5.82,0,0,0,0,.6,3.84,3.84,0,0,0,.19,1.06c.45,1.44,1.72,2.29,4.17,2.84l.49.42-.49-.42c-2.45-.55-3.72-1.4-4.17-2.84a3.84,3.84,0,0,1-.19-1.06A5.82,5.82,0,0,1,183.57,385Zm-9.91,20.54h0a19.9,19.9,0,0,1-.46-2.52A19.9,19.9,0,0,0,173.66,405.55Zm-.44.88h0v-.88h0v.88Zm-.66,16.66c.77,1,1.58,2,2.4,2.94.69.73,1,1.78,1.61,2.58-.62-.8-.92-1.85-1.61-2.58-.82-1-1.63-1.95-2.4-2.94s-1.52-2-2.22-3.06C171,421.07,171.79,422.09,172.56,423.09Zm2,23.82h0a6.38,6.38,0,0,0,1-.12,7.34,7.34,0,0,1-1,.12h0c-1.42,0-2.88.2-3.8-1.52C171.66,447.1,173.11,446.94,174.55,446.91Zm-.61,1.83a2.16,2.16,0,0,1-.54.2A2.16,2.16,0,0,0,173.94,448.74ZM151,477.82h0a2.17,2.17,0,0,0,0,.25A2.17,2.17,0,0,1,151,477.82Zm0,.65a6.43,6.43,0,0,0,.46,2A6.43,6.43,0,0,1,151,478.47ZM195.38,510c.54-.21,1.11-.4,1.64-.65C196.49,509.6,195.92,509.79,195.38,510Zm2.31-1.68,1.21-.41a1.62,1.62,0,0,1,1-.45.58.58,0,0,1,.35.11.58.58,0,0,0-.35-.11,1.62,1.62,0,0,0-1,.45,3.14,3.14,0,0,1-.41.47,3.14,3.14,0,0,0,.41-.47Zm3.18,0c-.08-.14-.16-.28-.24-.4C200.71,508.07,200.79,508.21,200.87,508.35Zm.23.42-.21-.38Zm.37.44.09.75-.09-.75Zm4.81,9.51a3.47,3.47,0,0,1,1-.74,10.24,10.24,0,0,1,1.11-.52,10.24,10.24,0,0,0-1.11.52,3.47,3.47,0,0,0-1,.74c0,.16.06.32.08.49h0c0-.17-.05-.33-.08-.49a3,3,0,0,0-.42.34A3,3,0,0,1,206.28,518.72Zm1.38,2.72h0Zm7.72-.19a.54.54,0,0,0,.12.24.74.74,0,0,0,.43.22.74.74,0,0,1-.43-.22.54.54,0,0,1-.12-.24Zm.17-360a6.48,6.48,0,0,0,1.26-.78A6.48,6.48,0,0,1,215.55,161.28Zm5.51-22.49v-1.86c-.3.11-.6.24-.8.12.2.12.5,0,.8-.12Zm-.81-9.72a1.32,1.32,0,0,0,.76-.88,1.32,1.32,0,0,1-.76.88,13.68,13.68,0,0,1,.87,4.87A13.68,13.68,0,0,0,220.25,129.07Zm.51-11.25c.06.12.13.25.18.37C220.89,118.07,220.82,117.94,220.76,117.82ZM193.68,38.07a13.78,13.78,0,0,1,.53,2c.12.66.21,1.34.27,2-.06-.68-.15-1.36-.27-2a13.78,13.78,0,0,0-.53-2c-.2-.44-.46-.86-.67-1.3a4,4,0,0,1-.36-.89,4,4,0,0,0,.36.89C193.22,37.21,193.48,37.63,193.68,38.07Zm-50.46,3a1.77,1.77,0,0,1,.75.22,1.77,1.77,0,0,0-.75-.22c-1.11-1.36-2.53-2.51-2.95-4.34a3.76,3.76,0,0,1,1.85-.18,3.76,3.76,0,0,0-1.85.18C140.69,38.57,142.11,39.72,143.22,41.08Zm-.59-4.49h0Zm-4.66.16h0ZM137,34.49a1,1,0,0,1,.47.08A1,1,0,0,0,137,34.49Zm-.79.09h0a1,1,0,0,0,0-.63,1,1,0,0,0-.7-.4,1,1,0,0,1,.7.4A1,1,0,0,1,136.24,34.58ZM135,33.43a3.37,3.37,0,0,0,.34.09A3.37,3.37,0,0,1,135,33.43Zm-4-9.84-.41.11c0,.29,0,.58,0,.87,0-.29,0-.58,0-.87Zm-5.14,35.82a5.87,5.87,0,0,0-.5.42,5.89,5.89,0,0,0-.94-.47,5.89,5.89,0,0,1,.94.47A5.87,5.87,0,0,1,125.85,59.41ZM95.77,50.68c.16,0,.34,0,.49-.09-.15,0-.33.06-.49.09a1.47,1.47,0,0,0-1.31-.88,3.45,3.45,0,0,1,0-.45,3.45,3.45,0,0,0,0,.45A1.47,1.47,0,0,1,95.77,50.68Zm-1.3-1.35a3.73,3.73,0,0,0,0-.47,1.12,1.12,0,0,0-.07-.42,1.12,1.12,0,0,1,.07.42A3.73,3.73,0,0,1,94.47,49.33ZM77.56,30.38l-.37.3Zm-5.75,7.68.44-.47h0l1.72.06-1.72-.06-.44.47-2.24-1.23Zm-6.09,3.51h0l0,.46c0,.27,0,.55,0,.82l2.48,2.38-2.48-2.38c0-.27,0-.55,0-.82h0ZM60,38.11h0l-1.26-.5c-.07-.2-.13-.48-.2-.71a1.36,1.36,0,0,0-.11-.29,1.36,1.36,0,0,1,.11.29c.07.23.13.51.2.71l1.26.5c1,.64,1.79,1.44,2.67,2.17C61.83,39.55,61,38.75,60,38.11Zm-8.25-1.34h0a2.06,2.06,0,0,1,.16-.43A2.06,2.06,0,0,0,51.79,36.77Zm.24-.56.08-.12Zm-1.59,8.37h0a2,2,0,0,1,.68-.79A2,2,0,0,0,50.44,44.58Zm.5,1.29h0A7.93,7.93,0,0,0,49.1,46,7.93,7.93,0,0,1,50.94,45.87ZM43.17,68.59h0c.06-.19.11-.5.17-.65C43.28,68.09,43.23,68.4,43.17,68.59Zm-1,.39h0l0,0ZM22.91,149a.79.79,0,0,0-.35-.23A.79.79,0,0,1,22.91,149Zm-2.86.42.25.06Zm7.4,1.37c.38,0,.76.31,1.13.31C28.21,151.13,27.83,150.85,27.45,150.82Zm2.16-10h0c-.15.15-.29.31-.44.47ZM50.5,150.85l.41-.46-.41.46a6.12,6.12,0,0,1-1,3A6.12,6.12,0,0,0,50.5,150.85Zm1,.87Zm6.91,31.83a1.83,1.83,0,0,0,.4,0,1.83,1.83,0,0,1-.4,0,4.29,4.29,0,0,1-.79-.36A4.29,4.29,0,0,0,58.37,183.55ZM87.92,227h0a4.26,4.26,0,0,1-.5,0A4.26,4.26,0,0,0,87.92,227Zm26.59,20.24v0Zm-.11.17a.61.61,0,0,0,.07-.1.61.61,0,0,1-.07.1,2,2,0,0,0-.34.42A2,2,0,0,1,114.4,247.44Zm7.19-4.9c.09-.36.15-.73.23-1.09-.08.36-.14.73-.23,1.09a4,4,0,0,1-1,2h0A4,4,0,0,0,121.59,242.54Zm.7,2.81.45.41h0l-.45-.41a3.33,3.33,0,0,0-2.1,1A3.33,3.33,0,0,1,122.29,245.35Zm-3.91,8.75a1.27,1.27,0,0,0,0-.28A1.27,1.27,0,0,1,118.38,254.1ZM137.48,236a2.22,2.22,0,0,0,.47,2,3.34,3.34,0,0,0-.14.65,3.34,3.34,0,0,1,.14-.65A2.22,2.22,0,0,1,137.48,236Zm3.73-.06a1.85,1.85,0,0,0-.5.1A1.85,1.85,0,0,1,141.21,235.89Zm29.34-14.33a14.93,14.93,0,0,1,1.95,2.35c.28-.11.74-.06,1-.15-.3.09-.76,0-1,.15.08.19.16.37.25.55a3.65,3.65,0,0,0,.4,1.09,4,4,0,0,1-.41-1.09l-.24-.55a14.93,14.93,0,0,0-1.95-2.35,6.17,6.17,0,0,1-.87-1.24A6.17,6.17,0,0,0,170.55,221.56ZM178,233.39c.08-.22.15-.44.22-.65C178.16,233,178.09,233.17,178,233.39Zm-.07-1.33c.05-1.06.09-1.77.13-2.49h0C178,230.29,178,231,177.94,232.06Zm.51-.32a.69.69,0,0,1,0,.13A.69.69,0,0,0,178.45,231.74Zm-1.74-5.59a1.09,1.09,0,0,1,.06-.23,1.09,1.09,0,0,0-.06.23c.18.26.34.53.49.8C177.05,226.68,176.88,226.41,176.71,226.15Zm2.41-.79a3.48,3.48,0,0,1-.68-.38A3.48,3.48,0,0,0,179.12,225.36Zm20.21,94h0a8.6,8.6,0,0,0-2.72,1.47A8.6,8.6,0,0,1,199.33,319.34Zm-.58-.92a2.88,2.88,0,0,0,.13.31A2.88,2.88,0,0,1,198.75,318.42Zm-9.93,19.89c.29-.2.27-.38.13-.54C189.09,337.93,189.11,338.11,188.82,338.31Zm-.23,2.82a1.09,1.09,0,0,1-.22-.25A1.09,1.09,0,0,0,188.59,341.13Zm-1.07,22.14,0,.93h0Zm-1.27,2.26h0a1.14,1.14,0,0,1,.27-.7A1.14,1.14,0,0,0,186.25,365.53Zm-8.67,27.84c0,.4-.05.81,0,1.21,0-.4,0-.81,0-1.21s.08-.5.11-.76C177.66,392.87,177.63,393.12,177.58,393.37Zm-.43-6.54c-.11,2.38-.33,4.76-.39,7.14.06-2.38.28-4.76.39-7.14.14-.72.28-1.45.43-2.18Zm-2.13.64a14,14,0,0,0-.05-1.94c.06-.26.11-.52.17-.78-.06.26-.11.52-.17.78A14,14,0,0,1,175,387.47Zm-1.37,5.88a1.2,1.2,0,0,0-.4.72,1.2,1.2,0,0,1,.4-.72c.08-1.32.12-2.66.29-4C173.77,390.69,173.73,392,173.65,393.35Zm-1.73,7.41c0-.41,0-.83,0-1.24,0,.41,0,.83,0,1.24a1.26,1.26,0,0,1-.46-1A1.26,1.26,0,0,0,171.92,400.76Zm0,50.53,1.74,2.6-1.74-2.6a63.71,63.71,0,0,0-3.95-7.14A63.71,63.71,0,0,1,171.91,451.29ZM151,476.54h0c.94,1.14,1.92,2.25,2.83,3.42C152.93,478.79,152,477.68,151,476.54Zm-.84-3.37a4.53,4.53,0,0,0,0-.74A4.53,4.53,0,0,1,150.17,473.17Zm-.07,2.62a9,9,0,0,1-.65-1A9,9,0,0,0,150.1,475.79Zm55.43,43.64a2.13,2.13,0,0,0-.37.81A2.13,2.13,0,0,1,205.53,519.43Zm1.2,6.74h0v0Zm1.32,2.55a1.12,1.12,0,0,0-.13-.44,1.12,1.12,0,0,1,.13.44c0,.3,0,.63,0,.93h0C208,529.35,208.08,529,208.05,528.72Zm1.23,2.23a.83.83,0,0,1-.26-.37.83.83,0,0,0,.26.37Zm0-1.66c-.51-1.94-1.46-3.79-1.69-5.79.23,2,1.18,3.85,1.69,5.79,0,.27,0,.55,0,.82C209.32,529.84,209.3,529.56,209.29,529.29Zm-.36,1.07a1.26,1.26,0,0,0-.35-.58A1.26,1.26,0,0,1,208.93,530.36Zm-.37-.59-.2-.1Zm9-6.21h1.83a1.77,1.77,0,0,0,.35-.23,1.77,1.77,0,0,1-.35.23Zm3.58-168.51h0l.38,0Zm.35-199.9-.34.59h0l-1.73,2.08c-.48.57-1,1.15-1.48,1.68.52-.53,1-1.11,1.48-1.68l1.73-2.08ZM193.18,21.34a3.4,3.4,0,0,1,.07.34A3.4,3.4,0,0,0,193.18,21.34Zm.09.47a2.56,2.56,0,0,0,0,.27A2.56,2.56,0,0,1,193.27,21.81Zm-68,29.84a3,3,0,0,0-.76-.53,5.48,5.48,0,0,0-1.14-1.21,5.48,5.48,0,0,1,1.14,1.21A3,3,0,0,1,125.25,51.65Zm-59.94-14h0a14.25,14.25,0,0,0-2.32-3A14.25,14.25,0,0,1,65.31,37.62ZM20,155.61v0Zm5.28.89a1,1,0,0,0-.17,0A1,1,0,0,1,25.32,156.5Zm4-1.39a2.46,2.46,0,0,1-.62.45A2.46,2.46,0,0,0,29.28,155.11Zm11,6.93a3.26,3.26,0,0,0-.26-.76,5.84,5.84,0,0,0-.26-2.28,5.84,5.84,0,0,1,.26,2.28A3.26,3.26,0,0,1,40.33,162Zm-5.59-7.23a3.09,3.09,0,0,1,.94.85h0a3.09,3.09,0,0,0-.94-.85,1.87,1.87,0,0,1-.46-.47A1.87,1.87,0,0,0,34.74,154.81Zm.82,1.14,0,.06Zm14.36,9.28a4,4,0,0,1,.25-.45A4,4,0,0,0,49.92,165.23Zm.4-.71a1.49,1.49,0,0,0,.21-.6A1.49,1.49,0,0,1,50.32,164.52Zm37.42,79.33a7.23,7.23,0,0,1,.63-.61,4,4,0,0,1,3-1h0a3.48,3.48,0,0,1,1.7-.46,3.48,3.48,0,0,0-1.7.46h0a4,4,0,0,0-3,1,7.23,7.23,0,0,0-.63.61,7.59,7.59,0,0,0-.57.68A7.59,7.59,0,0,1,87.74,243.85Zm26.31,4.06h0a1.08,1.08,0,0,0-.69.26A1.08,1.08,0,0,1,114.05,247.91Zm5.63-.86h0a22.74,22.74,0,0,0-6,5A22.86,22.86,0,0,1,119.68,247.05Zm69.45-18.58a.4.4,0,0,1-.23-.23A.4.4,0,0,0,189.13,228.47Zm.86-.33-.28.17Zm3.26-6.77h0a23.3,23.3,0,0,0-.65,2.35A23.3,23.3,0,0,1,193.25,221.37Zm1.73,7,2.61-3.51V224c-.71-.6-1.43-1.18-2.1-1.82.67.64,1.39,1.22,2.1,1.82v.83c0,.17,0,.35,0,.52h0c0-.17,0-.35,0-.52L195,228.33a2.24,2.24,0,0,0-.49.34A2.24,2.24,0,0,1,195,228.33Zm-.45,4.35c0-.13,0-.26.05-.39,0,.13,0,.26-.05.39a10.91,10.91,0,0,0-.77,2.41A10.91,10.91,0,0,1,194.53,232.68Zm6.35,58.95c0-1,.72-1.5,1.38-2-.66.5-1.38,1-1.37,2a1.18,1.18,0,0,0-.25.25A1.42,1.42,0,0,1,200.88,291.63Zm-2,25.1Zm-10.72,23.81c0-.09-.09-.17-.13-.25C188.1,340.37,188.15,340.45,188.19,340.54Zm-7.84,35.61a12.92,12.92,0,0,1,.36-1.49,11.54,11.54,0,0,0-.52,3h0A13,13,0,0,1,180.35,376.15Zm-2.79,2.38h0c.5-.18.65-.86.88-1.33-.23.47-.38,1.16-.88,1.33l-.88.9h0ZM148,473l-.27-.65.27.65a4,4,0,0,1,1.15,1.3A4,4,0,0,0,148,473Zm72.31,62.55a3.23,3.23,0,0,0,0,.53A3.23,3.23,0,0,1,220.3,535.58Zm.31-1.09h0a4,4,0,0,0-.19.55A4,4,0,0,1,220.61,534.49Zm1-417a2.36,2.36,0,0,1-.39,1.69,67.78,67.78,0,0,1,.36,8.55c0,1.42,0,2.85-.07,4.28,0-1.43.05-2.86.07-4.28a67.78,67.78,0,0,0-.36-8.55A2.36,2.36,0,0,0,221.57,117.44Zm-26-96.58c-.46.21-.73.62-.57,1.56.08.18.16.22.23.2s-.15,0-.23-.2C194.85,21.48,195.12,21.07,195.58,20.86Zm-8.38,1c.61,1.13,1,1.18,1.38.83-.35.35-.77.3-1.38-.83,0-1-.47-1.19-1.1-1.23C186.73,20.71,187.24,20.92,187.2,21.9Zm-44,2.21a7,7,0,0,0,0-1.3,7,7,0,0,1,0,1.3,2,2,0,0,1-1,.42A2,2,0,0,0,143.17,24.11Zm-5.08-4.72.31-.05Zm-.19,0c-.31,0-.63,0-1,0C137.27,19.42,137.59,19.43,137.9,19.41Zm-20.32.47a5.65,5.65,0,0,1,.92-.12A5.65,5.65,0,0,0,117.58,19.88Zm-24.29-.6a1.08,1.08,0,0,0-.4.11A1.08,1.08,0,0,1,93.29,19.28Zm-1,1.36h0a1.71,1.71,0,0,1,.44-1.13A1.71,1.71,0,0,0,92.27,20.64ZM81.8,20c.91-.06,1.81-.14,2.72-.22C83.61,19.9,82.71,20,81.8,20Zm-33,9.52a2.23,2.23,0,0,1,.26-.27,2.23,2.23,0,0,0-.26.27c-.31.39-.53.93-1,1.09h0C48.24,30.49,48.46,30,48.77,29.56ZM45.26,49.37a6.73,6.73,0,0,0,1.65-1.11,6.73,6.73,0,0,1-1.65,1.11A25.47,25.47,0,0,1,40.64,51,25.47,25.47,0,0,0,45.26,49.37ZM30.88,57.63l4.06-3.85,1.61-.49a15.77,15.77,0,0,1,4-1.39,17.79,17.79,0,0,1,2.07-.3,17.79,17.79,0,0,0-2.07.3,15.77,15.77,0,0,0-4,1.39l-1.61.49-4.06,3.85c-.46.42-.72,1-1.18,1.43C30.16,58.65,30.42,58.05,30.88,57.63ZM21.77,79.86a3.78,3.78,0,0,1,.05-.76,1.12,1.12,0,0,1,.17-.44,1.12,1.12,0,0,0-.17.44,3.78,3.78,0,0,0-.05.76h0ZM10.29,100.37a17.06,17.06,0,0,1,3.19-5.73l2.19-4.33-2.19,4.33a17.06,17.06,0,0,0-3.19,5.73,15.69,15.69,0,0,0-.74,4.8A15.69,15.69,0,0,1,10.29,100.37Zm16.48,55.72c.27-.12.54-.27.82-.43h0C27.31,155.82,27,156,26.77,156.09Zm3.85-7.36a1.8,1.8,0,0,1,.73-.52h0A1.8,1.8,0,0,0,30.62,148.73Zm2.09,7.74.89.84a1.7,1.7,0,0,0,1.09-.23,1.7,1.7,0,0,1-1.09.23Zm14.81,8.09a1.22,1.22,0,0,0,.88-.2c.89.16,1.41-.56,2.09-.88a1,1,0,0,1,.06.33,1,1,0,0,0-.06-.33c-.68.32-1.2,1-2.09.88A1.22,1.22,0,0,1,47.52,164.56Zm66.95,104.91c.44-.18.87-.42,1.3-.64a12.85,12.85,0,0,0,1.21-4.1,12.85,12.85,0,0,1-1.21,4.1C115.34,269.05,114.91,269.29,114.47,269.47Zm74.13-37c.88-1.62,1.63-3.32,2.45-5a2.77,2.77,0,0,0-.52.29,2.77,2.77,0,0,1,.52-.29C190.23,229.12,189.48,230.82,188.6,232.44ZM176.71,376.38h0c0-.1,0-.22,0-.33C176.68,376.16,176.7,376.28,176.71,376.38Zm-11,31.31a.69.69,0,0,0-.22-.23A.61.61,0,0,1,165.69,407.69Zm-.11,5.59a.7.7,0,0,0-.11.23A.7.7,0,0,1,165.58,413.28Zm-16.66,59.59c-.53-.74-.94-1.61-1.83-2h0C148,471.26,148.39,472.13,148.92,472.87Zm-11,29.73h0a.67.67,0,0,0-.2,0A.67.67,0,0,1,137.93,502.6Zm70.28,34.95c1,1.74,1.91,2,4.06,1.29h0C210.12,539.55,209.17,539.29,208.21,537.55Zm4.8.74a7,7,0,0,1,1-.6A7,7,0,0,0,213,538.29Zm8.42.42a.78.78,0,0,1-.5,0,.78.78,0,0,0,.5,0,.63.63,0,0,1,0-.27,2.84,2.84,0,0,1-1.2-2.29,2.84,2.84,0,0,0,1.2,2.29.63.63,0,0,0,0,.27l.06,0Z"/><path class="cls-1" d="M40.55,34.82A1152.35,1152.35,0,0,0,160.86,136.21q31.81,23.34,65.29,44.45t68.31,40q-36-16.49-71-35.46T155,144.88A1166.78,1166.78,0,0,1,26.47,50.4Z"/><path class="cls-1" d="M146.21,6.94c2.93,9.27,5.77,18.51,8.81,27.67,1.53,4.58,3,9.16,4.66,13.71l2.39,6.82,2.49,6.78C171.29,80,178,98,186.21,115.48q6.18,13.08,13.06,25.82t14.59,25a507.71,507.71,0,0,0,33.28,47.5l-.46.39a478.6,478.6,0,0,1-35.34-46.26q-8.09-12.13-15.47-24.72t-14-25.63c-2.18-4.36-4.39-8.7-6.43-13.12s-4.16-8.82-6.12-13.28q-5.88-13.38-10.46-27.3c-1.49-4.64-2.93-9.3-4.26-14-.64-2.35-1.3-4.7-1.91-7.06l-.91-3.53L151,35.76a279.58,279.58,0,0,1-5.34-28.69Z"/><path class="cls-1" d="M201.57,0c.3,9.2.47,18.35.81,27.49.2,4.56.32,9.13.59,13.68s.47,9.12.78,13.66q.87,13.65,1.94,27.28c.7,9.09,1.64,18.17,2.89,27.21s2.74,18,4.49,27,3.74,17.89,6,26.76A526.84,526.84,0,0,0,235,215.68l-.56.21a490.86,490.86,0,0,1-18.29-52q-3.78-13.28-6.88-26.73c-2.06-9-3.83-18-5.41-27.1l-1.15-6.81-1-6.84c-.69-4.55-1.31-9.13-1.87-13.7q-1.65-13.74-2-27.6c-.07-4.61-.14-9.22-.07-13.83,0-2.31.09-4.61.17-6.92s.18-4.6.31-6.9A272,272,0,0,1,201,0Z"/><path class="cls-1" d="M216,178a7.82,7.82,0,0,1-1.31,4.44,13.14,13.14,0,0,1-3.31,3.3,72.39,72.39,0,0,1-8.09,4.66c-2.69,1.48-5.47,3-7.29,5.46a7.32,7.32,0,0,0-.42,8.28c1.58,2.51,4.33,4.11,7,5.55s5.59,2.68,8.27,4.37a17.09,17.09,0,0,1,3.72,3,8.84,8.84,0,0,1,2.09,4.45,8.41,8.41,0,0,1-.8,4.88,11.36,11.36,0,0,1-3.16,3.71,50.4,50.4,0,0,1-8.12,4.79c-2.72,1.44-5.49,2.89-7.5,5.05a7.3,7.3,0,0,0-2,3.72,7,7,0,0,0,.46,4.13c1.17,2.61,3.82,4.35,6.45,5.81s5.54,2.72,8.29,4.32a21.16,21.16,0,0,1,3.91,2.84,9.82,9.82,0,0,1,2.68,4.26,8.75,8.75,0,0,1-.15,5.09,10,10,0,0,1-2.84,4.14,37.5,37.5,0,0,1-8.07,5.06A36.17,36.17,0,0,0,198.1,284a8.25,8.25,0,0,0-2.41,3.43,7.12,7.12,0,0,0-.14,4.09,8.23,8.23,0,0,0,2.22,3.54,19.91,19.91,0,0,0,3.59,2.64c2.62,1.55,5.46,2.81,8.21,4.35a26.63,26.63,0,0,1,4,2.66,10.87,10.87,0,0,1,3.05,3.9,8.56,8.56,0,0,1-.36,7.37,10.51,10.51,0,0,1-1.49,2c-2.29,2.39-5.16,3.82-7.91,5.26a49.12,49.12,0,0,0-7.94,4.6,10.23,10.23,0,0,0-2.87,3.29,7.28,7.28,0,0,0-.7,4.19,7.6,7.6,0,0,0,1.8,3.87,16,16,0,0,0,3.45,2.86c2.57,1.64,5.41,2.91,8.16,4.39a32.32,32.32,0,0,1,4,2.48,12.13,12.13,0,0,1,3.31,3.49,8.17,8.17,0,0,1-.65,9.2c-2,2.54-4.89,4-7.63,5.47a74.33,74.33,0,0,0-8.14,4.45,13.05,13.05,0,0,0-3.33,3.17,7.76,7.76,0,0,0-1.38,4.33h-.1a7.84,7.84,0,0,1,1.36-4.42,13.15,13.15,0,0,1,3.33-3.24,71.87,71.87,0,0,1,8.12-4.57c2.71-1.45,5.52-3,7.43-5.45a7.69,7.69,0,0,0,.54-8.67c-1.65-2.66-4.46-4.28-7.15-5.74s-5.6-2.71-8.23-4.38a16.52,16.52,0,0,1-3.6-3,8.27,8.27,0,0,1-2-4.2,7.93,7.93,0,0,1,.76-4.57,10.82,10.82,0,0,1,3-3.53,50.84,50.84,0,0,1,8-4.71c2.74-1.44,5.56-2.88,7.69-5.13a8,8,0,0,0,2.14-4,7.67,7.67,0,0,0-.47-4.51,10.11,10.11,0,0,0-2.84-3.59,25.12,25.12,0,0,0-3.87-2.55c-2.71-1.51-5.56-2.76-8.25-4.34a20.34,20.34,0,0,1-3.77-2.75,9.07,9.07,0,0,1-2.48-3.94,8,8,0,0,1,.14-4.64,9.17,9.17,0,0,1,2.65-3.82,36.58,36.58,0,0,1,7.91-4.92,37.06,37.06,0,0,0,7.88-4.88,9,9,0,0,0,2.6-3.74,7.86,7.86,0,0,0,.15-4.53,8.86,8.86,0,0,0-2.42-3.86,20.08,20.08,0,0,0-3.73-2.73c-2.68-1.58-5.53-2.83-8.25-4.34a26.44,26.44,0,0,1-3.89-2.57,10.28,10.28,0,0,1-2.89-3.65,7.86,7.86,0,0,1,.3-6.82,10.22,10.22,0,0,1,1.39-1.89c2.16-2.28,5-3.73,7.73-5.16a50.51,50.51,0,0,0,8-4.69,10.75,10.75,0,0,0,3-3.48,7.7,7.7,0,0,0,.75-4.48,8.1,8.1,0,0,0-1.92-4.12,16.36,16.36,0,0,0-3.57-2.95c-2.62-1.66-5.47-2.91-8.21-4.38s-5.53-3.08-7.21-5.78a7.81,7.81,0,0,1,.55-8.81c1.93-2.49,4.76-4,7.47-5.48a70.86,70.86,0,0,0,8.12-4.55,13.12,13.12,0,0,0,3.31-3.21,7.77,7.77,0,0,0,1.33-4.36Z"/><path class="cls-1" d="M215,173.44a4.08,4.08,0,0,1-1.17,2.8,10.31,10.31,0,0,1-2.46,1.85,37.43,37.43,0,0,1-5.65,2.4l-5.79,2a31.65,31.65,0,0,0-5.54,2.46,8.14,8.14,0,0,0-2.26,1.89,3.41,3.41,0,0,0-.74,2.63,3.94,3.94,0,0,0,1.41,2.39,11.86,11.86,0,0,0,2.49,1.59c3.63,1.74,7.64,2.67,11.52,4a28.37,28.37,0,0,1,5.7,2.48,7.69,7.69,0,0,1,2.4,2.19,4.12,4.12,0,0,1,.55,3.33,5.35,5.35,0,0,1-1.9,2.72,13.63,13.63,0,0,1-2.7,1.68,49.46,49.46,0,0,1-5.76,2.26c-1.94.65-3.88,1.26-5.78,2a23.55,23.55,0,0,0-5.37,2.57,5.52,5.52,0,0,0-1.86,2,3,3,0,0,0-.07,2.48c.73,1.6,2.6,2.62,4.37,3.43,3.66,1.61,7.65,2.57,11.53,4a21.81,21.81,0,0,1,5.66,2.76,5.76,5.76,0,0,1,2.11,2.67,4.27,4.27,0,0,1-.32,3.51A7.26,7.26,0,0,1,213,239.8a18.45,18.45,0,0,1-2.79,1.51,61.73,61.73,0,0,1-5.81,2.15c-1.93.65-3.87,1.27-5.75,2a26.78,26.78,0,0,0-2.73,1.19,11.18,11.18,0,0,0-2.41,1.55,3.94,3.94,0,0,0-1.36,2.11,2.9,2.9,0,0,0,.57,2.29,11.36,11.36,0,0,0,4.73,3c3.7,1.5,7.69,2.46,11.58,3.92a17,17,0,0,1,5.6,3.15,5,5,0,0,1,1.61,3.21,4.7,4.7,0,0,1-1.2,3.42,10,10,0,0,1-2.64,2.06,23.38,23.38,0,0,1-2.86,1.37c-1.93.8-3.89,1.44-5.83,2.08s-3.87,1.24-5.71,2a13.35,13.35,0,0,0-4.85,2.93,2.93,2.93,0,0,0-.79,2.18,3.29,3.29,0,0,0,1.1,2.12,15.61,15.61,0,0,0,5,2.8c3.75,1.44,7.73,2.41,11.59,4,1.89.84,3.92,1.71,5.37,3.61a4.45,4.45,0,0,1,.81,3.49,5.39,5.39,0,0,1-1.88,2.95,12.7,12.7,0,0,1-2.73,1.74,27.76,27.76,0,0,1-2.88,1.24c-1.94.74-3.89,1.35-5.83,2s-3.86,1.27-5.68,2.07a18.36,18.36,0,0,0-2.6,1.38,5.91,5.91,0,0,0-1.92,1.9,2.93,2.93,0,0,0-.23,2.4,4.47,4.47,0,0,0,1.65,2.05,21,21,0,0,0,5.29,2.6c3.8,1.39,7.78,2.36,11.6,4.06a16.19,16.19,0,0,1,2.77,1.56,6.31,6.31,0,0,1,2.18,2.54,4.19,4.19,0,0,1-.12,3.45,6.63,6.63,0,0,1-2.26,2.43,24.68,24.68,0,0,1-5.65,2.67c-1.94.7-3.89,1.31-5.82,1.95a46.77,46.77,0,0,0-5.65,2.17,13.17,13.17,0,0,0-2.5,1.53,4.49,4.49,0,0,0-1.57,2.19,3.1,3.1,0,0,0,.42,2.52,6.76,6.76,0,0,0,2.09,1.91,29.07,29.07,0,0,0,5.48,2.43c3.82,1.37,7.81,2.37,11.54,4.22a12.54,12.54,0,0,1,2.61,1.75,4.55,4.55,0,0,1,1.57,2.8,4,4,0,0,1-.91,3.07,8.89,8.89,0,0,1-2.44,2,32.36,32.36,0,0,1-5.67,2.4l-5.83,1.89a36.92,36.92,0,0,0-5.65,2.29,9.74,9.74,0,0,0-2.44,1.78,4,4,0,0,0-1.19,2.68h-.1a4.09,4.09,0,0,1,1.2-2.77,10.23,10.23,0,0,1,2.46-1.83,38.36,38.36,0,0,1,5.66-2.35l5.8-1.94a31.25,31.25,0,0,0,5.6-2.42,8.34,8.34,0,0,0,2.33-1.92,3.72,3.72,0,0,0,.82-2.81,4.22,4.22,0,0,0-1.47-2.56,11.82,11.82,0,0,0-2.54-1.66c-3.67-1.79-7.67-2.76-11.52-4.1a28.31,28.31,0,0,1-5.61-2.47,7.07,7.07,0,0,1-2.26-2.06,3.66,3.66,0,0,1-.5-3,5,5,0,0,1,1.75-2.49,13,13,0,0,1,2.61-1.61,47.8,47.8,0,0,1,5.71-2.22c1.94-.65,3.89-1.26,5.8-2a23.92,23.92,0,0,0,5.5-2.61,6.2,6.2,0,0,0,2-2.19,3.53,3.53,0,0,0,.09-2.9,5.67,5.67,0,0,0-2-2.25,15.33,15.33,0,0,0-2.66-1.48c-3.72-1.65-7.71-2.62-11.55-4a21.5,21.5,0,0,1-5.51-2.69,5.34,5.34,0,0,1-1.91-2.39,3.72,3.72,0,0,1,.28-3,6.59,6.59,0,0,1,2.16-2.17,16.82,16.82,0,0,1,2.71-1.45c1.87-.83,3.81-1.48,5.75-2.12s3.88-1.26,5.78-2a26.85,26.85,0,0,0,2.8-1.21,11.56,11.56,0,0,0,2.55-1.64,4.57,4.57,0,0,0,1.6-2.47,3.56,3.56,0,0,0-.67-2.82,11.73,11.73,0,0,0-5-3.3c-3.77-1.54-7.76-2.51-11.58-4a16.07,16.07,0,0,1-5.34-3,4.26,4.26,0,0,1-1.39-2.72,4,4,0,0,1,1-2.88,9.1,9.1,0,0,1,2.44-1.88,22,22,0,0,1,2.77-1.33c1.89-.78,3.84-1.4,5.77-2s3.89-1.26,5.77-2a21.63,21.63,0,0,0,2.75-1.31,8.78,8.78,0,0,0,2.39-1.84,3.72,3.72,0,0,0,1-2.73,4,4,0,0,0-1.32-2.6,16,16,0,0,0-5.28-2.95c-3.8-1.46-7.79-2.42-11.58-4A12.05,12.05,0,0,1,192,253.1a3.79,3.79,0,0,1-.71-2.95,4.71,4.71,0,0,1,1.64-2.58,11.64,11.64,0,0,1,2.59-1.66,29.33,29.33,0,0,1,2.82-1.23c1.91-.73,3.85-1.34,5.79-2s3.87-1.29,5.74-2.11a17.64,17.64,0,0,0,2.68-1.43,6.41,6.41,0,0,0,2.12-2.12,3.54,3.54,0,0,0,.28-2.88,5.12,5.12,0,0,0-1.85-2.32,21.66,21.66,0,0,0-5.46-2.68c-3.83-1.38-7.82-2.35-11.56-4a15.77,15.77,0,0,1-2.69-1.5,5.91,5.91,0,0,1-2-2.3,3.68,3.68,0,0,1,.09-3,6.21,6.21,0,0,1,2.08-2.24,23.77,23.77,0,0,1,5.53-2.63c1.92-.7,3.87-1.31,5.81-2a47.78,47.78,0,0,0,5.69-2.2,13.48,13.48,0,0,0,2.59-1.6,4.82,4.82,0,0,0,1.72-2.41,3.57,3.57,0,0,0-.47-2.88,7.11,7.11,0,0,0-2.23-2,28.38,28.38,0,0,0-5.58-2.45c-3.84-1.35-7.84-2.31-11.53-4.11a11.79,11.79,0,0,1-2.56-1.68A4.33,4.33,0,0,1,191,189.5a3.82,3.82,0,0,1,.84-2.89,8.25,8.25,0,0,1,2.37-2,31.08,31.08,0,0,1,5.62-2.43l5.8-1.94a36.62,36.62,0,0,0,5.64-2.34,9.64,9.64,0,0,0,2.44-1.8,3.93,3.93,0,0,0,1.17-2.7Z"/><path class="cls-1" d="M22.55,72.31a5.36,5.36,0,0,1-.26,4A12.91,12.91,0,0,1,20,79.61c-1.81,2-3.88,3.71-5.74,5.58a20.06,20.06,0,0,0-2.55,2.93,6.16,6.16,0,0,0-1.22,3.4,4.36,4.36,0,0,0,1.32,3.13A7.48,7.48,0,0,0,15,96.33a58.08,58.08,0,0,0,7.77,1.19,31.74,31.74,0,0,1,4,.69,10.61,10.61,0,0,1,3.94,1.7,5.89,5.89,0,0,1,2.34,3.87A6,6,0,0,1,33,106.1a8.32,8.32,0,0,1-.87,2.05,28.48,28.48,0,0,1-5.62,6,27.18,27.18,0,0,0-5.31,5.55,6.48,6.48,0,0,0-.71,1.6,4.6,4.6,0,0,0-.1,1.65,4.24,4.24,0,0,0,1.67,2.8,9.46,9.46,0,0,0,3.34,1.46,33.81,33.81,0,0,0,3.84.69,47.22,47.22,0,0,1,8,1.4,8.75,8.75,0,0,1,3.72,2.11,5.3,5.3,0,0,1,1.2,1.89,5.6,5.6,0,0,1,.38,2.18,7.26,7.26,0,0,1-1.53,4,20.38,20.38,0,0,1-2.78,3c-2,1.81-4.13,3.4-6,5.27a12.36,12.36,0,0,0-2.39,3.1,5.2,5.2,0,0,0-.44,3.81l-.1,0a5.33,5.33,0,0,1,.36-3.92A12.7,12.7,0,0,1,32,147.54c1.84-1.94,4-3.59,5.87-5.43a20.68,20.68,0,0,0,2.65-3,6.64,6.64,0,0,0,1.37-3.65A4.92,4.92,0,0,0,40.42,132,8,8,0,0,0,37,130.07a51.73,51.73,0,0,0-7.86-1.28,37.94,37.94,0,0,1-3.95-.69,10.2,10.2,0,0,1-3.67-1.6,5.16,5.16,0,0,1-2-3.38,5.28,5.28,0,0,1,.11-2,7.83,7.83,0,0,1,.79-1.86,28,28,0,0,1,5.48-5.81,27.79,27.79,0,0,0,5.45-5.76,7.65,7.65,0,0,0,.79-1.81,5.27,5.27,0,0,0,.11-1.94,5,5,0,0,0-2-3.28,9.77,9.77,0,0,0-3.6-1.57,32.63,32.63,0,0,0-3.93-.69,53,53,0,0,1-7.89-1.31,8.18,8.18,0,0,1-3.5-1.91A5.08,5.08,0,0,1,9.83,91.5a6.76,6.76,0,0,1,1.4-3.72,20.39,20.39,0,0,1,2.67-3c1.93-1.84,4-3.48,5.87-5.41a12.56,12.56,0,0,0,2.33-3.2,5.25,5.25,0,0,0,.36-3.85Z"/><path class="cls-1" d="M37.61,164a7.85,7.85,0,0,1-1.13-3.63,10.6,10.6,0,0,1,.6-3.79c.82-2.44,2.12-4.65,3.07-6.94a14.9,14.9,0,0,0,1.06-3.49,7.27,7.27,0,0,0-.33-3.47,7.84,7.84,0,0,0-1.89-2.9,7.53,7.53,0,0,0-3-1.67,37.35,37.35,0,0,0-7.34-.87,22.83,22.83,0,0,1-3.87-.55A10,10,0,0,1,21,134.92a8.89,8.89,0,0,1-2.54-3.27,8.4,8.4,0,0,1-.75-4.1c.23-2.81,1.52-5.18,2.64-7.42s2.33-4.43,2.52-6.71a6.71,6.71,0,0,0-.56-3.28,7.28,7.28,0,0,0-2-2.67c-1.77-1.42-4.24-1.81-6.7-2A32.6,32.6,0,0,1,6,104.37a9,9,0,0,1-3.48-2.1,8.85,8.85,0,0,1-2.1-3.45,8.28,8.28,0,0,1-.26-4,14.94,14.94,0,0,1,1.25-3.7c1.12-2.31,2.51-4.42,3.43-6.73a10.26,10.26,0,0,0,.78-3.62,7.68,7.68,0,0,0-.91-3.58l.09-.05a7.83,7.83,0,0,1,1,3.63,10.52,10.52,0,0,1-.68,3.72C4.24,86.87,2.89,89,1.86,91.33A15,15,0,0,0,.71,94.91a7.74,7.74,0,0,0,.3,3.7,8.26,8.26,0,0,0,2,3.15,8.19,8.19,0,0,0,3.21,1.87,34.06,34.06,0,0,0,7.48,1c2.49.2,5.14.56,7.2,2.16a8,8,0,0,1,3,6.74c-.22,2.57-1.45,4.87-2.59,7.1s-2.36,4.51-2.58,7a7.81,7.81,0,0,0,2.91,6.58c2,1.57,4.61,1.94,7.09,2.14a34.59,34.59,0,0,1,7.51,1,8.42,8.42,0,0,1,3.28,1.91,8.32,8.32,0,0,1,2,3.2,7.91,7.91,0,0,1,.3,3.77,15.09,15.09,0,0,1-1.17,3.61c-1,2.31-2.38,4.46-3.25,6.83a10.35,10.35,0,0,0-.69,3.68,7.77,7.77,0,0,0,1,3.59Z"/></g></g></svg>