<svg xmlns="http://www.w3.org/2000/svg" viewBox="0 0 59.82 57.17"><g id="Layer_2" data-name="Layer 2"><g id="Layer_1-2" data-name="Layer 1"><path d="M8.25,49.91,2,41.37a10.14,10.14,0,0,1-1.92-7L1.19,22.61a10.16,10.16,0,0,1,2.18-5.35l7.89-9.85a10.14,10.14,0,0,1,4-3L23.85.79A10.15,10.15,0,0,1,30.53.38l7.73,2.18A10,10,0,0,1,41,3.78l12.47,8a10.19,10.19,0,0,1,4.36,6l1.7,6.66a10,10,0,0,1,.31,2.87l-.28,8.13a10.22,10.22,0,0,1-2.15,5.91l-6.54,8.33a10.21,10.21,0,0,1-5.64,3.61L34.08,55.91l-.54.11L28,57a10.17,10.17,0,0,1-4.87-.32l-9.82-3.12A10.13,10.13,0,0,1,8.25,49.91Z"/></g></g></svg>