<svg xmlns="http://www.w3.org/2000/svg" viewBox="0 0 48.49 55.25"><g id="Layer_2" data-name="Layer 2"><g id="Layer_1-2" data-name="Layer 1"><path d="M46.86,12.67a1.21,1.21,0,0,0-.35.43l-1.29,2.58a1.28,1.28,0,0,1-1,.7l-7.53,1.19a1.16,1.16,0,0,1-.61-.05l-2.95-1,5.94-.35a1.32,1.32,0,0,0,.78-.32l2.79-2.45.12-.12,4-4.54A1.27,1.27,0,0,0,47.1,8l.16-2.35.19-3-1,1.84a1.47,1.47,0,0,0-.16.54l-.18,2.88a1.32,1.32,0,0,1-.61,1l-6.48,4a1.37,1.37,0,0,1-.58.19l-5.25.4a1.29,1.29,0,0,1-1.39-1.38l0-.5.05-.71a1.28,1.28,0,0,1,1.37-1.2l.56,0a1.28,1.28,0,0,0,1.36-1l1.26-6.58a1.21,1.21,0,0,1,.16-.41L37.6,0,34.68.77l-.27,0-4.5.2a1.3,1.3,0,0,0-1.07.66l-.23.42a1.25,1.25,0,0,0-.17.68L28.67,9v.13l-.07,1a1.31,1.31,0,0,1-1.38,1.21l-1.07-.07a1.33,1.33,0,0,0-.59.09L24.1,12a1.33,1.33,0,0,0-.53.41l-8.44,11a1.12,1.12,0,0,1-.27.26L9.53,27.57a1.3,1.3,0,0,0-.43,1.55l.3.7a1.35,1.35,0,0,1,.06.84L5.76,44.39a1.27,1.27,0,0,1-.75.86l-1,.44a1.29,1.29,0,0,0-.66.62L.23,52.59a1.11,1.11,0,0,0-.07.16L.07,53a1.29,1.29,0,0,0,1.14,1.7L9,55.25l-.66-.75a1.28,1.28,0,0,0-.68-.4l-3.37-.79a1.29,1.29,0,0,1-.64-2.16L8.4,46.33A1.54,1.54,0,0,0,8.61,46l6.2-11.4a1.29,1.29,0,0,1,1.63-.58l1.85.75,8.88,3.31a1.29,1.29,0,0,1,.84,1.3l-.05.83a1.17,1.17,0,0,0,0,.41l2.25,8.6a1.33,1.33,0,0,1,0,.74,1.29,1.29,0,0,0,1.14,1.7l7.83.52-.66-.76a1.32,1.32,0,0,0-.68-.4L33.34,50a1.29,1.29,0,0,1-1-1.26l-.08-12.33a1.28,1.28,0,0,0-.57-1.07L22.21,29a1.3,1.3,0,0,1-.07-2.09L30.86,20a1.32,1.32,0,0,0,.48-.87l4.22,1.49a1.34,1.34,0,0,0,.84,0l3.52-1.17.16-.07,5.43-2.64a1.28,1.28,0,0,0,.59-.58l1-2.11,1.34-2.68Z"/></g></g></svg>